ISO-10303-21;
HEADER;
/* Generated by software containing ST-Developer
 * from STEP Tools, Inc. (www.steptools.com) 
 */
/* OPTION: using custom renumber hook */

FILE_DESCRIPTION(
/* description */ ('STEP AP242 Edition 2',
'CAx-IF Rec.Pracs.---Representation and Presentation of Product Manufa
cturing Information (PMI)---4.0---2014-10-13',
'CAx-IF Rec.Pracs.---3D Tessellated Geometry---0.4---2014-09-14','2;1',
'CAx-IF Rec.Pracs.---User Defined Attributes---1.5---2016-08-15'),
/* implementation_level */ '2;1');

FILE_NAME(
/* name */ 'Part Studio 3',
/* time_stamp */ '2026-08-11T00:31:41Z',
/* author */ (''),
/* organization */ (''),
/* preprocessor_version */ 'ST-DEVELOPER v20',
/* originating_system */ 'ONSHAPE BY PTC INC, 1.219',
/* authorisation */ '  ');

FILE_SCHEMA (('AP242_MANAGED_MODEL_BASED_3D_ENGINEERING_MIM_LF { 1 0 10303 442 3 1 4 }'));
ENDSEC;

DATA;
#10=B_SPLINE_CURVE_WITH_KNOTS('',2,(#1008,#1009,#1010),.UNSPECIFIED.,.F.,
 .F.,(3,3),(0.,1.),.PIECEWISE_BEZIER_KNOTS.);
#11=B_SPLINE_CURVE_WITH_KNOTS('',2,(#1012,#1013,#1014),.UNSPECIFIED.,.F.,
 .F.,(3,3),(0.,1.),.PIECEWISE_BEZIER_KNOTS.);
#12=B_SPLINE_SURFACE_WITH_KNOTS('',3,1,((#1000,#1001),(#1002,#1003),(#1004,
#1005),(#1006,#1007)),.SURF_OF_LINEAR_EXTRUSION.,.F.,.F.,.F.,(4,4),(2,2),
(0.,1.),(0.,1.),.PIECEWISE_BEZIER_KNOTS.);
#13=SHAPE_REPRESENTATION_RELATIONSHIP('','',#636,#15);
#14=SHAPE_REPRESENTATION_RELATIONSHIP('','',#637,#16);
#15=ADVANCED_BREP_SHAPE_REPRESENTATION('',(#632),#1058);
#16=ADVANCED_BREP_SHAPE_REPRESENTATION('',(#633),#1059);
#17=CYLINDRICAL_SURFACE('',#644,2.6);
#18=CYLINDRICAL_SURFACE('',#647,2.6);
#19=CYLINDRICAL_SURFACE('',#655,2.6);
#20=CYLINDRICAL_SURFACE('',#662,0.8);
#21=CYLINDRICAL_SURFACE('',#663,0.8);
#22=CYLINDRICAL_SURFACE('',#671,2.6);
#23=CYLINDRICAL_SURFACE('',#674,2.6);
#24=CYLINDRICAL_SURFACE('',#679,439.139661820451);
#25=CYLINDRICAL_SURFACE('',#691,4.74295013606328);
#26=CYLINDRICAL_SURFACE('',#696,1.);
#27=CYLINDRICAL_SURFACE('',#697,1.);
#28=LINE('',#876,#82);
#29=LINE('',#881,#83);
#30=LINE('',#885,#84);
#31=LINE('',#888,#85);
#32=LINE('',#889,#86);
#33=LINE('',#893,#87);
#34=LINE('',#895,#88);
#35=LINE('',#897,#89);
#36=LINE('',#903,#90);
#37=LINE('',#907,#91);
#38=LINE('',#912,#92);
#39=LINE('',#914,#93);
#40=LINE('',#916,#94);
#41=LINE('',#918,#95);
#42=LINE('',#920,#96);
#43=LINE('',#922,#97);
#44=LINE('',#940,#98);
#45=LINE('',#945,#99);
#46=LINE('',#948,#100);
#47=LINE('',#951,#101);
#48=LINE('',#953,#102);
#49=LINE('',#955,#103);
#50=LINE('',#957,#104);
#51=LINE('',#959,#105);
#52=LINE('',#961,#106);
#53=LINE('',#963,#107);
#54=LINE('',#965,#108);
#55=LINE('',#967,#109);
#56=LINE('',#969,#110);
#57=LINE('',#971,#111);
#58=LINE('',#975,#112);
#59=LINE('',#977,#113);
#60=LINE('',#989,#114);
#61=LINE('',#993,#115);
#62=LINE('',#995,#116);
#63=LINE('',#997,#117);
#64=LINE('',#999,#118);
#65=LINE('',#1016,#119);
#66=LINE('',#1018,#120);
#67=LINE('',#1020,#121);
#68=LINE('',#1022,#122);
#69=LINE('',#1024,#123);
#70=LINE('',#1026,#124);
#71=LINE('',#1028,#125);
#72=LINE('',#1030,#126);
#73=LINE('',#1032,#127);
#74=LINE('',#1034,#128);
#75=LINE('',#1036,#129);
#76=LINE('',#1038,#130);
#77=LINE('',#1040,#131);
#78=LINE('',#1042,#132);
#79=LINE('',#1044,#133);
#80=LINE('',#1046,#134);
#81=LINE('',#1048,#135);
#82=VECTOR('',#704,1000.);
#83=VECTOR('',#707,1000.);
#84=VECTOR('',#712,1000.);
#85=VECTOR('',#713,1000.);
#86=VECTOR('',#714,1000.);
#87=VECTOR('',#719,1000.);
#88=VECTOR('',#722,1000.);
#89=VECTOR('',#723,1000.);
#90=VECTOR('',#730,1000.);
#91=VECTOR('',#733,1000.);
#92=VECTOR('',#740,1000.);
#93=VECTOR('',#741,1000.);
#94=VECTOR('',#742,1000.);
#95=VECTOR('',#745,1000.);
#96=VECTOR('',#746,1000.);
#97=VECTOR('',#747,1000.);
#98=VECTOR('',#774,1000.);
#99=VECTOR('',#777,1000.);
#100=VECTOR('',#780,1000.);
#101=VECTOR('',#781,1000.);
#102=VECTOR('',#782,1000.);
#103=VECTOR('',#783,1000.);
#104=VECTOR('',#784,1000.);
#105=VECTOR('',#785,1000.);
#106=VECTOR('',#786,1000.);
#107=VECTOR('',#787,1000.);
#108=VECTOR('',#790,1000.);
#109=VECTOR('',#791,1000.);
#110=VECTOR('',#792,1000.);
#111=VECTOR('',#795,1000.);
#112=VECTOR('',#800,1000.);
#113=VECTOR('',#801,1000.);
#114=VECTOR('',#816,1000.);
#115=VECTOR('',#819,1000.);
#116=VECTOR('',#822,1000.);
#117=VECTOR('',#823,1000.);
#118=VECTOR('',#824,1000.);
#119=VECTOR('',#825,1000.);
#120=VECTOR('',#828,1000.);
#121=VECTOR('',#829,1000.);
#122=VECTOR('',#830,1000.);
#123=VECTOR('',#833,1000.);
#124=VECTOR('',#834,1000.);
#125=VECTOR('',#837,1000.);
#126=VECTOR('',#838,1000.);
#127=VECTOR('',#841,1000.);
#128=VECTOR('',#842,1000.);
#129=VECTOR('',#845,1000.);
#130=VECTOR('',#846,1000.);
#131=VECTOR('',#849,1000.);
#132=VECTOR('',#850,1000.);
#133=VECTOR('',#853,1000.);
#134=VECTOR('',#854,1000.);
#135=VECTOR('',#857,1000.);
#136=ORIENTED_EDGE('',*,*,#296,.T.);
#137=ORIENTED_EDGE('',*,*,#297,.T.);
#138=ORIENTED_EDGE('',*,*,#298,.T.);
#139=ORIENTED_EDGE('',*,*,#299,.F.);
#140=ORIENTED_EDGE('',*,*,#300,.F.);
#141=ORIENTED_EDGE('',*,*,#301,.F.);
#142=ORIENTED_EDGE('',*,*,#302,.F.);
#143=ORIENTED_EDGE('',*,*,#299,.T.);
#144=ORIENTED_EDGE('',*,*,#303,.T.);
#145=ORIENTED_EDGE('',*,*,#304,.F.);
#146=ORIENTED_EDGE('',*,*,#305,.F.);
#147=ORIENTED_EDGE('',*,*,#300,.T.);
#148=ORIENTED_EDGE('',*,*,#302,.T.);
#149=ORIENTED_EDGE('',*,*,#306,.T.);
#150=ORIENTED_EDGE('',*,*,#307,.F.);
#151=ORIENTED_EDGE('',*,*,#297,.F.);
#152=ORIENTED_EDGE('',*,*,#305,.T.);
#153=ORIENTED_EDGE('',*,*,#308,.F.);
#154=ORIENTED_EDGE('',*,*,#303,.F.);
#155=ORIENTED_EDGE('',*,*,#298,.F.);
#156=ORIENTED_EDGE('',*,*,#307,.T.);
#157=ORIENTED_EDGE('',*,*,#309,.T.);
#158=ORIENTED_EDGE('',*,*,#310,.F.);
#159=ORIENTED_EDGE('',*,*,#311,.T.);
#160=ORIENTED_EDGE('',*,*,#312,.T.);
#161=ORIENTED_EDGE('',*,*,#313,.T.);
#162=ORIENTED_EDGE('',*,*,#301,.T.);
#163=ORIENTED_EDGE('',*,*,#308,.T.);
#164=ORIENTED_EDGE('',*,*,#306,.F.);
#165=ORIENTED_EDGE('',*,*,#304,.T.);
#166=ORIENTED_EDGE('',*,*,#314,.F.);
#167=ORIENTED_EDGE('',*,*,#312,.F.);
#168=ORIENTED_EDGE('',*,*,#315,.T.);
#169=ORIENTED_EDGE('',*,*,#316,.T.);
#170=ORIENTED_EDGE('',*,*,#317,.T.);
#171=ORIENTED_EDGE('',*,*,#318,.F.);
#172=ORIENTED_EDGE('',*,*,#319,.F.);
#173=ORIENTED_EDGE('',*,*,#310,.T.);
#174=ORIENTED_EDGE('',*,*,#320,.F.);
#175=ORIENTED_EDGE('',*,*,#316,.F.);
#176=ORIENTED_EDGE('',*,*,#321,.T.);
#177=ORIENTED_EDGE('',*,*,#318,.T.);
#178=ORIENTED_EDGE('',*,*,#322,.T.);
#179=ORIENTED_EDGE('',*,*,#315,.F.);
#180=ORIENTED_EDGE('',*,*,#311,.F.);
#181=ORIENTED_EDGE('',*,*,#319,.T.);
#182=ORIENTED_EDGE('',*,*,#321,.F.);
#183=ORIENTED_EDGE('',*,*,#323,.T.);
#184=ORIENTED_EDGE('',*,*,#309,.F.);
#185=ORIENTED_EDGE('',*,*,#314,.T.);
#186=ORIENTED_EDGE('',*,*,#320,.T.);
#187=ORIENTED_EDGE('',*,*,#317,.F.);
#188=ORIENTED_EDGE('',*,*,#322,.F.);
#189=ORIENTED_EDGE('',*,*,#323,.F.);
#190=ORIENTED_EDGE('',*,*,#296,.F.);
#191=ORIENTED_EDGE('',*,*,#313,.F.);
#192=ORIENTED_EDGE('',*,*,#324,.T.);
#193=ORIENTED_EDGE('',*,*,#325,.T.);
#194=ORIENTED_EDGE('',*,*,#326,.T.);
#195=ORIENTED_EDGE('',*,*,#327,.T.);
#196=ORIENTED_EDGE('',*,*,#328,.F.);
#197=ORIENTED_EDGE('',*,*,#329,.T.);
#198=ORIENTED_EDGE('',*,*,#330,.F.);
#199=ORIENTED_EDGE('',*,*,#331,.F.);
#200=ORIENTED_EDGE('',*,*,#332,.F.);
#201=ORIENTED_EDGE('',*,*,#333,.F.);
#202=ORIENTED_EDGE('',*,*,#334,.F.);
#203=ORIENTED_EDGE('',*,*,#335,.F.);
#204=ORIENTED_EDGE('',*,*,#336,.F.);
#205=ORIENTED_EDGE('',*,*,#337,.F.);
#206=ORIENTED_EDGE('',*,*,#326,.F.);
#207=ORIENTED_EDGE('',*,*,#338,.F.);
#208=ORIENTED_EDGE('',*,*,#339,.T.);
#209=ORIENTED_EDGE('',*,*,#340,.T.);
#210=ORIENTED_EDGE('',*,*,#329,.F.);
#211=ORIENTED_EDGE('',*,*,#341,.F.);
#212=ORIENTED_EDGE('',*,*,#342,.T.);
#213=ORIENTED_EDGE('',*,*,#338,.T.);
#214=ORIENTED_EDGE('',*,*,#328,.T.);
#215=ORIENTED_EDGE('',*,*,#343,.F.);
#216=ORIENTED_EDGE('',*,*,#344,.F.);
#217=ORIENTED_EDGE('',*,*,#341,.T.);
#218=ORIENTED_EDGE('',*,*,#327,.F.);
#219=ORIENTED_EDGE('',*,*,#340,.F.);
#220=ORIENTED_EDGE('',*,*,#345,.T.);
#221=ORIENTED_EDGE('',*,*,#343,.T.);
#222=ORIENTED_EDGE('',*,*,#346,.T.);
#223=ORIENTED_EDGE('',*,*,#347,.T.);
#224=ORIENTED_EDGE('',*,*,#339,.F.);
#225=ORIENTED_EDGE('',*,*,#342,.F.);
#226=ORIENTED_EDGE('',*,*,#344,.T.);
#227=ORIENTED_EDGE('',*,*,#345,.F.);
#228=ORIENTED_EDGE('',*,*,#348,.T.);
#229=ORIENTED_EDGE('',*,*,#349,.F.);
#230=ORIENTED_EDGE('',*,*,#350,.F.);
#231=ORIENTED_EDGE('',*,*,#351,.T.);
#232=ORIENTED_EDGE('',*,*,#352,.T.);
#233=ORIENTED_EDGE('',*,*,#351,.F.);
#234=ORIENTED_EDGE('',*,*,#353,.F.);
#235=ORIENTED_EDGE('',*,*,#354,.T.);
#236=ORIENTED_EDGE('',*,*,#355,.T.);
#237=ORIENTED_EDGE('',*,*,#354,.F.);
#238=ORIENTED_EDGE('',*,*,#356,.F.);
#239=ORIENTED_EDGE('',*,*,#357,.T.);
#240=ORIENTED_EDGE('',*,*,#330,.T.);
#241=ORIENTED_EDGE('',*,*,#358,.F.);
#242=ORIENTED_EDGE('',*,*,#359,.F.);
#243=ORIENTED_EDGE('',*,*,#360,.T.);
#244=ORIENTED_EDGE('',*,*,#331,.T.);
#245=ORIENTED_EDGE('',*,*,#360,.F.);
#246=ORIENTED_EDGE('',*,*,#361,.F.);
#247=ORIENTED_EDGE('',*,*,#362,.T.);
#248=ORIENTED_EDGE('',*,*,#332,.T.);
#249=ORIENTED_EDGE('',*,*,#362,.F.);
#250=ORIENTED_EDGE('',*,*,#363,.F.);
#251=ORIENTED_EDGE('',*,*,#364,.T.);
#252=ORIENTED_EDGE('',*,*,#333,.T.);
#253=ORIENTED_EDGE('',*,*,#364,.F.);
#254=ORIENTED_EDGE('',*,*,#365,.F.);
#255=ORIENTED_EDGE('',*,*,#366,.T.);
#256=ORIENTED_EDGE('',*,*,#334,.T.);
#257=ORIENTED_EDGE('',*,*,#366,.F.);
#258=ORIENTED_EDGE('',*,*,#367,.F.);
#259=ORIENTED_EDGE('',*,*,#368,.T.);
#260=ORIENTED_EDGE('',*,*,#335,.T.);
#261=ORIENTED_EDGE('',*,*,#368,.F.);
#262=ORIENTED_EDGE('',*,*,#369,.F.);
#263=ORIENTED_EDGE('',*,*,#370,.T.);
#264=ORIENTED_EDGE('',*,*,#336,.T.);
#265=ORIENTED_EDGE('',*,*,#370,.F.);
#266=ORIENTED_EDGE('',*,*,#371,.F.);
#267=ORIENTED_EDGE('',*,*,#372,.T.);
#268=ORIENTED_EDGE('',*,*,#337,.T.);
#269=ORIENTED_EDGE('',*,*,#372,.F.);
#270=ORIENTED_EDGE('',*,*,#373,.F.);
#271=ORIENTED_EDGE('',*,*,#358,.T.);
#272=ORIENTED_EDGE('',*,*,#374,.T.);
#273=ORIENTED_EDGE('',*,*,#357,.F.);
#274=ORIENTED_EDGE('',*,*,#375,.F.);
#275=ORIENTED_EDGE('',*,*,#349,.T.);
#276=ORIENTED_EDGE('',*,*,#359,.T.);
#277=ORIENTED_EDGE('',*,*,#373,.T.);
#278=ORIENTED_EDGE('',*,*,#371,.T.);
#279=ORIENTED_EDGE('',*,*,#369,.T.);
#280=ORIENTED_EDGE('',*,*,#367,.T.);
#281=ORIENTED_EDGE('',*,*,#365,.T.);
#282=ORIENTED_EDGE('',*,*,#363,.T.);
#283=ORIENTED_EDGE('',*,*,#361,.T.);
#284=ORIENTED_EDGE('',*,*,#350,.T.);
#285=ORIENTED_EDGE('',*,*,#375,.T.);
#286=ORIENTED_EDGE('',*,*,#356,.T.);
#287=ORIENTED_EDGE('',*,*,#353,.T.);
#288=ORIENTED_EDGE('',*,*,#348,.F.);
#289=ORIENTED_EDGE('',*,*,#352,.F.);
#290=ORIENTED_EDGE('',*,*,#355,.F.);
#291=ORIENTED_EDGE('',*,*,#374,.F.);
#292=ORIENTED_EDGE('',*,*,#347,.F.);
#293=ORIENTED_EDGE('',*,*,#325,.F.);
#294=ORIENTED_EDGE('',*,*,#346,.F.);
#295=ORIENTED_EDGE('',*,*,#324,.F.);
#296=EDGE_CURVE('',#376,#376,#432,.F.);
#297=EDGE_CURVE('',#377,#378,#28,.T.);
#298=EDGE_CURVE('',#378,#379,#433,.T.);
#299=EDGE_CURVE('',#380,#379,#29,.T.);
#300=EDGE_CURVE('',#377,#380,#434,.T.);
#301=EDGE_CURVE('',#381,#382,#30,.T.);
#302=EDGE_CURVE('',#380,#381,#31,.T.);
#303=EDGE_CURVE('',#379,#382,#32,.T.);
#304=EDGE_CURVE('',#383,#381,#435,.T.);
#305=EDGE_CURVE('',#377,#383,#33,.T.);
#306=EDGE_CURVE('',#383,#384,#34,.T.);
#307=EDGE_CURVE('',#378,#384,#35,.T.);
#308=EDGE_CURVE('',#382,#384,#436,.T.);
#309=EDGE_CURVE('',#385,#386,#437,.T.);
#310=EDGE_CURVE('',#387,#386,#36,.T.);
#311=EDGE_CURVE('',#387,#388,#438,.T.);
#312=EDGE_CURVE('',#388,#385,#37,.T.);
#313=EDGE_CURVE('',#389,#389,#439,.T.);
#314=EDGE_CURVE('',#385,#390,#38,.T.);
#315=EDGE_CURVE('',#388,#391,#39,.T.);
#316=EDGE_CURVE('',#391,#390,#40,.T.);
#317=EDGE_CURVE('',#386,#392,#41,.T.);
#318=EDGE_CURVE('',#393,#392,#42,.T.);
#319=EDGE_CURVE('',#387,#393,#43,.T.);
#320=EDGE_CURVE('',#390,#392,#440,.T.);
#321=EDGE_CURVE('',#391,#393,#441,.T.);
#322=EDGE_CURVE('',#394,#394,#442,.F.);
#323=EDGE_CURVE('',#395,#395,#443,.T.);
#324=EDGE_CURVE('',#396,#396,#444,.T.);
#325=EDGE_CURVE('',#397,#397,#445,.T.);
#326=EDGE_CURVE('',#398,#399,#44,.T.);
#327=EDGE_CURVE('',#399,#400,#446,.T.);
#328=EDGE_CURVE('',#401,#400,#45,.T.);
#329=EDGE_CURVE('',#401,#398,#447,.T.);
#330=EDGE_CURVE('',#402,#403,#46,.T.);
#331=EDGE_CURVE('',#404,#402,#47,.T.);
#332=EDGE_CURVE('',#405,#404,#48,.T.);
#333=EDGE_CURVE('',#406,#405,#49,.T.);
#334=EDGE_CURVE('',#407,#406,#50,.T.);
#335=EDGE_CURVE('',#408,#407,#51,.T.);
#336=EDGE_CURVE('',#409,#408,#52,.T.);
#337=EDGE_CURVE('',#403,#409,#53,.T.);
#338=EDGE_CURVE('',#410,#398,#54,.T.);
#339=EDGE_CURVE('',#410,#411,#55,.T.);
#340=EDGE_CURVE('',#411,#399,#56,.T.);
#341=EDGE_CURVE('',#412,#401,#57,.T.);
#342=EDGE_CURVE('',#412,#410,#448,.T.);
#343=EDGE_CURVE('',#413,#400,#58,.T.);
#344=EDGE_CURVE('',#412,#413,#59,.T.);
#345=EDGE_CURVE('',#411,#413,#449,.T.);
#346=EDGE_CURVE('',#414,#414,#450,.F.);
#347=EDGE_CURVE('',#415,#415,#451,.F.);
#348=EDGE_CURVE('',#416,#417,#452,.F.);
#349=EDGE_CURVE('',#418,#417,#60,.T.);
#350=EDGE_CURVE('',#419,#418,#453,.F.);
#351=EDGE_CURVE('',#419,#416,#61,.T.);
#352=EDGE_CURVE('',#420,#416,#62,.T.);
#353=EDGE_CURVE('',#421,#419,#63,.T.);
#354=EDGE_CURVE('',#421,#420,#64,.T.);
#355=EDGE_CURVE('',#422,#420,#10,.T.);
#356=EDGE_CURVE('',#423,#421,#11,.T.);
#357=EDGE_CURVE('',#423,#422,#65,.T.);
#358=EDGE_CURVE('',#424,#403,#66,.T.);
#359=EDGE_CURVE('',#425,#424,#67,.T.);
#360=EDGE_CURVE('',#425,#402,#68,.T.);
#361=EDGE_CURVE('',#426,#425,#69,.T.);
#362=EDGE_CURVE('',#426,#404,#70,.T.);
#363=EDGE_CURVE('',#427,#426,#71,.T.);
#364=EDGE_CURVE('',#427,#405,#72,.T.);
#365=EDGE_CURVE('',#428,#427,#73,.T.);
#366=EDGE_CURVE('',#428,#406,#74,.T.);
#367=EDGE_CURVE('',#429,#428,#75,.T.);
#368=EDGE_CURVE('',#429,#407,#76,.T.);
#369=EDGE_CURVE('',#430,#429,#77,.T.);
#370=EDGE_CURVE('',#430,#408,#78,.T.);
#371=EDGE_CURVE('',#431,#430,#79,.T.);
#372=EDGE_CURVE('',#431,#409,#80,.T.);
#373=EDGE_CURVE('',#424,#431,#81,.T.);
#374=EDGE_CURVE('',#417,#422,#454,.F.);
#375=EDGE_CURVE('',#418,#423,#455,.F.);
#376=VERTEX_POINT('',#875);
#377=VERTEX_POINT('',#877);
#378=VERTEX_POINT('',#878);
#379=VERTEX_POINT('',#880);
#380=VERTEX_POINT('',#882);
#381=VERTEX_POINT('',#886);
#382=VERTEX_POINT('',#887);
#383=VERTEX_POINT('',#892);
#384=VERTEX_POINT('',#896);
#385=VERTEX_POINT('',#901);
#386=VERTEX_POINT('',#902);
#387=VERTEX_POINT('',#904);
#388=VERTEX_POINT('',#906);
#389=VERTEX_POINT('',#910);
#390=VERTEX_POINT('',#913);
#391=VERTEX_POINT('',#915);
#392=VERTEX_POINT('',#919);
#393=VERTEX_POINT('',#921);
#394=VERTEX_POINT('',#928);
#395=VERTEX_POINT('',#931);
#396=VERTEX_POINT('',#937);
#397=VERTEX_POINT('',#939);
#398=VERTEX_POINT('',#941);
#399=VERTEX_POINT('',#942);
#400=VERTEX_POINT('',#944);
#401=VERTEX_POINT('',#946);
#402=VERTEX_POINT('',#949);
#403=VERTEX_POINT('',#950);
#404=VERTEX_POINT('',#952);
#405=VERTEX_POINT('',#954);
#406=VERTEX_POINT('',#956);
#407=VERTEX_POINT('',#958);
#408=VERTEX_POINT('',#960);
#409=VERTEX_POINT('',#962);
#410=VERTEX_POINT('',#966);
#411=VERTEX_POINT('',#968);
#412=VERTEX_POINT('',#972);
#413=VERTEX_POINT('',#976);
#414=VERTEX_POINT('',#982);
#415=VERTEX_POINT('',#984);
#416=VERTEX_POINT('',#987);
#417=VERTEX_POINT('',#988);
#418=VERTEX_POINT('',#990);
#419=VERTEX_POINT('',#992);
#420=VERTEX_POINT('',#996);
#421=VERTEX_POINT('',#998);
#422=VERTEX_POINT('',#1011);
#423=VERTEX_POINT('',#1015);
#424=VERTEX_POINT('',#1019);
#425=VERTEX_POINT('',#1021);
#426=VERTEX_POINT('',#1025);
#427=VERTEX_POINT('',#1029);
#428=VERTEX_POINT('',#1033);
#429=VERTEX_POINT('',#1037);
#430=VERTEX_POINT('',#1041);
#431=VERTEX_POINT('',#1045);
#432=CIRCLE('',#640,0.8);
#433=CIRCLE('',#641,2.6);
#434=CIRCLE('',#642,2.6);
#435=CIRCLE('',#645,2.6);
#436=CIRCLE('',#648,2.6);
#437=CIRCLE('',#649,2.6);
#438=CIRCLE('',#650,2.6);
#439=CIRCLE('',#652,0.8);
#440=CIRCLE('',#656,2.6);
#441=CIRCLE('',#657,2.6);
#442=CIRCLE('',#659,0.8);
#443=CIRCLE('',#661,0.8);
#444=CIRCLE('',#666,1.);
#445=CIRCLE('',#667,1.);
#446=CIRCLE('',#668,2.6);
#447=CIRCLE('',#669,2.6);
#448=CIRCLE('',#672,2.6);
#449=CIRCLE('',#675,2.6);
#450=CIRCLE('',#677,1.);
#451=CIRCLE('',#678,1.);
#452=CIRCLE('',#680,439.139661820451);
#453=CIRCLE('',#681,439.139661820451);
#454=CIRCLE('',#692,4.74295013606328);
#455=CIRCLE('',#693,4.74295013606328);
#456=EDGE_LOOP('',(#136));
#457=EDGE_LOOP('',(#137,#138,#139,#140));
#458=EDGE_LOOP('',(#141,#142,#143,#144));
#459=EDGE_LOOP('',(#145,#146,#147,#148));
#460=EDGE_LOOP('',(#149,#150,#151,#152));
#461=EDGE_LOOP('',(#153,#154,#155,#156));
#462=EDGE_LOOP('',(#157,#158,#159,#160));
#463=EDGE_LOOP('',(#161));
#464=EDGE_LOOP('',(#162,#163,#164,#165));
#465=EDGE_LOOP('',(#166,#167,#168,#169));
#466=EDGE_LOOP('',(#170,#171,#172,#173));
#467=EDGE_LOOP('',(#174,#175,#176,#177));
#468=EDGE_LOOP('',(#178));
#469=EDGE_LOOP('',(#179,#180,#181,#182));
#470=EDGE_LOOP('',(#183));
#471=EDGE_LOOP('',(#184,#185,#186,#187));
#472=EDGE_LOOP('',(#188));
#473=EDGE_LOOP('',(#189));
#474=EDGE_LOOP('',(#190));
#475=EDGE_LOOP('',(#191));
#476=EDGE_LOOP('',(#192));
#477=EDGE_LOOP('',(#193));
#478=EDGE_LOOP('',(#194,#195,#196,#197));
#479=EDGE_LOOP('',(#198,#199,#200,#201,#202,#203,#204,#205));
#480=EDGE_LOOP('',(#206,#207,#208,#209));
#481=EDGE_LOOP('',(#210,#211,#212,#213));
#482=EDGE_LOOP('',(#214,#215,#216,#217));
#483=EDGE_LOOP('',(#218,#219,#220,#221));
#484=EDGE_LOOP('',(#222));
#485=EDGE_LOOP('',(#223));
#486=EDGE_LOOP('',(#224,#225,#226,#227));
#487=EDGE_LOOP('',(#228,#229,#230,#231));
#488=EDGE_LOOP('',(#232,#233,#234,#235));
#489=EDGE_LOOP('',(#236,#237,#238,#239));
#490=EDGE_LOOP('',(#240,#241,#242,#243));
#491=EDGE_LOOP('',(#244,#245,#246,#247));
#492=EDGE_LOOP('',(#248,#249,#250,#251));
#493=EDGE_LOOP('',(#252,#253,#254,#255));
#494=EDGE_LOOP('',(#256,#257,#258,#259));
#495=EDGE_LOOP('',(#260,#261,#262,#263));
#496=EDGE_LOOP('',(#264,#265,#266,#267));
#497=EDGE_LOOP('',(#268,#269,#270,#271));
#498=EDGE_LOOP('',(#272,#273,#274,#275));
#499=EDGE_LOOP('',(#276,#277,#278,#279,#280,#281,#282,#283));
#500=EDGE_LOOP('',(#284,#285,#286,#287));
#501=EDGE_LOOP('',(#288,#289,#290,#291));
#502=EDGE_LOOP('',(#292));
#503=EDGE_LOOP('',(#293));
#504=EDGE_LOOP('',(#294));
#505=EDGE_LOOP('',(#295));
#506=FACE_BOUND('',#456,.T.);
#507=FACE_BOUND('',#457,.T.);
#508=FACE_BOUND('',#458,.T.);
#509=FACE_BOUND('',#459,.T.);
#510=FACE_BOUND('',#460,.T.);
#511=FACE_BOUND('',#461,.T.);
#512=FACE_BOUND('',#462,.T.);
#513=FACE_BOUND('',#463,.T.);
#514=FACE_BOUND('',#464,.T.);
#515=FACE_BOUND('',#465,.T.);
#516=FACE_BOUND('',#466,.T.);
#517=FACE_BOUND('',#467,.T.);
#518=FACE_BOUND('',#468,.T.);
#519=FACE_BOUND('',#469,.T.);
#520=FACE_BOUND('',#470,.T.);
#521=FACE_BOUND('',#471,.T.);
#522=FACE_BOUND('',#472,.T.);
#523=FACE_BOUND('',#473,.T.);
#524=FACE_BOUND('',#474,.T.);
#525=FACE_BOUND('',#475,.T.);
#526=FACE_BOUND('',#476,.T.);
#527=FACE_BOUND('',#477,.T.);
#528=FACE_BOUND('',#478,.T.);
#529=FACE_BOUND('',#479,.T.);
#530=FACE_BOUND('',#480,.T.);
#531=FACE_BOUND('',#481,.T.);
#532=FACE_BOUND('',#482,.T.);
#533=FACE_BOUND('',#483,.T.);
#534=FACE_BOUND('',#484,.T.);
#535=FACE_BOUND('',#485,.T.);
#536=FACE_BOUND('',#486,.T.);
#537=FACE_BOUND('',#487,.T.);
#538=FACE_BOUND('',#488,.T.);
#539=FACE_BOUND('',#489,.T.);
#540=FACE_BOUND('',#490,.T.);
#541=FACE_BOUND('',#491,.T.);
#542=FACE_BOUND('',#492,.T.);
#543=FACE_BOUND('',#493,.T.);
#544=FACE_BOUND('',#494,.T.);
#545=FACE_BOUND('',#495,.T.);
#546=FACE_BOUND('',#496,.T.);
#547=FACE_BOUND('',#497,.T.);
#548=FACE_BOUND('',#498,.T.);
#549=FACE_BOUND('',#499,.T.);
#550=FACE_BOUND('',#500,.T.);
#551=FACE_BOUND('',#501,.T.);
#552=FACE_BOUND('',#502,.T.);
#553=FACE_BOUND('',#503,.T.);
#554=FACE_BOUND('',#504,.T.);
#555=FACE_BOUND('',#505,.T.);
#556=PLANE('',#639);
#557=PLANE('',#643);
#558=PLANE('',#646);
#559=PLANE('',#651);
#560=PLANE('',#653);
#561=PLANE('',#654);
#562=PLANE('',#658);
#563=PLANE('',#660);
#564=PLANE('',#665);
#565=PLANE('',#670);
#566=PLANE('',#673);
#567=PLANE('',#676);
#568=PLANE('',#682);
#569=PLANE('',#683);
#570=PLANE('',#684);
#571=PLANE('',#685);
#572=PLANE('',#686);
#573=PLANE('',#687);
#574=PLANE('',#688);
#575=PLANE('',#689);
#576=PLANE('',#690);
#577=PLANE('',#694);
#578=PLANE('',#695);
#579=ADVANCED_FACE('',(#506,#507),#556,.T.);
#580=ADVANCED_FACE('',(#508),#557,.T.);
#581=ADVANCED_FACE('',(#509),#17,.T.);
#582=ADVANCED_FACE('',(#510),#558,.F.);
#583=ADVANCED_FACE('',(#511,#512),#18,.T.);
#584=ADVANCED_FACE('',(#513,#514),#559,.F.);
#585=ADVANCED_FACE('',(#515),#560,.T.);
#586=ADVANCED_FACE('',(#516),#561,.F.);
#587=ADVANCED_FACE('',(#517),#19,.T.);
#588=ADVANCED_FACE('',(#518,#519),#562,.T.);
#589=ADVANCED_FACE('',(#520,#521),#563,.F.);
#590=ADVANCED_FACE('',(#522,#523),#20,.F.);
#591=ADVANCED_FACE('',(#524,#525),#21,.F.);
#592=ADVANCED_FACE('',(#526,#527,#528,#529),#564,.F.);
#593=ADVANCED_FACE('',(#530),#565,.T.);
#594=ADVANCED_FACE('',(#531),#22,.T.);
#595=ADVANCED_FACE('',(#532),#566,.F.);
#596=ADVANCED_FACE('',(#533),#23,.T.);
#597=ADVANCED_FACE('',(#534,#535,#536),#567,.T.);
#598=ADVANCED_FACE('',(#537),#24,.T.);
#599=ADVANCED_FACE('',(#538),#568,.F.);
#600=ADVANCED_FACE('',(#539),#12,.F.);
#601=ADVANCED_FACE('',(#540),#569,.F.);
#602=ADVANCED_FACE('',(#541),#570,.F.);
#603=ADVANCED_FACE('',(#542),#571,.F.);
#604=ADVANCED_FACE('',(#543),#572,.F.);
#605=ADVANCED_FACE('',(#544),#573,.F.);
#606=ADVANCED_FACE('',(#545),#574,.F.);
#607=ADVANCED_FACE('',(#546),#575,.F.);
#608=ADVANCED_FACE('',(#547),#576,.F.);
#609=ADVANCED_FACE('',(#548),#25,.T.);
#610=ADVANCED_FACE('',(#549,#550),#577,.F.);
#611=ADVANCED_FACE('',(#551),#578,.F.);
#612=ADVANCED_FACE('',(#552,#553),#26,.F.);
#613=ADVANCED_FACE('',(#554,#555),#27,.F.);
#614=CLOSED_SHELL('',(#579,#580,#581,#582,#583,#584,#585,#586,#587,#588,
#589,#590,#591));
#615=CLOSED_SHELL('',(#592,#593,#594,#595,#596,#597,#598,#599,#600,#601,
#602,#603,#604,#605,#606,#607,#608,#609,#610,#611,#612,#613));
#616=STYLED_ITEM('',(#618),#632);
#617=STYLED_ITEM('',(#619),#633);
#618=PRESENTATION_STYLE_ASSIGNMENT((#620));
#619=PRESENTATION_STYLE_ASSIGNMENT((#621));
#620=SURFACE_STYLE_USAGE(.BOTH.,#622);
#621=SURFACE_STYLE_USAGE(.BOTH.,#623);
#622=SURFACE_SIDE_STYLE('',(#624));
#623=SURFACE_SIDE_STYLE('',(#625));
#624=SURFACE_STYLE_FILL_AREA(#626);
#625=SURFACE_STYLE_FILL_AREA(#627);
#626=FILL_AREA_STYLE('',(#628));
#627=FILL_AREA_STYLE('',(#629));
#628=FILL_AREA_STYLE_COLOUR('',#630);
#629=FILL_AREA_STYLE_COLOUR('',#631);
#630=COLOUR_RGB('',0.647058823529412,0.647058823529412,0.647058823529412);
#631=COLOUR_RGB('',0.615686274509804,0.811764705882353,0.929411764705882);
#632=MANIFOLD_SOLID_BREP('Part 2',#614);
#633=MANIFOLD_SOLID_BREP('Arm A',#615);
#634=SHAPE_DEFINITION_REPRESENTATION(#1068,#636);
#635=SHAPE_DEFINITION_REPRESENTATION(#1069,#637);
#636=SHAPE_REPRESENTATION('Part 2',(#638),#1058);
#637=SHAPE_REPRESENTATION('Arm A',(#664),#1059);
#638=AXIS2_PLACEMENT_3D('',#872,#698,#699);
#639=AXIS2_PLACEMENT_3D('',#873,#700,#701);
#640=AXIS2_PLACEMENT_3D('',#874,#702,#703);
#641=AXIS2_PLACEMENT_3D('',#879,#705,#706);
#642=AXIS2_PLACEMENT_3D('',#883,#708,#709);
#643=AXIS2_PLACEMENT_3D('',#884,#710,#711);
#644=AXIS2_PLACEMENT_3D('',#890,#715,#716);
#645=AXIS2_PLACEMENT_3D('',#891,#717,#718);
#646=AXIS2_PLACEMENT_3D('',#894,#720,#721);
#647=AXIS2_PLACEMENT_3D('',#898,#724,#725);
#648=AXIS2_PLACEMENT_3D('',#899,#726,#727);
#649=AXIS2_PLACEMENT_3D('',#900,#728,#729);
#650=AXIS2_PLACEMENT_3D('',#905,#731,#732);
#651=AXIS2_PLACEMENT_3D('',#908,#734,#735);
#652=AXIS2_PLACEMENT_3D('',#909,#736,#737);
#653=AXIS2_PLACEMENT_3D('',#911,#738,#739);
#654=AXIS2_PLACEMENT_3D('',#917,#743,#744);
#655=AXIS2_PLACEMENT_3D('',#923,#748,#749);
#656=AXIS2_PLACEMENT_3D('',#924,#750,#751);
#657=AXIS2_PLACEMENT_3D('',#925,#752,#753);
#658=AXIS2_PLACEMENT_3D('',#926,#754,#755);
#659=AXIS2_PLACEMENT_3D('',#927,#756,#757);
#660=AXIS2_PLACEMENT_3D('',#929,#758,#759);
#661=AXIS2_PLACEMENT_3D('',#930,#760,#761);
#662=AXIS2_PLACEMENT_3D('',#932,#762,#763);
#663=AXIS2_PLACEMENT_3D('',#933,#764,#765);
#664=AXIS2_PLACEMENT_3D('',#934,#766,#767);
#665=AXIS2_PLACEMENT_3D('',#935,#768,#769);
#666=AXIS2_PLACEMENT_3D('',#936,#770,#771);
#667=AXIS2_PLACEMENT_3D('',#938,#772,#773);
#668=AXIS2_PLACEMENT_3D('',#943,#775,#776);
#669=AXIS2_PLACEMENT_3D('',#947,#778,#779);
#670=AXIS2_PLACEMENT_3D('',#964,#788,#789);
#671=AXIS2_PLACEMENT_3D('',#970,#793,#794);
#672=AXIS2_PLACEMENT_3D('',#973,#796,#797);
#673=AXIS2_PLACEMENT_3D('',#974,#798,#799);
#674=AXIS2_PLACEMENT_3D('',#978,#802,#803);
#675=AXIS2_PLACEMENT_3D('',#979,#804,#805);
#676=AXIS2_PLACEMENT_3D('',#980,#806,#807);
#677=AXIS2_PLACEMENT_3D('',#981,#808,#809);
#678=AXIS2_PLACEMENT_3D('',#983,#810,#811);
#679=AXIS2_PLACEMENT_3D('',#985,#812,#813);
#680=AXIS2_PLACEMENT_3D('',#986,#814,#815);
#681=AXIS2_PLACEMENT_3D('',#991,#817,#818);
#682=AXIS2_PLACEMENT_3D('',#994,#820,#821);
#683=AXIS2_PLACEMENT_3D('',#1017,#826,#827);
#684=AXIS2_PLACEMENT_3D('',#1023,#831,#832);
#685=AXIS2_PLACEMENT_3D('',#1027,#835,#836);
#686=AXIS2_PLACEMENT_3D('',#1031,#839,#840);
#687=AXIS2_PLACEMENT_3D('',#1035,#843,#844);
#688=AXIS2_PLACEMENT_3D('',#1039,#847,#848);
#689=AXIS2_PLACEMENT_3D('',#1043,#851,#852);
#690=AXIS2_PLACEMENT_3D('',#1047,#855,#856);
#691=AXIS2_PLACEMENT_3D('',#1049,#858,#859);
#692=AXIS2_PLACEMENT_3D('',#1050,#860,#861);
#693=AXIS2_PLACEMENT_3D('',#1051,#862,#863);
#694=AXIS2_PLACEMENT_3D('',#1052,#864,#865);
#695=AXIS2_PLACEMENT_3D('',#1053,#866,#867);
#696=AXIS2_PLACEMENT_3D('',#1054,#868,#869);
#697=AXIS2_PLACEMENT_3D('',#1055,#870,#871);
#698=DIRECTION('',(0.,0.,1.));
#699=DIRECTION('',(1.,0.,0.));
#700=DIRECTION('',(0.,1.,0.));
#701=DIRECTION('',(1.,0.,0.));
#702=DIRECTION('',(0.,1.,0.));
#703=DIRECTION('',(1.,0.,0.));
#704=DIRECTION('',(1.,0.,-2.6096859242195E-16));
#705=DIRECTION('',(0.,-1.,0.));
#706=DIRECTION('',(1.,0.,0.));
#707=DIRECTION('',(1.,0.,-2.6096859242195E-16));
#708=DIRECTION('',(0.,-1.,0.));
#709=DIRECTION('',(1.,0.,0.));
#710=DIRECTION('',(-2.6096859242195E-16,0.,-1.));
#711=DIRECTION('',(-1.,0.,2.6096859242195E-16));
#712=DIRECTION('',(1.,0.,-2.6096859242195E-16));
#713=DIRECTION('',(0.,-1.,0.));
#714=DIRECTION('',(0.,-1.,0.));
#715=DIRECTION('',(0.,-1.,0.));
#716=DIRECTION('',(-1.,0.,0.));
#717=DIRECTION('',(0.,-1.,0.));
#718=DIRECTION('',(1.,0.,0.));
#719=DIRECTION('',(0.,-1.,0.));
#720=DIRECTION('',(-2.6096859242195E-16,0.,-1.));
#721=DIRECTION('',(-1.,0.,2.6096859242195E-16));
#722=DIRECTION('',(1.,0.,-2.6096859242195E-16));
#723=DIRECTION('',(0.,-1.,0.));
#724=DIRECTION('',(0.,-1.,0.));
#725=DIRECTION('',(-1.,0.,0.));
#726=DIRECTION('',(0.,-1.,0.));
#727=DIRECTION('',(1.,0.,0.));
#728=DIRECTION('',(0.,-1.,0.));
#729=DIRECTION('',(1.,0.,0.));
#730=DIRECTION('',(0.,-1.,0.));
#731=DIRECTION('',(0.,-1.,0.));
#732=DIRECTION('',(1.,0.,0.));
#733=DIRECTION('',(0.,-1.,0.));
#734=DIRECTION('',(0.,1.,0.));
#735=DIRECTION('',(1.,0.,0.));
#736=DIRECTION('',(0.,1.,0.));
#737=DIRECTION('',(1.,0.,0.));
#738=DIRECTION('',(0.,0.,-1.));
#739=DIRECTION('',(0.,1.,0.));
#740=DIRECTION('',(1.,0.,0.));
#741=DIRECTION('',(1.,0.,0.));
#742=DIRECTION('',(0.,-1.,0.));
#743=DIRECTION('',(0.,0.,-1.));
#744=DIRECTION('',(0.,1.,0.));
#745=DIRECTION('',(1.,0.,0.));
#746=DIRECTION('',(0.,-1.,0.));
#747=DIRECTION('',(1.,0.,0.));
#748=DIRECTION('',(0.,-1.,0.));
#749=DIRECTION('',(-1.,0.,0.));
#750=DIRECTION('',(0.,-1.,0.));
#751=DIRECTION('',(1.,0.,0.));
#752=DIRECTION('',(0.,-1.,0.));
#753=DIRECTION('',(1.,0.,0.));
#754=DIRECTION('',(0.,1.,0.));
#755=DIRECTION('',(1.,0.,0.));
#756=DIRECTION('',(0.,1.,0.));
#757=DIRECTION('',(1.,0.,0.));
#758=DIRECTION('',(0.,1.,0.));
#759=DIRECTION('',(1.,0.,0.));
#760=DIRECTION('',(0.,1.,0.));
#761=DIRECTION('',(1.,0.,0.));
#762=DIRECTION('',(0.,1.,0.));
#763=DIRECTION('',(1.,0.,0.));
#764=DIRECTION('',(0.,1.,0.));
#765=DIRECTION('',(1.,0.,0.));
#766=DIRECTION('',(0.,0.,1.));
#767=DIRECTION('',(1.,0.,0.));
#768=DIRECTION('',(0.,1.,0.));
#769=DIRECTION('',(1.,0.,0.));
#770=DIRECTION('',(0.,1.,0.));
#771=DIRECTION('',(1.,0.,0.));
#772=DIRECTION('',(0.,1.,0.));
#773=DIRECTION('',(1.,0.,0.));
#774=DIRECTION('',(1.,0.,-2.36703164342427E-16));
#775=DIRECTION('',(0.,-1.,0.));
#776=DIRECTION('',(1.,0.,0.));
#777=DIRECTION('',(1.,0.,-2.36703164342427E-16));
#778=DIRECTION('',(0.,-1.,0.));
#779=DIRECTION('',(1.,0.,0.));
#780=DIRECTION('',(-0.291056642682016,0.,-0.956705822471398));
#781=DIRECTION('',(-1.,0.,0.));
#782=DIRECTION('',(0.332766361047278,0.,0.943009304808469));
#783=DIRECTION('',(1.,0.,0.));
#784=DIRECTION('',(0.331669016823166,0.,-0.943395814745621));
#785=DIRECTION('',(-1.,0.,0.));
#786=DIRECTION('',(-0.291056642682016,0.,0.956705822471398));
#787=DIRECTION('',(-1.,0.,0.));
#788=DIRECTION('',(-2.36703164342427E-16,0.,-1.));
#789=DIRECTION('',(-1.,0.,2.36703164342427E-16));
#790=DIRECTION('',(0.,-1.,0.));
#791=DIRECTION('',(1.,0.,-2.36703164342427E-16));
#792=DIRECTION('',(0.,-1.,0.));
#793=DIRECTION('',(0.,-1.,0.));
#794=DIRECTION('',(-1.,0.,0.));
#795=DIRECTION('',(0.,-1.,0.));
#796=DIRECTION('',(0.,-1.,0.));
#797=DIRECTION('',(1.,0.,0.));
#798=DIRECTION('',(-2.36703164342427E-16,0.,-1.));
#799=DIRECTION('',(-1.,0.,2.36703164342427E-16));
#800=DIRECTION('',(0.,-1.,0.));
#801=DIRECTION('',(1.,0.,-2.36703164342427E-16));
#802=DIRECTION('',(0.,-1.,0.));
#803=DIRECTION('',(-1.,0.,0.));
#804=DIRECTION('',(0.,-1.,0.));
#805=DIRECTION('',(1.,0.,0.));
#806=DIRECTION('',(0.,1.,0.));
#807=DIRECTION('',(1.,0.,0.));
#808=DIRECTION('',(0.,1.,0.));
#809=DIRECTION('',(1.,0.,0.));
#810=DIRECTION('',(0.,1.,0.));
#811=DIRECTION('',(1.,0.,0.));
#812=DIRECTION('',(0.,1.,0.));
#813=DIRECTION('',(-0.955509053153271,0.,0.294961776069612));
#814=DIRECTION('',(0.,1.,0.));
#815=DIRECTION('',(0.,0.,1.));
#816=DIRECTION('',(0.,1.,0.));
#817=DIRECTION('',(0.,1.,0.));
#818=DIRECTION('',(0.,0.,1.));
#819=DIRECTION('',(0.,1.,0.));
#820=DIRECTION('',(0.,0.,1.));
#821=DIRECTION('',(0.,-1.,0.));
#822=DIRECTION('',(1.,0.,0.));
#823=DIRECTION('',(1.,0.,0.));
#824=DIRECTION('',(0.,1.,0.));
#825=DIRECTION('',(0.,1.,0.));
#826=DIRECTION('',(0.956705822471398,0.,-0.291056642682016));
#827=DIRECTION('',(-0.291056642682016,0.,-0.956705822471398));
#828=DIRECTION('',(0.,1.,0.));
#829=DIRECTION('',(-0.291056642682016,0.,-0.956705822471398));
#830=DIRECTION('',(0.,1.,0.));
#831=DIRECTION('',(0.,0.,-1.));
#832=DIRECTION('',(0.,1.,0.));
#833=DIRECTION('',(-1.,0.,0.));
#834=DIRECTION('',(0.,1.,0.));
#835=DIRECTION('',(-0.943009304808469,0.,0.332766361047278));
#836=DIRECTION('',(0.332766361047278,0.,0.943009304808469));
#837=DIRECTION('',(0.332766361047278,0.,0.943009304808469));
#838=DIRECTION('',(0.,1.,0.));
#839=DIRECTION('',(0.,0.,1.));
#840=DIRECTION('',(0.,-1.,0.));
#841=DIRECTION('',(1.,0.,0.));
#842=DIRECTION('',(0.,1.,0.));
#843=DIRECTION('',(0.943395814745621,0.,0.331669016823166));
#844=DIRECTION('',(0.331669016823166,0.,-0.943395814745621));
#845=DIRECTION('',(0.331669016823166,0.,-0.943395814745621));
#846=DIRECTION('',(0.,1.,0.));
#847=DIRECTION('',(0.,0.,-1.));
#848=DIRECTION('',(0.,1.,0.));
#849=DIRECTION('',(-1.,0.,0.));
#850=DIRECTION('',(0.,1.,0.));
#851=DIRECTION('',(-0.956705822471398,0.,-0.291056642682016));
#852=DIRECTION('',(-0.291056642682016,0.,0.956705822471398));
#853=DIRECTION('',(-0.291056642682016,0.,0.956705822471398));
#854=DIRECTION('',(0.,1.,0.));
#855=DIRECTION('',(0.,0.,-1.));
#856=DIRECTION('',(0.,1.,0.));
#857=DIRECTION('',(-1.,0.,0.));
#858=DIRECTION('',(0.,1.,0.));
#859=DIRECTION('',(-0.965892069454968,0.,0.25894499447566));
#860=DIRECTION('',(0.,1.,0.));
#861=DIRECTION('',(0.,0.,1.));
#862=DIRECTION('',(0.,1.,0.));
#863=DIRECTION('',(0.,0.,1.));
#864=DIRECTION('',(0.,1.,0.));
#865=DIRECTION('',(1.,0.,0.));
#866=DIRECTION('',(0.,1.,0.));
#867=DIRECTION('',(1.,0.,0.));
#868=DIRECTION('',(0.,1.,0.));
#869=DIRECTION('',(1.,0.,0.));
#870=DIRECTION('',(0.,1.,0.));
#871=DIRECTION('',(1.,0.,0.));
#872=CARTESIAN_POINT('',(0.,0.,0.));
#873=CARTESIAN_POINT('',(6.64725,1.5,10.));
#874=CARTESIAN_POINT('',(0.,1.5,10.));
#875=CARTESIAN_POINT('',(0.8,1.5,10.));
#876=CARTESIAN_POINT('',(6.64725,1.5,12.6));
#877=CARTESIAN_POINT('',(0.,1.5,12.6));
#878=CARTESIAN_POINT('',(13.2945,1.5,12.6));
#879=CARTESIAN_POINT('',(13.2945,1.5,10.));
#880=CARTESIAN_POINT('',(13.2945,1.5,7.4));
#881=CARTESIAN_POINT('',(6.64725,1.5,7.4));
#882=CARTESIAN_POINT('',(-9.95427861721007E-16,1.5,7.4));
#883=CARTESIAN_POINT('',(-7.36520056694237E-16,1.5,10.));
#884=CARTESIAN_POINT('',(6.64725,1.5,7.4));
#885=CARTESIAN_POINT('',(6.64725,0.,7.4));
#886=CARTESIAN_POINT('',(-9.95427861721007E-16,0.,7.4));
#887=CARTESIAN_POINT('',(13.2945,0.,7.4));
#888=CARTESIAN_POINT('',(-9.95427861721007E-16,1.5,7.4));
#889=CARTESIAN_POINT('',(13.2945,1.5,7.4));
#890=CARTESIAN_POINT('',(-7.36520056694237E-16,1.5,10.));
#891=CARTESIAN_POINT('',(-7.36520056694237E-16,0.,10.));
#892=CARTESIAN_POINT('',(0.,0.,12.6));
#893=CARTESIAN_POINT('',(0.,1.5,12.6));
#894=CARTESIAN_POINT('',(6.64725,1.5,12.6));
#895=CARTESIAN_POINT('',(6.64725,0.,12.6));
#896=CARTESIAN_POINT('',(13.2945,0.,12.6));
#897=CARTESIAN_POINT('',(13.2945,1.5,12.6));
#898=CARTESIAN_POINT('',(13.2945,1.5,10.));
#899=CARTESIAN_POINT('',(13.2945,0.,10.));
#900=CARTESIAN_POINT('',(13.2945,5.43005,10.));
#901=CARTESIAN_POINT('',(13.2945,5.43005,7.4));
#902=CARTESIAN_POINT('',(13.2945,5.43005,12.6));
#903=CARTESIAN_POINT('',(13.2945,6.93005,12.6));
#904=CARTESIAN_POINT('',(13.2945,6.93005,12.6));
#905=CARTESIAN_POINT('',(13.2945,6.93005,10.));
#906=CARTESIAN_POINT('',(13.2945,6.93005,7.4));
#907=CARTESIAN_POINT('',(13.2945,6.93005,7.4));
#908=CARTESIAN_POINT('',(6.64725,0.,10.));
#909=CARTESIAN_POINT('',(0.,0.,10.));
#910=CARTESIAN_POINT('',(0.8,0.,10.));
#911=CARTESIAN_POINT('',(19.94175,6.93005,7.4));
#912=CARTESIAN_POINT('',(19.94175,5.43005,7.4));
#913=CARTESIAN_POINT('',(26.589,5.43005,7.4));
#914=CARTESIAN_POINT('',(19.94175,6.93005,7.4));
#915=CARTESIAN_POINT('',(26.589,6.93005,7.4));
#916=CARTESIAN_POINT('',(26.589,6.93005,7.4));
#917=CARTESIAN_POINT('',(19.94175,6.93005,12.6));
#918=CARTESIAN_POINT('',(19.94175,5.43005,12.6));
#919=CARTESIAN_POINT('',(26.589,5.43005,12.6));
#920=CARTESIAN_POINT('',(26.589,6.93005,12.6));
#921=CARTESIAN_POINT('',(26.589,6.93005,12.6));
#922=CARTESIAN_POINT('',(19.94175,6.93005,12.6));
#923=CARTESIAN_POINT('',(26.589,6.93005,10.));
#924=CARTESIAN_POINT('',(26.589,5.43005,10.));
#925=CARTESIAN_POINT('',(26.589,6.93005,10.));
#926=CARTESIAN_POINT('',(19.94175,6.93005,10.));
#927=CARTESIAN_POINT('',(26.589,6.93005,10.));
#928=CARTESIAN_POINT('',(27.389,6.93005,10.));
#929=CARTESIAN_POINT('',(19.94175,5.43005,10.));
#930=CARTESIAN_POINT('',(26.589,5.43005,10.));
#931=CARTESIAN_POINT('',(27.389,5.43005,10.));
#932=CARTESIAN_POINT('',(26.589,5.43005,10.));
#933=CARTESIAN_POINT('',(0.,0.,10.));
#934=CARTESIAN_POINT('',(0.,0.,0.));
#935=CARTESIAN_POINT('',(9.1608591334,0.,0.));
#936=CARTESIAN_POINT('',(18.3217182668,0.,-8.76313562252695E-16));
#937=CARTESIAN_POINT('',(19.3217182668,0.,-8.76313562252695E-16));
#938=CARTESIAN_POINT('',(-3.46944695195361E-15,0.,0.));
#939=CARTESIAN_POINT('',(0.999999999999997,0.,0.));
#940=CARTESIAN_POINT('',(9.1608591334,0.,-2.6));
#941=CARTESIAN_POINT('',(-2.1556109224543E-15,0.,-2.6));
#942=CARTESIAN_POINT('',(18.3217182668,0.,-2.6));
#943=CARTESIAN_POINT('',(18.3217182668,0.,-8.67361737988404E-16));
#944=CARTESIAN_POINT('',(18.3217182668,0.,2.6));
#945=CARTESIAN_POINT('',(9.1608591334,0.,2.6));
#946=CARTESIAN_POINT('',(0.,0.,2.6));
#947=CARTESIAN_POINT('',(-7.42071171817363E-16,0.,0.));
#948=CARTESIAN_POINT('',(9.92473717159444,0.,1.69965277777778));
#949=CARTESIAN_POINT('',(10.0845624754139,0.,2.225));
#950=CARTESIAN_POINT('',(9.764911867775,0.,1.17430555555555));
#951=CARTESIAN_POINT('',(10.5886640379139,0.,2.225));
#952=CARTESIAN_POINT('',(11.0927656004139,0.,2.225));
#953=CARTESIAN_POINT('',(10.3110218938167,0.,0.0096571180555555));
#954=CARTESIAN_POINT('',(9.52927818721945,0.,-2.20568576388888));
#955=CARTESIAN_POINT('',(8.95757679833056,0.,-2.20568576388888));
#956=CARTESIAN_POINT('',(8.38587540944167,0.,-2.20568576388888));
#957=CARTESIAN_POINT('',(7.60702883826112,0.,0.0096571180555555));
#958=CARTESIAN_POINT('',(6.82818226708057,0.,2.225));
#959=CARTESIAN_POINT('',(7.33228382958056,0.,2.225));
#960=CARTESIAN_POINT('',(7.83638539208056,0.,2.225));
#961=CARTESIAN_POINT('',(7.9962106959,0.,1.69965277777778));
#962=CARTESIAN_POINT('',(8.15603599971945,0.,1.17430555555555));
#963=CARTESIAN_POINT('',(8.96047393374723,0.,1.17430555555555));
#964=CARTESIAN_POINT('',(9.1608591334,1.5,-2.6));
#965=CARTESIAN_POINT('',(-2.1556109224543E-15,1.5,-2.6));
#966=CARTESIAN_POINT('',(-2.1556109224543E-15,1.5,-2.6));
#967=CARTESIAN_POINT('',(9.1608591334,1.5,-2.6));
#968=CARTESIAN_POINT('',(18.3217182668,1.5,-2.6));
#969=CARTESIAN_POINT('',(18.3217182668,1.5,-2.6));
#970=CARTESIAN_POINT('',(-7.42071171817363E-16,1.5,0.));
#971=CARTESIAN_POINT('',(0.,1.5,2.6));
#972=CARTESIAN_POINT('',(0.,1.5,2.6));
#973=CARTESIAN_POINT('',(-7.42071171817363E-16,1.5,0.));
#974=CARTESIAN_POINT('',(9.1608591334,1.5,2.6));
#975=CARTESIAN_POINT('',(18.3217182668,1.5,2.6));
#976=CARTESIAN_POINT('',(18.3217182668,1.5,2.6));
#977=CARTESIAN_POINT('',(9.1608591334,1.5,2.6));
#978=CARTESIAN_POINT('',(18.3217182668,1.5,-8.67361737988404E-16));
#979=CARTESIAN_POINT('',(18.3217182668,1.5,-8.67361737988404E-16));
#980=CARTESIAN_POINT('',(9.1608591334,1.5,0.));
#981=CARTESIAN_POINT('',(18.3217182668,1.5,-8.76313562252695E-16));
#982=CARTESIAN_POINT('',(19.3217182668,1.5,-8.76313562252695E-16));
#983=CARTESIAN_POINT('',(-3.46944695195361E-15,1.5,0.));
#984=CARTESIAN_POINT('',(0.999999999999997,1.5,0.));
#985=CARTESIAN_POINT('',(428.796402271993,-0.2,-130.256614779085));
#986=CARTESIAN_POINT('',(428.796402271993,0.,-130.256614779085));
#987=CARTESIAN_POINT('',(9.54086672888611,0.,0.390147569444443));
#988=CARTESIAN_POINT('',(9.04155044354311,0.,-1.22450934888785));
#989=CARTESIAN_POINT('',(9.04159372541389,-0.2,-1.22452256944444));
#990=CARTESIAN_POINT('',(9.04155044354311,-0.2,-1.22450934888785));
#991=CARTESIAN_POINT('',(428.796402271993,-0.2,-130.256614779085));
#992=CARTESIAN_POINT('',(9.54086672888611,-0.2,0.390147569444443));
#993=CARTESIAN_POINT('',(9.54103132055624,-0.2,0.390147569444443));
#994=CARTESIAN_POINT('',(8.96626820458056,-0.2,0.390147569444443));
#995=CARTESIAN_POINT('',(8.96626820458056,0.,0.390147569444443));
#996=CARTESIAN_POINT('',(8.391669680275,0.,0.390147569444443));
#997=CARTESIAN_POINT('',(8.96626820458056,-0.2,0.390147569444443));
#998=CARTESIAN_POINT('',(8.391669680275,-0.2,0.390147569444443));
#999=CARTESIAN_POINT('',(8.391669680275,-0.2,0.390147569444443));
#1000=CARTESIAN_POINT('',(8.96143964555278,-0.2,-1.52003038194444));
#1001=CARTESIAN_POINT('',(8.96143964555278,0.,-1.52003038194444));
#1002=CARTESIAN_POINT('',(8.89512743490463,-0.2,-1.26250723379629));
#1003=CARTESIAN_POINT('',(8.89512743490463,0.,-1.26250723379629));
#1004=CARTESIAN_POINT('',(8.70520411314537,-0.2,-0.625781249999999));
#1005=CARTESIAN_POINT('',(8.70520411314537,0.,-0.625781249999999));
#1006=CARTESIAN_POINT('',(8.391669680275,-0.2,0.390147569444443));
#1007=CARTESIAN_POINT('',(8.391669680275,0.,0.390147569444443));
#1008=CARTESIAN_POINT('',(8.96143964555278,0.,-1.52003038194444));
#1009=CARTESIAN_POINT('',(8.86197132958056,0.,-1.13374565972222));
#1010=CARTESIAN_POINT('',(8.391669680275,0.,0.390147569444443));
#1011=CARTESIAN_POINT('',(8.96143964555278,0.,-1.52003038194444));
#1012=CARTESIAN_POINT('',(8.96143964555278,-0.2,-1.52003038194444));
#1013=CARTESIAN_POINT('',(8.86197132958056,-0.2,-1.13374565972222));
#1014=CARTESIAN_POINT('',(8.391669680275,-0.2,0.390147569444443));
#1015=CARTESIAN_POINT('',(8.96143964555278,-0.2,-1.52003038194444));
#1016=CARTESIAN_POINT('',(8.96143964555278,-0.2,-1.52003038194444));
#1017=CARTESIAN_POINT('',(9.92473717159444,-0.2,1.69965277777778));
#1018=CARTESIAN_POINT('',(9.764911867775,-0.2,1.17430555555555));
#1019=CARTESIAN_POINT('',(9.764911867775,-0.2,1.17430555555555));
#1020=CARTESIAN_POINT('',(9.92473717159444,-0.2,1.69965277777778));
#1021=CARTESIAN_POINT('',(10.0845624754139,-0.2,2.225));
#1022=CARTESIAN_POINT('',(10.0845624754139,-0.2,2.225));
#1023=CARTESIAN_POINT('',(10.5886640379139,-0.2,2.225));
#1024=CARTESIAN_POINT('',(10.5886640379139,-0.2,2.225));
#1025=CARTESIAN_POINT('',(11.0927656004139,-0.2,2.225));
#1026=CARTESIAN_POINT('',(11.0927656004139,-0.2,2.225));
#1027=CARTESIAN_POINT('',(10.3110218938167,-0.2,0.0096571180555555));
#1028=CARTESIAN_POINT('',(10.3110218938167,-0.2,0.0096571180555555));
#1029=CARTESIAN_POINT('',(9.52927818721945,-0.2,-2.20568576388888));
#1030=CARTESIAN_POINT('',(9.52927818721945,-0.2,-2.20568576388888));
#1031=CARTESIAN_POINT('',(8.95757679833056,-0.2,-2.20568576388888));
#1032=CARTESIAN_POINT('',(8.95757679833056,-0.2,-2.20568576388888));
#1033=CARTESIAN_POINT('',(8.38587540944167,-0.2,-2.20568576388888));
#1034=CARTESIAN_POINT('',(8.38587540944167,-0.2,-2.20568576388888));
#1035=CARTESIAN_POINT('',(7.60702883826112,-0.2,0.0096571180555555));
#1036=CARTESIAN_POINT('',(7.60702883826112,-0.2,0.0096571180555555));
#1037=CARTESIAN_POINT('',(6.82818226708057,-0.2,2.225));
#1038=CARTESIAN_POINT('',(6.82818226708057,-0.2,2.225));
#1039=CARTESIAN_POINT('',(7.33228382958056,-0.2,2.225));
#1040=CARTESIAN_POINT('',(7.33228382958056,-0.2,2.225));
#1041=CARTESIAN_POINT('',(7.83638539208056,-0.2,2.225));
#1042=CARTESIAN_POINT('',(7.83638539208056,-0.2,2.225));
#1043=CARTESIAN_POINT('',(7.9962106959,-0.2,1.69965277777778));
#1044=CARTESIAN_POINT('',(7.9962106959,-0.2,1.69965277777778));
#1045=CARTESIAN_POINT('',(8.15603599971945,-0.2,1.17430555555555));
#1046=CARTESIAN_POINT('',(8.15603599971945,-0.2,1.17430555555555));
#1047=CARTESIAN_POINT('',(8.96047393374723,-0.2,1.17430555555555));
#1048=CARTESIAN_POINT('',(8.96047393374723,-0.2,1.17430555555555));
#1049=CARTESIAN_POINT('',(13.5747511670568,-0.2,-2.62024311329855));
#1050=CARTESIAN_POINT('',(13.5747511670568,0.,-2.62024311329855));
#1051=CARTESIAN_POINT('',(13.5747511670568,-0.2,-2.62024311329855));
#1052=CARTESIAN_POINT('',(9.1608591334,-0.2,0.));
#1053=CARTESIAN_POINT('',(9.1608591334,0.,0.));
#1054=CARTESIAN_POINT('',(-3.46944695195361E-15,0.,0.));
#1055=CARTESIAN_POINT('',(18.3217182668,0.,-8.76313562252695E-16));
#1056=MECHANICAL_DESIGN_GEOMETRIC_PRESENTATION_REPRESENTATION('',(#616),
#1058);
#1057=MECHANICAL_DESIGN_GEOMETRIC_PRESENTATION_REPRESENTATION('',(#617),
#1059);
#1058=(
GEOMETRIC_REPRESENTATION_CONTEXT(3)
GLOBAL_UNCERTAINTY_ASSIGNED_CONTEXT((#1060))
GLOBAL_UNIT_ASSIGNED_CONTEXT((#1066,#1064,#1062))
REPRESENTATION_CONTEXT('Part 2','TOP_LEVEL_ASSEMBLY_PART')
);
#1059=(
GEOMETRIC_REPRESENTATION_CONTEXT(3)
GLOBAL_UNCERTAINTY_ASSIGNED_CONTEXT((#1061))
GLOBAL_UNIT_ASSIGNED_CONTEXT((#1067,#1065,#1063))
REPRESENTATION_CONTEXT('Arm A','TOP_LEVEL_ASSEMBLY_PART')
);
#1060=UNCERTAINTY_MEASURE_WITH_UNIT(LENGTH_MEASURE(1.E-5),#1066,
'DISTANCE_ACCURACY_VALUE','Maximum Tolerance applied to model');
#1061=UNCERTAINTY_MEASURE_WITH_UNIT(LENGTH_MEASURE(1.E-5),#1067,
'DISTANCE_ACCURACY_VALUE','Maximum Tolerance applied to model');
#1062=(
NAMED_UNIT(*)
SI_UNIT($,.STERADIAN.)
SOLID_ANGLE_UNIT()
);
#1063=(
NAMED_UNIT(*)
SI_UNIT($,.STERADIAN.)
SOLID_ANGLE_UNIT()
);
#1064=(
NAMED_UNIT(*)
PLANE_ANGLE_UNIT()
SI_UNIT($,.RADIAN.)
);
#1065=(
NAMED_UNIT(*)
PLANE_ANGLE_UNIT()
SI_UNIT($,.RADIAN.)
);
#1066=(
LENGTH_UNIT()
NAMED_UNIT(*)
SI_UNIT(.MILLI.,.METRE.)
);
#1067=(
LENGTH_UNIT()
NAMED_UNIT(*)
SI_UNIT(.MILLI.,.METRE.)
);
#1068=PRODUCT_DEFINITION_SHAPE('','',#1070);
#1069=PRODUCT_DEFINITION_SHAPE('','',#1071);
#1070=PRODUCT_DEFINITION('','',#1074,#1072);
#1071=PRODUCT_DEFINITION('','',#1075,#1073);
#1072=PRODUCT_DEFINITION_CONTEXT('',#1086,'design');
#1073=PRODUCT_DEFINITION_CONTEXT('',#1087,'design');
#1074=PRODUCT_DEFINITION_FORMATION_WITH_SPECIFIED_SOURCE('','',#1078,
 .NOT_KNOWN.);
#1075=PRODUCT_DEFINITION_FORMATION_WITH_SPECIFIED_SOURCE('','',#1079,
 .NOT_KNOWN.);
#1076=PRODUCT_RELATED_PRODUCT_CATEGORY('','',(#1078));
#1077=PRODUCT_RELATED_PRODUCT_CATEGORY('','',(#1079));
#1078=PRODUCT('Part 2','Part 2','Part 2',(#1082));
#1079=PRODUCT('Arm A','Arm A','Arm A',(#1083));
#1080=PRODUCT_CATEGORY('','');
#1081=PRODUCT_CATEGORY('','');
#1082=PRODUCT_CONTEXT('',#1086,'mechanical');
#1083=PRODUCT_CONTEXT('',#1087,'mechanical');
#1084=APPLICATION_PROTOCOL_DEFINITION('international standard',
'ap242_managed_model_based_3d_engineering',2020,#1086);
#1085=APPLICATION_PROTOCOL_DEFINITION('international standard',
'ap242_managed_model_based_3d_engineering',2020,#1087);
#1086=APPLICATION_CONTEXT('managed model based 3d engineering');
#1087=APPLICATION_CONTEXT('managed model based 3d engineering');
ENDSEC;
END-ISO-10303-21;
