ISO-10303-21;
HEADER;
/* Generated by software containing ST-Developer
 * from STEP Tools, Inc. (www.steptools.com) 
 */
/* OPTION: using custom renumber hook */

FILE_DESCRIPTION(
/* description */ ('STEP AP242 Edition 2',
'CAx-IF Rec.Pracs.---Representation and Presentation of Product Manufa
cturing Information (PMI)---4.0---2014-10-13',
'CAx-IF Rec.Pracs.---3D Tessellated Geometry---0.4---2014-09-14','2;1',
'CAx-IF Rec.Pracs.---User Defined Attributes---1.5---2016-08-15'),
/* implementation_level */ '2;1');

FILE_NAME(
/* name */ 'Avionics Bay',
/* time_stamp */ '2026-09-06T21:34:29Z',
/* author */ (''),
/* organization */ (''),
/* preprocessor_version */ 'ST-DEVELOPER v20',
/* originating_system */ 'ONSHAPE BY PTC INC, 1.220',
/* authorisation */ '  ');

FILE_SCHEMA (('AP242_MANAGED_MODEL_BASED_3D_ENGINEERING_MIM_LF { 1 0 10303 442 3 1 4 }'));
ENDSEC;

DATA;
#10=SHAPE_REPRESENTATION_RELATIONSHIP('','',#982,#11);
#11=ADVANCED_BREP_SHAPE_REPRESENTATION('',(#980),#1845);
#12=B_SPLINE_SURFACE_WITH_KNOTS('',3,1,((#1551,#1552),(#1553,#1554),(#1555,
#1556),(#1557,#1558),(#1559,#1560),(#1561,#1562),(#1563,#1564),(#1565,#1566),
(#1567,#1568),(#1569,#1570),(#1571,#1572),(#1573,#1574),(#1575,#1576),(#1577,
#1578),(#1579,#1580),(#1581,#1582),(#1583,#1584),(#1585,#1586),(#1587,#1588)),
 .SURF_OF_LINEAR_EXTRUSION.,.T.,.F.,.F.,(1,1,1,1,1,1,1,1,1,1,1,1,1,1,1,
1,1,1,1,1,1,1,1),(2,2),(-1.17809724509617,-0.785398163397448,-0.392699081698725,
0.,0.392699081698724,0.785398163397448,1.17809724509617,1.5707963267949,
1.96349540849362,2.35619449019234,2.74889357189107,3.14159265358979,3.53429173528852,
3.92699081698724,4.31968989868597,4.71238898038469,5.10508806208341,5.49778714378214,
5.89048622548086,6.28318530717959,6.67588438887831,7.06858347057703,7.46128255227576),
(0.,1.),.UNSPECIFIED.);
#13=B_SPLINE_SURFACE_WITH_KNOTS('',3,1,((#1609,#1610),(#1611,#1612),(#1613,
#1614),(#1615,#1616),(#1617,#1618),(#1619,#1620),(#1621,#1622),(#1623,#1624),
(#1625,#1626),(#1627,#1628),(#1629,#1630),(#1631,#1632),(#1633,#1634),(#1635,
#1636),(#1637,#1638),(#1639,#1640),(#1641,#1642),(#1643,#1644),(#1645,#1646)),
 .SURF_OF_LINEAR_EXTRUSION.,.T.,.F.,.F.,(1,1,1,1,1,1,1,1,1,1,1,1,1,1,1,
1,1,1,1,1,1,1,1),(2,2),(5.10508806208341,5.49778714378214,5.89048622548086,
6.28318530717959,6.67588438887831,7.06858347057703,7.46128255227576,7.85398163397448,
8.24668071567321,8.63937979737193,9.03207887907065,9.42477796076938,9.8174770424681,
10.2101761241668,10.6028752058656,10.9955742875643,11.388273369263,11.7809724509617,
12.1736715326604,12.5663706143592,12.9590696960579,13.3517687777566,13.7444678594553),
(0.,1.),.UNSPECIFIED.);
#14=B_SPLINE_SURFACE_WITH_KNOTS('',3,1,((#1647,#1648),(#1649,#1650),(#1651,
#1652),(#1653,#1654),(#1655,#1656),(#1657,#1658),(#1659,#1660),(#1661,#1662),
(#1663,#1664),(#1665,#1666),(#1667,#1668),(#1669,#1670),(#1671,#1672),(#1673,
#1674),(#1675,#1676),(#1677,#1678),(#1679,#1680),(#1681,#1682),(#1683,#1684)),
 .SURF_OF_LINEAR_EXTRUSION.,.T.,.F.,.F.,(1,1,1,1,1,1,1,1,1,1,1,1,1,1,1,
1,1,1,1,1,1,1,1),(2,2),(5.10508806208341,5.49778714378214,5.89048622548086,
6.28318530717959,6.67588438887831,7.06858347057703,7.46128255227576,7.85398163397448,
8.24668071567321,8.63937979737193,9.03207887907065,9.42477796076938,9.8174770424681,
10.2101761241668,10.6028752058656,10.9955742875643,11.388273369263,11.7809724509617,
12.1736715326604,12.5663706143592,12.9590696960579,13.3517687777566,13.7444678594553),
(0.,1.),.UNSPECIFIED.);
#15=B_SPLINE_SURFACE_WITH_KNOTS('',3,1,((#1685,#1686),(#1687,#1688),(#1689,
#1690),(#1691,#1692),(#1693,#1694),(#1695,#1696),(#1697,#1698),(#1699,#1700),
(#1701,#1702),(#1703,#1704),(#1705,#1706),(#1707,#1708),(#1709,#1710),(#1711,
#1712),(#1713,#1714),(#1715,#1716),(#1717,#1718),(#1719,#1720),(#1721,#1722)),
 .SURF_OF_LINEAR_EXTRUSION.,.T.,.F.,.F.,(1,1,1,1,1,1,1,1,1,1,1,1,1,1,1,
1,1,1,1,1,1,1,1),(2,2),(-1.17809724509617,-0.785398163397448,-0.392699081698725,
0.,0.392699081698724,0.785398163397448,1.17809724509617,1.5707963267949,
1.96349540849362,2.35619449019234,2.74889357189107,3.14159265358979,3.53429173528852,
3.92699081698724,4.31968989868597,4.71238898038469,5.10508806208341,5.49778714378214,
5.89048622548086,6.28318530717959,6.67588438887831,7.06858347057703,7.46128255227576),
(0.,1.),.UNSPECIFIED.);
#16=B_SPLINE_SURFACE_WITH_KNOTS('',3,1,((#1723,#1724),(#1725,#1726),(#1727,
#1728),(#1729,#1730),(#1731,#1732),(#1733,#1734),(#1735,#1736),(#1737,#1738),
(#1739,#1740),(#1741,#1742),(#1743,#1744),(#1745,#1746),(#1747,#1748),(#1749,
#1750),(#1751,#1752),(#1753,#1754),(#1755,#1756),(#1757,#1758),(#1759,#1760)),
 .SURF_OF_LINEAR_EXTRUSION.,.T.,.F.,.F.,(1,1,1,1,1,1,1,1,1,1,1,1,1,1,1,
1,1,1,1,1,1,1,1),(2,2),(-1.17809724509617,-0.785398163397448,-0.392699081698725,
0.,0.392699081698724,0.785398163397448,1.17809724509617,1.5707963267949,
1.96349540849362,2.35619449019234,2.74889357189107,3.14159265358979,3.53429173528852,
3.92699081698724,4.31968989868597,4.71238898038469,5.10508806208341,5.49778714378214,
5.89048622548086,6.28318530717959,6.67588438887831,7.06858347057703,7.46128255227576),
(0.,1.),.UNSPECIFIED.);
#17=B_SPLINE_SURFACE_WITH_KNOTS('',3,1,((#1812,#1813),(#1814,#1815),(#1816,
#1817),(#1818,#1819)),.SURF_OF_LINEAR_EXTRUSION.,.F.,.F.,.F.,(4,4),(2,2),
(0.797588284118074,1.),(0.,1.),.PIECEWISE_BEZIER_KNOTS.);
#18=B_SPLINE_SURFACE_WITH_KNOTS('',3,1,((#1820,#1821),(#1822,#1823),(#1824,
#1825),(#1826,#1827)),.SURF_OF_LINEAR_EXTRUSION.,.F.,.F.,.F.,(4,4),(2,2),
(0.797588284118074,1.),(0.,1.),.PIECEWISE_BEZIER_KNOTS.);
#19=B_SPLINE_SURFACE_WITH_KNOTS('',3,1,((#1828,#1829),(#1830,#1831),(#1832,
#1833),(#1834,#1835)),.SURF_OF_LINEAR_EXTRUSION.,.F.,.F.,.F.,(4,4),(2,2),
(-3.64932986613622E-16,0.202411715881939),(0.,1.),
 .PIECEWISE_BEZIER_KNOTS.);
#20=B_SPLINE_SURFACE_WITH_KNOTS('',3,1,((#1836,#1837),(#1838,#1839),(#1840,
#1841),(#1842,#1843)),.SURF_OF_LINEAR_EXTRUSION.,.F.,.F.,.F.,(4,4),(2,2),
(-3.8029134894162E-16,0.202411715882039),(0.,1.),
 .PIECEWISE_BEZIER_KNOTS.);
#21=CYLINDRICAL_SURFACE('',#1027,37.);
#22=CYLINDRICAL_SURFACE('',#1040,35.);
#23=CYLINDRICAL_SURFACE('',#1046,38.);
#24=CYLINDRICAL_SURFACE('',#1049,37.);
#25=CYLINDRICAL_SURFACE('',#1059,1.35);
#26=CYLINDRICAL_SURFACE('',#1062,1.35);
#27=CYLINDRICAL_SURFACE('',#1065,1.35);
#28=CYLINDRICAL_SURFACE('',#1068,1.35);
#29=B_SPLINE_CURVE_WITH_KNOTS('',3,(#1407,#1408,#1409,#1410),
 .UNSPECIFIED.,.F.,.F.,(4,4),(0.,1.),.UNSPECIFIED.);
#30=B_SPLINE_CURVE_WITH_KNOTS('',3,(#1418,#1419,#1420,#1421),
 .UNSPECIFIED.,.F.,.F.,(4,4),(0.,1.),.UNSPECIFIED.);
#31=B_SPLINE_CURVE_WITH_KNOTS('',3,(#1437,#1438,#1439,#1440),
 .UNSPECIFIED.,.F.,.F.,(4,4),(0.,1.),.UNSPECIFIED.);
#32=B_SPLINE_CURVE_WITH_KNOTS('',3,(#1456,#1457,#1458,#1459),
 .UNSPECIFIED.,.F.,.F.,(4,4),(0.,1.),.UNSPECIFIED.);
#33=B_SPLINE_CURVE_WITH_KNOTS('',3,(#1469,#1470,#1471,#1472),
 .UNSPECIFIED.,.F.,.F.,(4,4),(0.,1.),.UNSPECIFIED.);
#34=B_SPLINE_CURVE_WITH_KNOTS('',3,(#1500,#1501,#1502,#1503),
 .UNSPECIFIED.,.F.,.F.,(4,4),(0.,1.),.UNSPECIFIED.);
#35=B_SPLINE_CURVE_WITH_KNOTS('',3,(#1763,#1764,#1765,#1766),
 .UNSPECIFIED.,.F.,.F.,(4,4),(0.,1.),.UNSPECIFIED.);
#36=B_SPLINE_CURVE_WITH_KNOTS('',3,(#1772,#1773,#1774,#1775),
 .UNSPECIFIED.,.F.,.F.,(4,4),(0.,1.),.UNSPECIFIED.);
#37=B_SPLINE_CURVE_WITH_KNOTS('',3,(#1777,#1778,#1779,#1780),
 .UNSPECIFIED.,.F.,.F.,(4,4),(0.,1.),.UNSPECIFIED.);
#38=B_SPLINE_CURVE_WITH_KNOTS('',3,(#1782,#1783,#1784,#1785),
 .UNSPECIFIED.,.F.,.F.,(4,4),(0.,1.),.UNSPECIFIED.);
#39=B_SPLINE_CURVE_WITH_KNOTS('',3,(#1787,#1788,#1789,#1790),
 .UNSPECIFIED.,.F.,.F.,(4,4),(0.,1.),.UNSPECIFIED.);
#40=B_SPLINE_CURVE_WITH_KNOTS('',3,(#1792,#1793,#1794,#1795),
 .UNSPECIFIED.,.F.,.F.,(4,4),(0.,1.),.UNSPECIFIED.);
#41=CIRCLE('',#990,37.);
#42=CIRCLE('',#993,37.);
#43=CIRCLE('',#997,35.);
#44=CIRCLE('',#999,37.);
#45=CIRCLE('',#1001,37.);
#46=CIRCLE('',#1004,1.35);
#47=CIRCLE('',#1006,37.);
#48=CIRCLE('',#1009,37.);
#49=CIRCLE('',#1011,1.35);
#50=CIRCLE('',#1013,37.);
#51=CIRCLE('',#1016,1.35);
#52=CIRCLE('',#1019,37.);
#53=CIRCLE('',#1021,1.35);
#54=CIRCLE('',#1028,37.);
#55=CIRCLE('',#1029,37.);
#56=CIRCLE('',#1030,37.);
#57=CIRCLE('',#1031,37.);
#58=CIRCLE('',#1032,37.);
#59=CIRCLE('',#1033,37.);
#60=CIRCLE('',#1041,34.9999999999773);
#61=CIRCLE('',#1042,35.);
#62=CIRCLE('',#1044,37.);
#63=CIRCLE('',#1045,38.);
#64=CIRCLE('',#1047,38.);
#65=CIRCLE('',#1050,37.);
#66=CIRCLE('',#1060,1.35);
#67=CIRCLE('',#1063,1.35);
#68=CIRCLE('',#1066,1.35);
#69=CIRCLE('',#1069,1.35);
#70=LINE('',#1331,#144);
#71=LINE('',#1334,#145);
#72=LINE('',#1336,#146);
#73=LINE('',#1338,#147);
#74=LINE('',#1340,#148);
#75=LINE('',#1342,#149);
#76=LINE('',#1344,#150);
#77=LINE('',#1346,#151);
#78=LINE('',#1348,#152);
#79=LINE('',#1350,#153);
#80=LINE('',#1352,#154);
#81=LINE('',#1354,#155);
#82=LINE('',#1356,#156);
#83=LINE('',#1358,#157);
#84=LINE('',#1360,#158);
#85=LINE('',#1362,#159);
#86=LINE('',#1364,#160);
#87=LINE('',#1366,#161);
#88=LINE('',#1368,#162);
#89=LINE('',#1370,#163);
#90=LINE('',#1372,#164);
#91=LINE('',#1375,#165);
#92=LINE('',#1377,#166);
#93=LINE('',#1379,#167);
#94=LINE('',#1386,#168);
#95=LINE('',#1389,#169);
#96=LINE('',#1391,#170);
#97=LINE('',#1392,#171);
#98=LINE('',#1394,#172);
#99=LINE('',#1396,#173);
#100=LINE('',#1398,#174);
#101=LINE('',#1401,#175);
#102=LINE('',#1403,#176);
#103=LINE('',#1412,#177);
#104=LINE('',#1414,#178);
#105=LINE('',#1416,#179);
#106=LINE('',#1425,#180);
#107=LINE('',#1427,#181);
#108=LINE('',#1429,#182);
#109=LINE('',#1431,#183);
#110=LINE('',#1435,#184);
#111=LINE('',#1444,#185);
#112=LINE('',#1446,#186);
#113=LINE('',#1448,#187);
#114=LINE('',#1450,#188);
#115=LINE('',#1452,#189);
#116=LINE('',#1461,#190);
#117=LINE('',#1463,#191);
#118=LINE('',#1467,#192);
#119=LINE('',#1476,#193);
#120=LINE('',#1478,#194);
#121=LINE('',#1480,#195);
#122=LINE('',#1482,#196);
#123=LINE('',#1484,#197);
#124=LINE('',#1488,#198);
#125=LINE('',#1490,#199);
#126=LINE('',#1492,#200);
#127=LINE('',#1495,#201);
#128=LINE('',#1496,#202);
#129=LINE('',#1505,#203);
#130=LINE('',#1507,#204);
#131=LINE('',#1511,#205);
#132=LINE('',#1513,#206);
#133=LINE('',#1523,#207);
#134=LINE('',#1526,#208);
#135=LINE('',#1528,#209);
#136=LINE('',#1530,#210);
#137=LINE('',#1532,#211);
#138=LINE('',#1535,#212);
#139=LINE('',#1536,#213);
#140=LINE('',#1539,#214);
#141=LINE('',#1590,#215);
#142=LINE('',#1768,#216);
#143=LINE('',#1770,#217);
#144=VECTOR('',#1083,1000.);
#145=VECTOR('',#1084,1000.);
#146=VECTOR('',#1085,1000.);
#147=VECTOR('',#1086,1000.);
#148=VECTOR('',#1087,1000.);
#149=VECTOR('',#1088,1000.);
#150=VECTOR('',#1089,1000.);
#151=VECTOR('',#1090,1000.);
#152=VECTOR('',#1091,1000.);
#153=VECTOR('',#1092,1000.);
#154=VECTOR('',#1093,1000.);
#155=VECTOR('',#1094,1000.);
#156=VECTOR('',#1095,1000.);
#157=VECTOR('',#1096,1000.);
#158=VECTOR('',#1097,1000.);
#159=VECTOR('',#1098,1000.);
#160=VECTOR('',#1099,1000.);
#161=VECTOR('',#1100,1000.);
#162=VECTOR('',#1101,1000.);
#163=VECTOR('',#1102,1000.);
#164=VECTOR('',#1105,1000.);
#165=VECTOR('',#1106,1000.);
#166=VECTOR('',#1107,1000.);
#167=VECTOR('',#1108,1000.);
#168=VECTOR('',#1119,1000.);
#169=VECTOR('',#1120,1000.);
#170=VECTOR('',#1121,1000.);
#171=VECTOR('',#1122,1000.);
#172=VECTOR('',#1125,1000.);
#173=VECTOR('',#1126,1000.);
#174=VECTOR('',#1127,1000.);
#175=VECTOR('',#1132,1000.);
#176=VECTOR('',#1133,1000.);
#177=VECTOR('',#1138,1000.);
#178=VECTOR('',#1139,1000.);
#179=VECTOR('',#1140,1000.);
#180=VECTOR('',#1145,1000.);
#181=VECTOR('',#1146,1000.);
#182=VECTOR('',#1147,1000.);
#183=VECTOR('',#1150,1000.);
#184=VECTOR('',#1155,1000.);
#185=VECTOR('',#1160,1000.);
#186=VECTOR('',#1161,1000.);
#187=VECTOR('',#1162,1000.);
#188=VECTOR('',#1165,1000.);
#189=VECTOR('',#1166,1000.);
#190=VECTOR('',#1171,1000.);
#191=VECTOR('',#1172,1000.);
#192=VECTOR('',#1177,1000.);
#193=VECTOR('',#1182,1000.);
#194=VECTOR('',#1183,1000.);
#195=VECTOR('',#1184,1000.);
#196=VECTOR('',#1187,1000.);
#197=VECTOR('',#1188,1000.);
#198=VECTOR('',#1193,1000.);
#199=VECTOR('',#1194,1000.);
#200=VECTOR('',#1197,1000.);
#201=VECTOR('',#1198,1000.);
#202=VECTOR('',#1199,1000.);
#203=VECTOR('',#1204,1000.);
#204=VECTOR('',#1205,1000.);
#205=VECTOR('',#1210,1000.);
#206=VECTOR('',#1211,1000.);
#207=VECTOR('',#1222,1000.);
#208=VECTOR('',#1223,1000.);
#209=VECTOR('',#1224,1000.);
#210=VECTOR('',#1225,1000.);
#211=VECTOR('',#1228,1000.);
#212=VECTOR('',#1231,1000.);
#213=VECTOR('',#1232,1000.);
#214=VECTOR('',#1235,1000.);
#215=VECTOR('',#1254,1000.);
#216=VECTOR('',#1285,1000.);
#217=VECTOR('',#1288,1000.);
#218=ORIENTED_EDGE('',*,*,#468,.T.);
#219=ORIENTED_EDGE('',*,*,#469,.T.);
#220=ORIENTED_EDGE('',*,*,#470,.T.);
#221=ORIENTED_EDGE('',*,*,#471,.T.);
#222=ORIENTED_EDGE('',*,*,#472,.F.);
#223=ORIENTED_EDGE('',*,*,#473,.T.);
#224=ORIENTED_EDGE('',*,*,#474,.F.);
#225=ORIENTED_EDGE('',*,*,#475,.T.);
#226=ORIENTED_EDGE('',*,*,#476,.T.);
#227=ORIENTED_EDGE('',*,*,#477,.F.);
#228=ORIENTED_EDGE('',*,*,#478,.F.);
#229=ORIENTED_EDGE('',*,*,#479,.T.);
#230=ORIENTED_EDGE('',*,*,#480,.T.);
#231=ORIENTED_EDGE('',*,*,#481,.T.);
#232=ORIENTED_EDGE('',*,*,#482,.F.);
#233=ORIENTED_EDGE('',*,*,#483,.F.);
#234=ORIENTED_EDGE('',*,*,#484,.T.);
#235=ORIENTED_EDGE('',*,*,#485,.T.);
#236=ORIENTED_EDGE('',*,*,#486,.T.);
#237=ORIENTED_EDGE('',*,*,#487,.F.);
#238=ORIENTED_EDGE('',*,*,#488,.T.);
#239=ORIENTED_EDGE('',*,*,#489,.F.);
#240=ORIENTED_EDGE('',*,*,#490,.F.);
#241=ORIENTED_EDGE('',*,*,#491,.T.);
#242=ORIENTED_EDGE('',*,*,#492,.F.);
#243=ORIENTED_EDGE('',*,*,#493,.F.);
#244=ORIENTED_EDGE('',*,*,#494,.T.);
#245=ORIENTED_EDGE('',*,*,#495,.T.);
#246=ORIENTED_EDGE('',*,*,#496,.F.);
#247=ORIENTED_EDGE('',*,*,#489,.T.);
#248=ORIENTED_EDGE('',*,*,#497,.T.);
#249=ORIENTED_EDGE('',*,*,#479,.F.);
#250=ORIENTED_EDGE('',*,*,#498,.F.);
#251=ORIENTED_EDGE('',*,*,#499,.F.);
#252=ORIENTED_EDGE('',*,*,#500,.T.);
#253=ORIENTED_EDGE('',*,*,#501,.F.);
#254=ORIENTED_EDGE('',*,*,#493,.T.);
#255=ORIENTED_EDGE('',*,*,#502,.T.);
#256=ORIENTED_EDGE('',*,*,#503,.F.);
#257=ORIENTED_EDGE('',*,*,#504,.T.);
#258=ORIENTED_EDGE('',*,*,#505,.F.);
#259=ORIENTED_EDGE('',*,*,#494,.F.);
#260=ORIENTED_EDGE('',*,*,#501,.T.);
#261=ORIENTED_EDGE('',*,*,#504,.F.);
#262=ORIENTED_EDGE('',*,*,#506,.T.);
#263=ORIENTED_EDGE('',*,*,#499,.T.);
#264=ORIENTED_EDGE('',*,*,#507,.T.);
#265=ORIENTED_EDGE('',*,*,#508,.F.);
#266=ORIENTED_EDGE('',*,*,#475,.F.);
#267=ORIENTED_EDGE('',*,*,#509,.T.);
#268=ORIENTED_EDGE('',*,*,#510,.T.);
#269=ORIENTED_EDGE('',*,*,#511,.T.);
#270=ORIENTED_EDGE('',*,*,#512,.T.);
#271=ORIENTED_EDGE('',*,*,#513,.F.);
#272=ORIENTED_EDGE('',*,*,#514,.T.);
#273=ORIENTED_EDGE('',*,*,#515,.T.);
#274=ORIENTED_EDGE('',*,*,#477,.T.);
#275=ORIENTED_EDGE('',*,*,#516,.T.);
#276=ORIENTED_EDGE('',*,*,#517,.F.);
#277=ORIENTED_EDGE('',*,*,#518,.F.);
#278=ORIENTED_EDGE('',*,*,#519,.T.);
#279=ORIENTED_EDGE('',*,*,#516,.F.);
#280=ORIENTED_EDGE('',*,*,#476,.F.);
#281=ORIENTED_EDGE('',*,*,#513,.T.);
#282=ORIENTED_EDGE('',*,*,#520,.F.);
#283=ORIENTED_EDGE('',*,*,#517,.T.);
#284=ORIENTED_EDGE('',*,*,#519,.F.);
#285=ORIENTED_EDGE('',*,*,#512,.F.);
#286=ORIENTED_EDGE('',*,*,#521,.T.);
#287=ORIENTED_EDGE('',*,*,#522,.T.);
#288=ORIENTED_EDGE('',*,*,#523,.T.);
#289=ORIENTED_EDGE('',*,*,#483,.T.);
#290=ORIENTED_EDGE('',*,*,#524,.T.);
#291=ORIENTED_EDGE('',*,*,#525,.F.);
#292=ORIENTED_EDGE('',*,*,#526,.F.);
#293=ORIENTED_EDGE('',*,*,#527,.F.);
#294=ORIENTED_EDGE('',*,*,#524,.F.);
#295=ORIENTED_EDGE('',*,*,#482,.T.);
#296=ORIENTED_EDGE('',*,*,#528,.T.);
#297=ORIENTED_EDGE('',*,*,#481,.F.);
#298=ORIENTED_EDGE('',*,*,#529,.T.);
#299=ORIENTED_EDGE('',*,*,#530,.T.);
#300=ORIENTED_EDGE('',*,*,#531,.T.);
#301=ORIENTED_EDGE('',*,*,#532,.T.);
#302=ORIENTED_EDGE('',*,*,#528,.F.);
#303=ORIENTED_EDGE('',*,*,#533,.F.);
#304=ORIENTED_EDGE('',*,*,#527,.T.);
#305=ORIENTED_EDGE('',*,*,#532,.F.);
#306=ORIENTED_EDGE('',*,*,#534,.F.);
#307=ORIENTED_EDGE('',*,*,#525,.T.);
#308=ORIENTED_EDGE('',*,*,#535,.T.);
#309=ORIENTED_EDGE('',*,*,#536,.T.);
#310=ORIENTED_EDGE('',*,*,#487,.T.);
#311=ORIENTED_EDGE('',*,*,#537,.T.);
#312=ORIENTED_EDGE('',*,*,#538,.F.);
#313=ORIENTED_EDGE('',*,*,#539,.F.);
#314=ORIENTED_EDGE('',*,*,#540,.T.);
#315=ORIENTED_EDGE('',*,*,#537,.F.);
#316=ORIENTED_EDGE('',*,*,#486,.F.);
#317=ORIENTED_EDGE('',*,*,#541,.T.);
#318=ORIENTED_EDGE('',*,*,#542,.F.);
#319=ORIENTED_EDGE('',*,*,#538,.T.);
#320=ORIENTED_EDGE('',*,*,#540,.F.);
#321=ORIENTED_EDGE('',*,*,#543,.F.);
#322=ORIENTED_EDGE('',*,*,#544,.T.);
#323=ORIENTED_EDGE('',*,*,#545,.F.);
#324=ORIENTED_EDGE('',*,*,#546,.F.);
#325=ORIENTED_EDGE('',*,*,#472,.T.);
#326=ORIENTED_EDGE('',*,*,#547,.T.);
#327=ORIENTED_EDGE('',*,*,#491,.F.);
#328=ORIENTED_EDGE('',*,*,#548,.T.);
#329=ORIENTED_EDGE('',*,*,#549,.T.);
#330=ORIENTED_EDGE('',*,*,#550,.T.);
#331=ORIENTED_EDGE('',*,*,#551,.T.);
#332=ORIENTED_EDGE('',*,*,#547,.F.);
#333=ORIENTED_EDGE('',*,*,#552,.F.);
#334=ORIENTED_EDGE('',*,*,#545,.T.);
#335=ORIENTED_EDGE('',*,*,#551,.F.);
#336=ORIENTED_EDGE('',*,*,#553,.F.);
#337=ORIENTED_EDGE('',*,*,#554,.T.);
#338=ORIENTED_EDGE('',*,*,#555,.F.);
#339=ORIENTED_EDGE('',*,*,#556,.F.);
#340=ORIENTED_EDGE('',*,*,#557,.F.);
#341=ORIENTED_EDGE('',*,*,#558,.F.);
#342=ORIENTED_EDGE('',*,*,#559,.F.);
#343=ORIENTED_EDGE('',*,*,#560,.T.);
#344=ORIENTED_EDGE('',*,*,#561,.T.);
#345=ORIENTED_EDGE('',*,*,#562,.F.);
#346=ORIENTED_EDGE('',*,*,#478,.T.);
#347=ORIENTED_EDGE('',*,*,#515,.F.);
#348=ORIENTED_EDGE('',*,*,#563,.T.);
#349=ORIENTED_EDGE('',*,*,#509,.F.);
#350=ORIENTED_EDGE('',*,*,#474,.T.);
#351=ORIENTED_EDGE('',*,*,#564,.F.);
#352=ORIENTED_EDGE('',*,*,#565,.T.);
#353=ORIENTED_EDGE('',*,*,#548,.F.);
#354=ORIENTED_EDGE('',*,*,#490,.T.);
#355=ORIENTED_EDGE('',*,*,#496,.T.);
#356=ORIENTED_EDGE('',*,*,#488,.F.);
#357=ORIENTED_EDGE('',*,*,#536,.F.);
#358=ORIENTED_EDGE('',*,*,#566,.T.);
#359=ORIENTED_EDGE('',*,*,#567,.F.);
#360=ORIENTED_EDGE('',*,*,#484,.F.);
#361=ORIENTED_EDGE('',*,*,#523,.F.);
#362=ORIENTED_EDGE('',*,*,#568,.T.);
#363=ORIENTED_EDGE('',*,*,#529,.F.);
#364=ORIENTED_EDGE('',*,*,#480,.F.);
#365=ORIENTED_EDGE('',*,*,#498,.T.);
#366=ORIENTED_EDGE('',*,*,#569,.F.);
#367=ORIENTED_EDGE('',*,*,#570,.T.);
#368=ORIENTED_EDGE('',*,*,#562,.T.);
#369=ORIENTED_EDGE('',*,*,#571,.T.);
#370=ORIENTED_EDGE('',*,*,#560,.F.);
#371=ORIENTED_EDGE('',*,*,#572,.F.);
#372=ORIENTED_EDGE('',*,*,#573,.F.);
#373=ORIENTED_EDGE('',*,*,#569,.T.);
#374=ORIENTED_EDGE('',*,*,#570,.F.);
#375=ORIENTED_EDGE('',*,*,#559,.T.);
#376=ORIENTED_EDGE('',*,*,#561,.F.);
#377=ORIENTED_EDGE('',*,*,#571,.F.);
#378=ORIENTED_EDGE('',*,*,#573,.T.);
#379=ORIENTED_EDGE('',*,*,#497,.F.);
#380=ORIENTED_EDGE('',*,*,#502,.F.);
#381=ORIENTED_EDGE('',*,*,#492,.T.);
#382=ORIENTED_EDGE('',*,*,#574,.T.);
#383=ORIENTED_EDGE('',*,*,#507,.F.);
#384=ORIENTED_EDGE('',*,*,#508,.T.);
#385=ORIENTED_EDGE('',*,*,#574,.F.);
#386=ORIENTED_EDGE('',*,*,#495,.F.);
#387=ORIENTED_EDGE('',*,*,#505,.T.);
#388=ORIENTED_EDGE('',*,*,#575,.T.);
#389=ORIENTED_EDGE('',*,*,#506,.F.);
#390=ORIENTED_EDGE('',*,*,#576,.T.);
#391=ORIENTED_EDGE('',*,*,#577,.F.);
#392=ORIENTED_EDGE('',*,*,#578,.T.);
#393=ORIENTED_EDGE('',*,*,#579,.T.);
#394=ORIENTED_EDGE('',*,*,#578,.F.);
#395=ORIENTED_EDGE('',*,*,#572,.T.);
#396=ORIENTED_EDGE('',*,*,#579,.F.);
#397=ORIENTED_EDGE('',*,*,#580,.F.);
#398=ORIENTED_EDGE('',*,*,#577,.T.);
#399=ORIENTED_EDGE('',*,*,#576,.F.);
#400=ORIENTED_EDGE('',*,*,#580,.T.);
#401=ORIENTED_EDGE('',*,*,#558,.T.);
#402=ORIENTED_EDGE('',*,*,#468,.F.);
#403=ORIENTED_EDGE('',*,*,#557,.T.);
#404=ORIENTED_EDGE('',*,*,#469,.F.);
#405=ORIENTED_EDGE('',*,*,#556,.T.);
#406=ORIENTED_EDGE('',*,*,#470,.F.);
#407=ORIENTED_EDGE('',*,*,#555,.T.);
#408=ORIENTED_EDGE('',*,*,#471,.F.);
#409=ORIENTED_EDGE('',*,*,#503,.T.);
#410=ORIENTED_EDGE('',*,*,#500,.F.);
#411=ORIENTED_EDGE('',*,*,#575,.F.);
#412=ORIENTED_EDGE('',*,*,#550,.F.);
#413=ORIENTED_EDGE('',*,*,#581,.T.);
#414=ORIENTED_EDGE('',*,*,#582,.T.);
#415=ORIENTED_EDGE('',*,*,#553,.T.);
#416=ORIENTED_EDGE('',*,*,#583,.F.);
#417=ORIENTED_EDGE('',*,*,#584,.T.);
#418=ORIENTED_EDGE('',*,*,#539,.T.);
#419=ORIENTED_EDGE('',*,*,#544,.F.);
#420=ORIENTED_EDGE('',*,*,#531,.F.);
#421=ORIENTED_EDGE('',*,*,#585,.T.);
#422=ORIENTED_EDGE('',*,*,#526,.T.);
#423=ORIENTED_EDGE('',*,*,#534,.T.);
#424=ORIENTED_EDGE('',*,*,#511,.F.);
#425=ORIENTED_EDGE('',*,*,#586,.T.);
#426=ORIENTED_EDGE('',*,*,#518,.T.);
#427=ORIENTED_EDGE('',*,*,#521,.F.);
#428=ORIENTED_EDGE('',*,*,#485,.F.);
#429=ORIENTED_EDGE('',*,*,#567,.T.);
#430=ORIENTED_EDGE('',*,*,#587,.T.);
#431=ORIENTED_EDGE('',*,*,#583,.T.);
#432=ORIENTED_EDGE('',*,*,#543,.T.);
#433=ORIENTED_EDGE('',*,*,#541,.F.);
#434=ORIENTED_EDGE('',*,*,#588,.T.);
#435=ORIENTED_EDGE('',*,*,#564,.T.);
#436=ORIENTED_EDGE('',*,*,#473,.F.);
#437=ORIENTED_EDGE('',*,*,#546,.T.);
#438=ORIENTED_EDGE('',*,*,#554,.F.);
#439=ORIENTED_EDGE('',*,*,#582,.F.);
#440=ORIENTED_EDGE('',*,*,#589,.F.);
#441=ORIENTED_EDGE('',*,*,#552,.T.);
#442=ORIENTED_EDGE('',*,*,#589,.T.);
#443=ORIENTED_EDGE('',*,*,#590,.F.);
#444=ORIENTED_EDGE('',*,*,#542,.T.);
#445=ORIENTED_EDGE('',*,*,#590,.T.);
#446=ORIENTED_EDGE('',*,*,#591,.F.);
#447=ORIENTED_EDGE('',*,*,#533,.T.);
#448=ORIENTED_EDGE('',*,*,#591,.T.);
#449=ORIENTED_EDGE('',*,*,#592,.F.);
#450=ORIENTED_EDGE('',*,*,#520,.T.);
#451=ORIENTED_EDGE('',*,*,#592,.T.);
#452=ORIENTED_EDGE('',*,*,#587,.F.);
#453=ORIENTED_EDGE('',*,*,#566,.F.);
#454=ORIENTED_EDGE('',*,*,#535,.F.);
#455=ORIENTED_EDGE('',*,*,#584,.F.);
#456=ORIENTED_EDGE('',*,*,#588,.F.);
#457=ORIENTED_EDGE('',*,*,#581,.F.);
#458=ORIENTED_EDGE('',*,*,#549,.F.);
#459=ORIENTED_EDGE('',*,*,#565,.F.);
#460=ORIENTED_EDGE('',*,*,#522,.F.);
#461=ORIENTED_EDGE('',*,*,#585,.F.);
#462=ORIENTED_EDGE('',*,*,#530,.F.);
#463=ORIENTED_EDGE('',*,*,#568,.F.);
#464=ORIENTED_EDGE('',*,*,#510,.F.);
#465=ORIENTED_EDGE('',*,*,#563,.F.);
#466=ORIENTED_EDGE('',*,*,#514,.F.);
#467=ORIENTED_EDGE('',*,*,#586,.F.);
#468=EDGE_CURVE('',#593,#593,#684,.T.);
#469=EDGE_CURVE('',#594,#594,#685,.T.);
#470=EDGE_CURVE('',#595,#595,#686,.T.);
#471=EDGE_CURVE('',#596,#596,#687,.T.);
#472=EDGE_CURVE('',#597,#598,#70,.T.);
#473=EDGE_CURVE('',#597,#599,#71,.T.);
#474=EDGE_CURVE('',#600,#599,#72,.T.);
#475=EDGE_CURVE('',#600,#601,#73,.T.);
#476=EDGE_CURVE('',#601,#602,#74,.T.);
#477=EDGE_CURVE('',#603,#602,#75,.T.);
#478=EDGE_CURVE('',#604,#603,#76,.T.);
#479=EDGE_CURVE('',#604,#605,#77,.T.);
#480=EDGE_CURVE('',#605,#606,#78,.T.);
#481=EDGE_CURVE('',#606,#607,#79,.T.);
#482=EDGE_CURVE('',#608,#607,#80,.T.);
#483=EDGE_CURVE('',#609,#608,#81,.T.);
#484=EDGE_CURVE('',#609,#610,#82,.T.);
#485=EDGE_CURVE('',#610,#611,#83,.T.);
#486=EDGE_CURVE('',#611,#612,#84,.T.);
#487=EDGE_CURVE('',#613,#612,#85,.T.);
#488=EDGE_CURVE('',#613,#614,#86,.T.);
#489=EDGE_CURVE('',#615,#614,#87,.T.);
#490=EDGE_CURVE('',#616,#615,#88,.T.);
#491=EDGE_CURVE('',#616,#598,#89,.T.);
#492=EDGE_CURVE('',#617,#618,#90,.T.);
#493=EDGE_CURVE('',#619,#617,#91,.T.);
#494=EDGE_CURVE('',#619,#620,#92,.T.);
#495=EDGE_CURVE('',#620,#618,#93,.T.);
#496=EDGE_CURVE('',#615,#614,#41,.T.);
#497=EDGE_CURVE('',#621,#621,#688,.F.);
#498=EDGE_CURVE('',#605,#604,#42,.T.);
#499=EDGE_CURVE('',#622,#623,#94,.T.);
#500=EDGE_CURVE('',#622,#624,#95,.T.);
#501=EDGE_CURVE('',#619,#624,#96,.T.);
#502=EDGE_CURVE('',#617,#623,#97,.T.);
#503=EDGE_CURVE('',#625,#624,#98,.T.);
#504=EDGE_CURVE('',#625,#626,#99,.T.);
#505=EDGE_CURVE('',#620,#626,#100,.T.);
#506=EDGE_CURVE('',#625,#622,#43,.T.);
#507=EDGE_CURVE('',#623,#627,#101,.T.);
#508=EDGE_CURVE('',#626,#627,#102,.T.);
#509=EDGE_CURVE('',#600,#628,#44,.F.);
#510=EDGE_CURVE('',#628,#629,#29,.T.);
#511=EDGE_CURVE('',#629,#630,#103,.T.);
#512=EDGE_CURVE('',#630,#631,#104,.T.);
#513=EDGE_CURVE('',#601,#631,#105,.T.);
#514=EDGE_CURVE('',#632,#633,#30,.T.);
#515=EDGE_CURVE('',#633,#603,#45,.T.);
#516=EDGE_CURVE('',#602,#634,#106,.T.);
#517=EDGE_CURVE('',#635,#634,#107,.T.);
#518=EDGE_CURVE('',#632,#635,#108,.T.);
#519=EDGE_CURVE('',#631,#634,#109,.T.);
#520=EDGE_CURVE('',#636,#636,#46,.T.);
#521=EDGE_CURVE('',#630,#635,#110,.T.);
#522=EDGE_CURVE('',#637,#638,#31,.T.);
#523=EDGE_CURVE('',#638,#609,#47,.T.);
#524=EDGE_CURVE('',#608,#639,#111,.T.);
#525=EDGE_CURVE('',#640,#639,#112,.T.);
#526=EDGE_CURVE('',#637,#640,#113,.T.);
#527=EDGE_CURVE('',#639,#641,#114,.T.);
#528=EDGE_CURVE('',#607,#641,#115,.T.);
#529=EDGE_CURVE('',#606,#642,#48,.F.);
#530=EDGE_CURVE('',#642,#643,#32,.T.);
#531=EDGE_CURVE('',#643,#644,#116,.T.);
#532=EDGE_CURVE('',#644,#641,#117,.T.);
#533=EDGE_CURVE('',#645,#645,#49,.T.);
#534=EDGE_CURVE('',#640,#644,#118,.T.);
#535=EDGE_CURVE('',#646,#647,#33,.T.);
#536=EDGE_CURVE('',#647,#613,#50,.T.);
#537=EDGE_CURVE('',#612,#648,#119,.T.);
#538=EDGE_CURVE('',#649,#648,#120,.T.);
#539=EDGE_CURVE('',#646,#649,#121,.T.);
#540=EDGE_CURVE('',#650,#648,#122,.T.);
#541=EDGE_CURVE('',#611,#650,#123,.T.);
#542=EDGE_CURVE('',#651,#651,#51,.T.);
#543=EDGE_CURVE('',#652,#650,#124,.T.);
#544=EDGE_CURVE('',#652,#649,#125,.T.);
#545=EDGE_CURVE('',#653,#654,#126,.T.);
#546=EDGE_CURVE('',#597,#653,#127,.T.);
#547=EDGE_CURVE('',#598,#654,#128,.T.);
#548=EDGE_CURVE('',#616,#655,#52,.F.);
#549=EDGE_CURVE('',#655,#656,#34,.T.);
#550=EDGE_CURVE('',#656,#657,#129,.T.);
#551=EDGE_CURVE('',#657,#654,#130,.T.);
#552=EDGE_CURVE('',#658,#658,#53,.T.);
#553=EDGE_CURVE('',#659,#657,#131,.T.);
#554=EDGE_CURVE('',#659,#653,#132,.T.);
#555=EDGE_CURVE('',#660,#660,#689,.T.);
#556=EDGE_CURVE('',#661,#661,#690,.T.);
#557=EDGE_CURVE('',#662,#662,#691,.T.);
#558=EDGE_CURVE('',#663,#663,#692,.T.);
#559=EDGE_CURVE('',#664,#665,#133,.T.);
#560=EDGE_CURVE('',#664,#666,#134,.T.);
#561=EDGE_CURVE('',#666,#667,#135,.T.);
#562=EDGE_CURVE('',#665,#667,#136,.T.);
#563=EDGE_CURVE('',#633,#628,#137,.F.);
#564=EDGE_CURVE('',#668,#599,#54,.T.);
#565=EDGE_CURVE('',#668,#655,#138,.T.);
#566=EDGE_CURVE('',#647,#669,#139,.T.);
#567=EDGE_CURVE('',#610,#669,#55,.F.);
#568=EDGE_CURVE('',#638,#642,#140,.F.);
#569=EDGE_CURVE('',#670,#670,#56,.T.);
#570=EDGE_CURVE('',#664,#665,#57,.T.);
#571=EDGE_CURVE('',#667,#666,#58,.T.);
#572=EDGE_CURVE('',#671,#671,#59,.T.);
#573=EDGE_CURVE('',#672,#672,#693,.F.);
#574=EDGE_CURVE('',#618,#627,#141,.T.);
#575=EDGE_CURVE('',#625,#622,#60,.F.);
#576=EDGE_CURVE('',#673,#673,#61,.T.);
#577=EDGE_CURVE('',#674,#674,#62,.T.);
#578=EDGE_CURVE('',#675,#675,#63,.T.);
#579=EDGE_CURVE('',#676,#676,#64,.T.);
#580=EDGE_CURVE('',#677,#677,#65,.T.);
#581=EDGE_CURVE('',#656,#678,#35,.T.);
#582=EDGE_CURVE('',#678,#659,#142,.T.);
#583=EDGE_CURVE('',#679,#652,#143,.T.);
#584=EDGE_CURVE('',#679,#646,#36,.T.);
#585=EDGE_CURVE('',#643,#637,#37,.T.);
#586=EDGE_CURVE('',#629,#632,#38,.T.);
#587=EDGE_CURVE('',#669,#679,#39,.T.);
#588=EDGE_CURVE('',#678,#668,#40,.T.);
#589=EDGE_CURVE('',#680,#680,#66,.T.);
#590=EDGE_CURVE('',#681,#681,#67,.T.);
#591=EDGE_CURVE('',#682,#682,#68,.T.);
#592=EDGE_CURVE('',#683,#683,#69,.T.);
#593=VERTEX_POINT('',#1324);
#594=VERTEX_POINT('',#1326);
#595=VERTEX_POINT('',#1328);
#596=VERTEX_POINT('',#1330);
#597=VERTEX_POINT('',#1332);
#598=VERTEX_POINT('',#1333);
#599=VERTEX_POINT('',#1335);
#600=VERTEX_POINT('',#1337);
#601=VERTEX_POINT('',#1339);
#602=VERTEX_POINT('',#1341);
#603=VERTEX_POINT('',#1343);
#604=VERTEX_POINT('',#1345);
#605=VERTEX_POINT('',#1347);
#606=VERTEX_POINT('',#1349);
#607=VERTEX_POINT('',#1351);
#608=VERTEX_POINT('',#1353);
#609=VERTEX_POINT('',#1355);
#610=VERTEX_POINT('',#1357);
#611=VERTEX_POINT('',#1359);
#612=VERTEX_POINT('',#1361);
#613=VERTEX_POINT('',#1363);
#614=VERTEX_POINT('',#1365);
#615=VERTEX_POINT('',#1367);
#616=VERTEX_POINT('',#1369);
#617=VERTEX_POINT('',#1373);
#618=VERTEX_POINT('',#1374);
#619=VERTEX_POINT('',#1376);
#620=VERTEX_POINT('',#1378);
#621=VERTEX_POINT('',#1383);
#622=VERTEX_POINT('',#1387);
#623=VERTEX_POINT('',#1388);
#624=VERTEX_POINT('',#1390);
#625=VERTEX_POINT('',#1395);
#626=VERTEX_POINT('',#1397);
#627=VERTEX_POINT('',#1402);
#628=VERTEX_POINT('',#1406);
#629=VERTEX_POINT('',#1411);
#630=VERTEX_POINT('',#1413);
#631=VERTEX_POINT('',#1415);
#632=VERTEX_POINT('',#1422);
#633=VERTEX_POINT('',#1423);
#634=VERTEX_POINT('',#1426);
#635=VERTEX_POINT('',#1428);
#636=VERTEX_POINT('',#1434);
#637=VERTEX_POINT('',#1441);
#638=VERTEX_POINT('',#1442);
#639=VERTEX_POINT('',#1445);
#640=VERTEX_POINT('',#1447);
#641=VERTEX_POINT('',#1451);
#642=VERTEX_POINT('',#1455);
#643=VERTEX_POINT('',#1460);
#644=VERTEX_POINT('',#1462);
#645=VERTEX_POINT('',#1466);
#646=VERTEX_POINT('',#1473);
#647=VERTEX_POINT('',#1474);
#648=VERTEX_POINT('',#1477);
#649=VERTEX_POINT('',#1479);
#650=VERTEX_POINT('',#1483);
#651=VERTEX_POINT('',#1487);
#652=VERTEX_POINT('',#1489);
#653=VERTEX_POINT('',#1493);
#654=VERTEX_POINT('',#1494);
#655=VERTEX_POINT('',#1499);
#656=VERTEX_POINT('',#1504);
#657=VERTEX_POINT('',#1506);
#658=VERTEX_POINT('',#1510);
#659=VERTEX_POINT('',#1512);
#660=VERTEX_POINT('',#1516);
#661=VERTEX_POINT('',#1518);
#662=VERTEX_POINT('',#1520);
#663=VERTEX_POINT('',#1522);
#664=VERTEX_POINT('',#1524);
#665=VERTEX_POINT('',#1525);
#666=VERTEX_POINT('',#1527);
#667=VERTEX_POINT('',#1529);
#668=VERTEX_POINT('',#1534);
#669=VERTEX_POINT('',#1537);
#670=VERTEX_POINT('',#1541);
#671=VERTEX_POINT('',#1545);
#672=VERTEX_POINT('',#1548);
#673=VERTEX_POINT('',#1595);
#674=VERTEX_POINT('',#1598);
#675=VERTEX_POINT('',#1600);
#676=VERTEX_POINT('',#1603);
#677=VERTEX_POINT('',#1607);
#678=VERTEX_POINT('',#1767);
#679=VERTEX_POINT('',#1771);
#680=VERTEX_POINT('',#1798);
#681=VERTEX_POINT('',#1802);
#682=VERTEX_POINT('',#1806);
#683=VERTEX_POINT('',#1810);
#684=ELLIPSE('',#985,27.3233795737747,3.74980177560156);
#685=ELLIPSE('',#986,27.3233795737747,3.74980177560156);
#686=ELLIPSE('',#987,27.3233795737747,3.74980177560156);
#687=ELLIPSE('',#988,27.3233795737747,3.74980177560156);
#688=ELLIPSE('',#992,26.5,6.28661314);
#689=ELLIPSE('',#1023,27.3233795737747,3.74980177560156);
#690=ELLIPSE('',#1024,27.3233795737747,3.74980177560156);
#691=ELLIPSE('',#1025,27.3233795737747,3.74980177560156);
#692=ELLIPSE('',#1026,27.3233795737747,3.74980177560156);
#693=ELLIPSE('',#1035,26.5,6.28661314);
#694=EDGE_LOOP('',(#218));
#695=EDGE_LOOP('',(#219));
#696=EDGE_LOOP('',(#220));
#697=EDGE_LOOP('',(#221));
#698=EDGE_LOOP('',(#222,#223,#224,#225,#226,#227,#228,#229,#230,#231,#232,
#233,#234,#235,#236,#237,#238,#239,#240,#241));
#699=EDGE_LOOP('',(#242,#243,#244,#245));
#700=EDGE_LOOP('',(#246,#247));
#701=EDGE_LOOP('',(#248));
#702=EDGE_LOOP('',(#249,#250));
#703=EDGE_LOOP('',(#251,#252,#253,#254,#255));
#704=EDGE_LOOP('',(#256,#257,#258,#259,#260));
#705=EDGE_LOOP('',(#261,#262,#263,#264,#265));
#706=EDGE_LOOP('',(#266,#267,#268,#269,#270,#271));
#707=EDGE_LOOP('',(#272,#273,#274,#275,#276,#277));
#708=EDGE_LOOP('',(#278,#279,#280,#281));
#709=EDGE_LOOP('',(#282));
#710=EDGE_LOOP('',(#283,#284,#285,#286));
#711=EDGE_LOOP('',(#287,#288,#289,#290,#291,#292));
#712=EDGE_LOOP('',(#293,#294,#295,#296));
#713=EDGE_LOOP('',(#297,#298,#299,#300,#301,#302));
#714=EDGE_LOOP('',(#303));
#715=EDGE_LOOP('',(#304,#305,#306,#307));
#716=EDGE_LOOP('',(#308,#309,#310,#311,#312,#313));
#717=EDGE_LOOP('',(#314,#315,#316,#317));
#718=EDGE_LOOP('',(#318));
#719=EDGE_LOOP('',(#319,#320,#321,#322));
#720=EDGE_LOOP('',(#323,#324,#325,#326));
#721=EDGE_LOOP('',(#327,#328,#329,#330,#331,#332));
#722=EDGE_LOOP('',(#333));
#723=EDGE_LOOP('',(#334,#335,#336,#337));
#724=EDGE_LOOP('',(#338));
#725=EDGE_LOOP('',(#339));
#726=EDGE_LOOP('',(#340));
#727=EDGE_LOOP('',(#341));
#728=EDGE_LOOP('',(#342,#343,#344,#345));
#729=EDGE_LOOP('',(#346,#347,#348,#349,#350,#351,#352,#353,#354,#355,#356,
#357,#358,#359,#360,#361,#362,#363,#364,#365));
#730=EDGE_LOOP('',(#366));
#731=EDGE_LOOP('',(#367,#368,#369,#370));
#732=EDGE_LOOP('',(#371));
#733=EDGE_LOOP('',(#372));
#734=EDGE_LOOP('',(#373));
#735=EDGE_LOOP('',(#374,#375));
#736=EDGE_LOOP('',(#376,#377));
#737=EDGE_LOOP('',(#378));
#738=EDGE_LOOP('',(#379));
#739=EDGE_LOOP('',(#380,#381,#382,#383));
#740=EDGE_LOOP('',(#384,#385,#386,#387));
#741=EDGE_LOOP('',(#388,#389));
#742=EDGE_LOOP('',(#390));
#743=EDGE_LOOP('',(#391));
#744=EDGE_LOOP('',(#392));
#745=EDGE_LOOP('',(#393));
#746=EDGE_LOOP('',(#394));
#747=EDGE_LOOP('',(#395));
#748=EDGE_LOOP('',(#396));
#749=EDGE_LOOP('',(#397));
#750=EDGE_LOOP('',(#398));
#751=EDGE_LOOP('',(#399));
#752=EDGE_LOOP('',(#400));
#753=EDGE_LOOP('',(#401));
#754=EDGE_LOOP('',(#402));
#755=EDGE_LOOP('',(#403));
#756=EDGE_LOOP('',(#404));
#757=EDGE_LOOP('',(#405));
#758=EDGE_LOOP('',(#406));
#759=EDGE_LOOP('',(#407));
#760=EDGE_LOOP('',(#408));
#761=EDGE_LOOP('',(#409,#410,#411));
#762=EDGE_LOOP('',(#412,#413,#414,#415));
#763=EDGE_LOOP('',(#416,#417,#418,#419));
#764=EDGE_LOOP('',(#420,#421,#422,#423));
#765=EDGE_LOOP('',(#424,#425,#426,#427));
#766=EDGE_LOOP('',(#428,#429,#430,#431,#432,#433));
#767=EDGE_LOOP('',(#434,#435,#436,#437,#438,#439));
#768=EDGE_LOOP('',(#440));
#769=EDGE_LOOP('',(#441));
#770=EDGE_LOOP('',(#442));
#771=EDGE_LOOP('',(#443));
#772=EDGE_LOOP('',(#444));
#773=EDGE_LOOP('',(#445));
#774=EDGE_LOOP('',(#446));
#775=EDGE_LOOP('',(#447));
#776=EDGE_LOOP('',(#448));
#777=EDGE_LOOP('',(#449));
#778=EDGE_LOOP('',(#450));
#779=EDGE_LOOP('',(#451));
#780=EDGE_LOOP('',(#452,#453,#454,#455));
#781=EDGE_LOOP('',(#456,#457,#458,#459));
#782=EDGE_LOOP('',(#460,#461,#462,#463));
#783=EDGE_LOOP('',(#464,#465,#466,#467));
#784=FACE_BOUND('',#694,.T.);
#785=FACE_BOUND('',#695,.T.);
#786=FACE_BOUND('',#696,.T.);
#787=FACE_BOUND('',#697,.T.);
#788=FACE_BOUND('',#698,.T.);
#789=FACE_BOUND('',#699,.T.);
#790=FACE_BOUND('',#700,.T.);
#791=FACE_BOUND('',#701,.T.);
#792=FACE_BOUND('',#702,.T.);
#793=FACE_BOUND('',#703,.T.);
#794=FACE_BOUND('',#704,.T.);
#795=FACE_BOUND('',#705,.T.);
#796=FACE_BOUND('',#706,.T.);
#797=FACE_BOUND('',#707,.T.);
#798=FACE_BOUND('',#708,.T.);
#799=FACE_BOUND('',#709,.T.);
#800=FACE_BOUND('',#710,.T.);
#801=FACE_BOUND('',#711,.T.);
#802=FACE_BOUND('',#712,.T.);
#803=FACE_BOUND('',#713,.T.);
#804=FACE_BOUND('',#714,.T.);
#805=FACE_BOUND('',#715,.T.);
#806=FACE_BOUND('',#716,.T.);
#807=FACE_BOUND('',#717,.T.);
#808=FACE_BOUND('',#718,.T.);
#809=FACE_BOUND('',#719,.T.);
#810=FACE_BOUND('',#720,.T.);
#811=FACE_BOUND('',#721,.T.);
#812=FACE_BOUND('',#722,.T.);
#813=FACE_BOUND('',#723,.T.);
#814=FACE_BOUND('',#724,.T.);
#815=FACE_BOUND('',#725,.T.);
#816=FACE_BOUND('',#726,.T.);
#817=FACE_BOUND('',#727,.T.);
#818=FACE_BOUND('',#728,.T.);
#819=FACE_BOUND('',#729,.T.);
#820=FACE_BOUND('',#730,.T.);
#821=FACE_BOUND('',#731,.T.);
#822=FACE_BOUND('',#732,.T.);
#823=FACE_BOUND('',#733,.T.);
#824=FACE_BOUND('',#734,.T.);
#825=FACE_BOUND('',#735,.T.);
#826=FACE_BOUND('',#736,.T.);
#827=FACE_BOUND('',#737,.T.);
#828=FACE_BOUND('',#738,.T.);
#829=FACE_BOUND('',#739,.T.);
#830=FACE_BOUND('',#740,.T.);
#831=FACE_BOUND('',#741,.T.);
#832=FACE_BOUND('',#742,.T.);
#833=FACE_BOUND('',#743,.T.);
#834=FACE_BOUND('',#744,.T.);
#835=FACE_BOUND('',#745,.T.);
#836=FACE_BOUND('',#746,.T.);
#837=FACE_BOUND('',#747,.T.);
#838=FACE_BOUND('',#748,.T.);
#839=FACE_BOUND('',#749,.T.);
#840=FACE_BOUND('',#750,.T.);
#841=FACE_BOUND('',#751,.T.);
#842=FACE_BOUND('',#752,.T.);
#843=FACE_BOUND('',#753,.T.);
#844=FACE_BOUND('',#754,.T.);
#845=FACE_BOUND('',#755,.T.);
#846=FACE_BOUND('',#756,.T.);
#847=FACE_BOUND('',#757,.T.);
#848=FACE_BOUND('',#758,.T.);
#849=FACE_BOUND('',#759,.T.);
#850=FACE_BOUND('',#760,.T.);
#851=FACE_BOUND('',#761,.T.);
#852=FACE_BOUND('',#762,.T.);
#853=FACE_BOUND('',#763,.T.);
#854=FACE_BOUND('',#764,.T.);
#855=FACE_BOUND('',#765,.T.);
#856=FACE_BOUND('',#766,.T.);
#857=FACE_BOUND('',#767,.T.);
#858=FACE_BOUND('',#768,.T.);
#859=FACE_BOUND('',#769,.T.);
#860=FACE_BOUND('',#770,.T.);
#861=FACE_BOUND('',#771,.T.);
#862=FACE_BOUND('',#772,.T.);
#863=FACE_BOUND('',#773,.T.);
#864=FACE_BOUND('',#774,.T.);
#865=FACE_BOUND('',#775,.T.);
#866=FACE_BOUND('',#776,.T.);
#867=FACE_BOUND('',#777,.T.);
#868=FACE_BOUND('',#778,.T.);
#869=FACE_BOUND('',#779,.T.);
#870=FACE_BOUND('',#780,.T.);
#871=FACE_BOUND('',#781,.T.);
#872=FACE_BOUND('',#782,.T.);
#873=FACE_BOUND('',#783,.T.);
#874=PLANE('',#984);
#875=PLANE('',#989);
#876=PLANE('',#991);
#877=PLANE('',#994);
#878=PLANE('',#995);
#879=PLANE('',#996);
#880=PLANE('',#998);
#881=PLANE('',#1000);
#882=PLANE('',#1002);
#883=PLANE('',#1003);
#884=PLANE('',#1005);
#885=PLANE('',#1007);
#886=PLANE('',#1008);
#887=PLANE('',#1010);
#888=PLANE('',#1012);
#889=PLANE('',#1014);
#890=PLANE('',#1015);
#891=PLANE('',#1017);
#892=PLANE('',#1018);
#893=PLANE('',#1020);
#894=PLANE('',#1022);
#895=PLANE('',#1034);
#896=PLANE('',#1036);
#897=PLANE('',#1037);
#898=PLANE('',#1038);
#899=PLANE('',#1039);
#900=PLANE('',#1043);
#901=PLANE('',#1048);
#902=PLANE('',#1051);
#903=PLANE('',#1052);
#904=PLANE('',#1053);
#905=PLANE('',#1054);
#906=PLANE('',#1055);
#907=PLANE('',#1056);
#908=PLANE('',#1057);
#909=PLANE('',#1058);
#910=PLANE('',#1061);
#911=PLANE('',#1064);
#912=PLANE('',#1067);
#913=PLANE('',#1070);
#914=ADVANCED_FACE('',(#784,#785,#786,#787,#788),#874,.F.);
#915=ADVANCED_FACE('',(#789,#790),#875,.F.);
#916=ADVANCED_FACE('',(#791,#792),#876,.F.);
#917=ADVANCED_FACE('',(#793),#877,.T.);
#918=ADVANCED_FACE('',(#794),#878,.F.);
#919=ADVANCED_FACE('',(#795),#879,.T.);
#920=ADVANCED_FACE('',(#796),#880,.F.);
#921=ADVANCED_FACE('',(#797),#881,.T.);
#922=ADVANCED_FACE('',(#798),#882,.F.);
#923=ADVANCED_FACE('',(#799,#800),#883,.T.);
#924=ADVANCED_FACE('',(#801),#884,.T.);
#925=ADVANCED_FACE('',(#802),#885,.T.);
#926=ADVANCED_FACE('',(#803),#886,.F.);
#927=ADVANCED_FACE('',(#804,#805),#887,.T.);
#928=ADVANCED_FACE('',(#806),#888,.T.);
#929=ADVANCED_FACE('',(#807),#889,.F.);
#930=ADVANCED_FACE('',(#808,#809),#890,.T.);
#931=ADVANCED_FACE('',(#810),#891,.T.);
#932=ADVANCED_FACE('',(#811),#892,.F.);
#933=ADVANCED_FACE('',(#812,#813),#893,.T.);
#934=ADVANCED_FACE('',(#814,#815,#816,#817,#818),#894,.T.);
#935=ADVANCED_FACE('',(#819,#820,#821,#822),#21,.T.);
#936=ADVANCED_FACE('',(#823,#824),#895,.T.);
#937=ADVANCED_FACE('',(#825),#896,.F.);
#938=ADVANCED_FACE('',(#826),#897,.F.);
#939=ADVANCED_FACE('',(#827,#828),#12,.F.);
#940=ADVANCED_FACE('',(#829),#898,.T.);
#941=ADVANCED_FACE('',(#830),#899,.F.);
#942=ADVANCED_FACE('',(#831,#832),#22,.F.);
#943=ADVANCED_FACE('',(#833,#834),#900,.T.);
#944=ADVANCED_FACE('',(#835,#836),#23,.T.);
#945=ADVANCED_FACE('',(#837,#838),#901,.F.);
#946=ADVANCED_FACE('',(#839,#840),#24,.T.);
#947=ADVANCED_FACE('',(#841,#842),#902,.T.);
#948=ADVANCED_FACE('',(#843,#844),#13,.F.);
#949=ADVANCED_FACE('',(#845,#846),#14,.F.);
#950=ADVANCED_FACE('',(#847,#848),#15,.F.);
#951=ADVANCED_FACE('',(#849,#850),#16,.F.);
#952=ADVANCED_FACE('',(#851),#903,.F.);
#953=ADVANCED_FACE('',(#852),#904,.F.);
#954=ADVANCED_FACE('',(#853),#905,.T.);
#955=ADVANCED_FACE('',(#854),#906,.F.);
#956=ADVANCED_FACE('',(#855),#907,.T.);
#957=ADVANCED_FACE('',(#856),#908,.F.);
#958=ADVANCED_FACE('',(#857),#909,.T.);
#959=ADVANCED_FACE('',(#858,#859),#25,.F.);
#960=ADVANCED_FACE('',(#860),#910,.T.);
#961=ADVANCED_FACE('',(#861,#862),#26,.F.);
#962=ADVANCED_FACE('',(#863),#911,.T.);
#963=ADVANCED_FACE('',(#864,#865),#27,.F.);
#964=ADVANCED_FACE('',(#866),#912,.T.);
#965=ADVANCED_FACE('',(#867,#868),#28,.F.);
#966=ADVANCED_FACE('',(#869),#913,.T.);
#967=ADVANCED_FACE('',(#870),#17,.T.);
#968=ADVANCED_FACE('',(#871),#18,.T.);
#969=ADVANCED_FACE('',(#872),#19,.T.);
#970=ADVANCED_FACE('',(#873),#20,.T.);
#971=CLOSED_SHELL('',(#914,#915,#916,#917,#918,#919,#920,#921,#922,#923,
#924,#925,#926,#927,#928,#929,#930,#931,#932,#933,#934,#935,#936,#937,#938,
#939,#940,#941,#942,#943,#944,#945,#946,#947,#948,#949,#950,#951,#952,#953,
#954,#955,#956,#957,#958,#959,#960,#961,#962,#963,#964,#965,#966,#967,#968,
#969,#970));
#972=STYLED_ITEM('',(#973),#980);
#973=PRESENTATION_STYLE_ASSIGNMENT((#974));
#974=SURFACE_STYLE_USAGE(.BOTH.,#975);
#975=SURFACE_SIDE_STYLE('',(#976));
#976=SURFACE_STYLE_FILL_AREA(#977);
#977=FILL_AREA_STYLE('',(#978));
#978=FILL_AREA_STYLE_COLOUR('',#979);
#979=COLOUR_RGB('',0.231372549019608,0.380392156862745,0.705882352941177);
#980=MANIFOLD_SOLID_BREP('Part 1',#971);
#981=SHAPE_DEFINITION_REPRESENTATION(#1850,#982);
#982=SHAPE_REPRESENTATION('Part 1',(#983),#1845);
#983=AXIS2_PLACEMENT_3D('',#1321,#1071,#1072);
#984=AXIS2_PLACEMENT_3D('',#1322,#1073,#1074);
#985=AXIS2_PLACEMENT_3D('',#1323,#1075,#1076);
#986=AXIS2_PLACEMENT_3D('',#1325,#1077,#1078);
#987=AXIS2_PLACEMENT_3D('',#1327,#1079,#1080);
#988=AXIS2_PLACEMENT_3D('',#1329,#1081,#1082);
#989=AXIS2_PLACEMENT_3D('',#1371,#1103,#1104);
#990=AXIS2_PLACEMENT_3D('',#1380,#1109,#1110);
#991=AXIS2_PLACEMENT_3D('',#1381,#1111,#1112);
#992=AXIS2_PLACEMENT_3D('',#1382,#1113,#1114);
#993=AXIS2_PLACEMENT_3D('',#1384,#1115,#1116);
#994=AXIS2_PLACEMENT_3D('',#1385,#1117,#1118);
#995=AXIS2_PLACEMENT_3D('',#1393,#1123,#1124);
#996=AXIS2_PLACEMENT_3D('',#1399,#1128,#1129);
#997=AXIS2_PLACEMENT_3D('',#1400,#1130,#1131);
#998=AXIS2_PLACEMENT_3D('',#1404,#1134,#1135);
#999=AXIS2_PLACEMENT_3D('',#1405,#1136,#1137);
#1000=AXIS2_PLACEMENT_3D('',#1417,#1141,#1142);
#1001=AXIS2_PLACEMENT_3D('',#1424,#1143,#1144);
#1002=AXIS2_PLACEMENT_3D('',#1430,#1148,#1149);
#1003=AXIS2_PLACEMENT_3D('',#1432,#1151,#1152);
#1004=AXIS2_PLACEMENT_3D('',#1433,#1153,#1154);
#1005=AXIS2_PLACEMENT_3D('',#1436,#1156,#1157);
#1006=AXIS2_PLACEMENT_3D('',#1443,#1158,#1159);
#1007=AXIS2_PLACEMENT_3D('',#1449,#1163,#1164);
#1008=AXIS2_PLACEMENT_3D('',#1453,#1167,#1168);
#1009=AXIS2_PLACEMENT_3D('',#1454,#1169,#1170);
#1010=AXIS2_PLACEMENT_3D('',#1464,#1173,#1174);
#1011=AXIS2_PLACEMENT_3D('',#1465,#1175,#1176);
#1012=AXIS2_PLACEMENT_3D('',#1468,#1178,#1179);
#1013=AXIS2_PLACEMENT_3D('',#1475,#1180,#1181);
#1014=AXIS2_PLACEMENT_3D('',#1481,#1185,#1186);
#1015=AXIS2_PLACEMENT_3D('',#1485,#1189,#1190);
#1016=AXIS2_PLACEMENT_3D('',#1486,#1191,#1192);
#1017=AXIS2_PLACEMENT_3D('',#1491,#1195,#1196);
#1018=AXIS2_PLACEMENT_3D('',#1497,#1200,#1201);
#1019=AXIS2_PLACEMENT_3D('',#1498,#1202,#1203);
#1020=AXIS2_PLACEMENT_3D('',#1508,#1206,#1207);
#1021=AXIS2_PLACEMENT_3D('',#1509,#1208,#1209);
#1022=AXIS2_PLACEMENT_3D('',#1514,#1212,#1213);
#1023=AXIS2_PLACEMENT_3D('',#1515,#1214,#1215);
#1024=AXIS2_PLACEMENT_3D('',#1517,#1216,#1217);
#1025=AXIS2_PLACEMENT_3D('',#1519,#1218,#1219);
#1026=AXIS2_PLACEMENT_3D('',#1521,#1220,#1221);
#1027=AXIS2_PLACEMENT_3D('',#1531,#1226,#1227);
#1028=AXIS2_PLACEMENT_3D('',#1533,#1229,#1230);
#1029=AXIS2_PLACEMENT_3D('',#1538,#1233,#1234);
#1030=AXIS2_PLACEMENT_3D('',#1540,#1236,#1237);
#1031=AXIS2_PLACEMENT_3D('',#1542,#1238,#1239);
#1032=AXIS2_PLACEMENT_3D('',#1543,#1240,#1241);
#1033=AXIS2_PLACEMENT_3D('',#1544,#1242,#1243);
#1034=AXIS2_PLACEMENT_3D('',#1546,#1244,#1245);
#1035=AXIS2_PLACEMENT_3D('',#1547,#1246,#1247);
#1036=AXIS2_PLACEMENT_3D('',#1549,#1248,#1249);
#1037=AXIS2_PLACEMENT_3D('',#1550,#1250,#1251);
#1038=AXIS2_PLACEMENT_3D('',#1589,#1252,#1253);
#1039=AXIS2_PLACEMENT_3D('',#1591,#1255,#1256);
#1040=AXIS2_PLACEMENT_3D('',#1592,#1257,#1258);
#1041=AXIS2_PLACEMENT_3D('',#1593,#1259,#1260);
#1042=AXIS2_PLACEMENT_3D('',#1594,#1261,#1262);
#1043=AXIS2_PLACEMENT_3D('',#1596,#1263,#1264);
#1044=AXIS2_PLACEMENT_3D('',#1597,#1265,#1266);
#1045=AXIS2_PLACEMENT_3D('',#1599,#1267,#1268);
#1046=AXIS2_PLACEMENT_3D('',#1601,#1269,#1270);
#1047=AXIS2_PLACEMENT_3D('',#1602,#1271,#1272);
#1048=AXIS2_PLACEMENT_3D('',#1604,#1273,#1274);
#1049=AXIS2_PLACEMENT_3D('',#1605,#1275,#1276);
#1050=AXIS2_PLACEMENT_3D('',#1606,#1277,#1278);
#1051=AXIS2_PLACEMENT_3D('',#1608,#1279,#1280);
#1052=AXIS2_PLACEMENT_3D('',#1761,#1281,#1282);
#1053=AXIS2_PLACEMENT_3D('',#1762,#1283,#1284);
#1054=AXIS2_PLACEMENT_3D('',#1769,#1286,#1287);
#1055=AXIS2_PLACEMENT_3D('',#1776,#1289,#1290);
#1056=AXIS2_PLACEMENT_3D('',#1781,#1291,#1292);
#1057=AXIS2_PLACEMENT_3D('',#1786,#1293,#1294);
#1058=AXIS2_PLACEMENT_3D('',#1791,#1295,#1296);
#1059=AXIS2_PLACEMENT_3D('',#1796,#1297,#1298);
#1060=AXIS2_PLACEMENT_3D('',#1797,#1299,#1300);
#1061=AXIS2_PLACEMENT_3D('',#1799,#1301,#1302);
#1062=AXIS2_PLACEMENT_3D('',#1800,#1303,#1304);
#1063=AXIS2_PLACEMENT_3D('',#1801,#1305,#1306);
#1064=AXIS2_PLACEMENT_3D('',#1803,#1307,#1308);
#1065=AXIS2_PLACEMENT_3D('',#1804,#1309,#1310);
#1066=AXIS2_PLACEMENT_3D('',#1805,#1311,#1312);
#1067=AXIS2_PLACEMENT_3D('',#1807,#1313,#1314);
#1068=AXIS2_PLACEMENT_3D('',#1808,#1315,#1316);
#1069=AXIS2_PLACEMENT_3D('',#1809,#1317,#1318);
#1070=AXIS2_PLACEMENT_3D('',#1811,#1319,#1320);
#1071=DIRECTION('',(0.,0.,1.));
#1072=DIRECTION('',(1.,0.,0.));
#1073=DIRECTION('',(0.,-1.,0.));
#1074=DIRECTION('',(1.,0.,0.));
#1075=DIRECTION('',(0.,-1.,0.));
#1076=DIRECTION('',(-0.382226812879628,0.,-0.924068538321635));
#1077=DIRECTION('',(0.,-1.,0.));
#1078=DIRECTION('',(-0.382226812879628,0.,-0.924068538321635));
#1079=DIRECTION('',(0.,-1.,0.));
#1080=DIRECTION('',(-0.382226812879628,0.,-0.924068538321635));
#1081=DIRECTION('',(0.,-1.,0.));
#1082=DIRECTION('',(-0.382226812879628,0.,-0.924068538321635));
#1083=DIRECTION('',(-1.,0.,0.));
#1084=DIRECTION('',(0.,0.,1.));
#1085=DIRECTION('',(-1.,0.,0.));
#1086=DIRECTION('',(0.,0.,-1.));
#1087=DIRECTION('',(1.,0.,0.));
#1088=DIRECTION('',(0.,0.,-1.));
#1089=DIRECTION('',(-1.,0.,0.));
#1090=DIRECTION('',(0.,0.,-1.));
#1091=DIRECTION('',(-1.,0.,0.));
#1092=DIRECTION('',(0.,0.,1.));
#1093=DIRECTION('',(1.,0.,0.));
#1094=DIRECTION('',(0.,0.,1.));
#1095=DIRECTION('',(-1.,0.,0.));
#1096=DIRECTION('',(0.,0.,1.));
#1097=DIRECTION('',(-1.,0.,0.));
#1098=DIRECTION('',(0.,0.,1.));
#1099=DIRECTION('',(-1.,0.,0.));
#1100=DIRECTION('',(0.,0.,-1.));
#1101=DIRECTION('',(-1.,0.,0.));
#1102=DIRECTION('',(0.,0.,-1.));
#1103=DIRECTION('',(-1.,0.,0.));
#1104=DIRECTION('',(0.,0.,1.));
#1105=DIRECTION('',(0.,-0.999999985193657,0.000172083371453898));
#1106=DIRECTION('',(0.,0.0264064407977151,0.999651289142567));
#1107=DIRECTION('',(0.,-1.,-5.78241158658936E-16));
#1108=DIRECTION('',(0.,-2.89120579329468E-16,1.));
#1109=DIRECTION('',(-1.,0.,0.));
#1110=DIRECTION('',(0.,1.,0.));
#1111=DIRECTION('',(1.,0.,0.));
#1112=DIRECTION('',(0.,0.,-1.));
#1113=DIRECTION('',(-1.,0.,0.));
#1114=DIRECTION('',(0.,0.,1.));
#1115=DIRECTION('',(1.,0.,0.));
#1116=DIRECTION('',(0.,-1.,0.));
#1117=DIRECTION('',(0.,-0.999651289142567,0.0264064407977151));
#1118=DIRECTION('',(0.,-0.0264064407977151,-0.999651289142567));
#1119=DIRECTION('',(0.,0.0264064407977151,0.999651289142567));
#1120=DIRECTION('',(0.,-0.0264064407977151,-0.999651289142568));
#1121=DIRECTION('',(-1.,0.,0.));
#1122=DIRECTION('',(-1.,0.,0.));
#1123=DIRECTION('',(0.,5.78241158658936E-16,-1.));
#1124=DIRECTION('',(0.,1.,5.78241158658936E-16));
#1125=DIRECTION('',(0.,1.,5.78241158658936E-16));
#1126=DIRECTION('',(0.,-1.,-5.78241158658936E-16));
#1127=DIRECTION('',(-1.,0.,0.));
#1128=DIRECTION('',(-1.,0.,0.));
#1129=DIRECTION('',(0.,0.,1.));
#1130=DIRECTION('',(-1.,0.,0.));
#1131=DIRECTION('',(0.,1.,0.));
#1132=DIRECTION('',(0.,-0.999999985193657,0.000172083371453898));
#1133=DIRECTION('',(0.,-2.89120579329468E-16,1.));
#1134=DIRECTION('',(1.,0.,0.));
#1135=DIRECTION('',(0.,-1.,0.));
#1136=DIRECTION('',(1.,0.,0.));
#1137=DIRECTION('',(0.,-1.,0.));
#1138=DIRECTION('',(0.,1.,0.));
#1139=DIRECTION('',(0.,0.,-1.));
#1140=DIRECTION('',(0.,1.,0.));
#1141=DIRECTION('',(1.,0.,0.));
#1142=DIRECTION('',(0.,-1.,0.));
#1143=DIRECTION('',(1.,0.,0.));
#1144=DIRECTION('',(0.,-1.,0.));
#1145=DIRECTION('',(0.,1.,0.));
#1146=DIRECTION('',(0.,0.,-1.));
#1147=DIRECTION('',(0.,1.,0.));
#1148=DIRECTION('',(0.,0.,1.));
#1149=DIRECTION('',(0.,-1.,0.));
#1150=DIRECTION('',(1.,0.,0.));
#1151=DIRECTION('',(0.,1.,0.));
#1152=DIRECTION('',(1.,0.,0.));
#1153=DIRECTION('',(0.,1.,0.));
#1154=DIRECTION('',(1.,0.,0.));
#1155=DIRECTION('',(1.,0.,0.));
#1156=DIRECTION('',(-1.,0.,0.));
#1157=DIRECTION('',(0.,1.,0.));
#1158=DIRECTION('',(-1.,0.,0.));
#1159=DIRECTION('',(0.,1.,0.));
#1160=DIRECTION('',(0.,1.,0.));
#1161=DIRECTION('',(0.,0.,1.));
#1162=DIRECTION('',(0.,1.,0.));
#1163=DIRECTION('',(0.,0.,1.));
#1164=DIRECTION('',(0.,-1.,0.));
#1165=DIRECTION('',(1.,0.,0.));
#1166=DIRECTION('',(0.,1.,0.));
#1167=DIRECTION('',(-1.,0.,0.));
#1168=DIRECTION('',(0.,1.,0.));
#1169=DIRECTION('',(-1.,0.,0.));
#1170=DIRECTION('',(0.,1.,0.));
#1171=DIRECTION('',(0.,1.,0.));
#1172=DIRECTION('',(0.,0.,1.));
#1173=DIRECTION('',(0.,1.,0.));
#1174=DIRECTION('',(1.,0.,0.));
#1175=DIRECTION('',(0.,1.,0.));
#1176=DIRECTION('',(1.,0.,0.));
#1177=DIRECTION('',(1.,0.,0.));
#1178=DIRECTION('',(-1.,0.,0.));
#1179=DIRECTION('',(0.,1.,0.));
#1180=DIRECTION('',(-1.,0.,0.));
#1181=DIRECTION('',(0.,1.,0.));
#1182=DIRECTION('',(0.,1.,0.));
#1183=DIRECTION('',(0.,0.,1.));
#1184=DIRECTION('',(0.,1.,0.));
#1185=DIRECTION('',(0.,0.,-1.));
#1186=DIRECTION('',(0.,1.,0.));
#1187=DIRECTION('',(-1.,0.,0.));
#1188=DIRECTION('',(0.,1.,0.));
#1189=DIRECTION('',(0.,1.,0.));
#1190=DIRECTION('',(1.,0.,0.));
#1191=DIRECTION('',(0.,1.,0.));
#1192=DIRECTION('',(1.,0.,0.));
#1193=DIRECTION('',(0.,0.,1.));
#1194=DIRECTION('',(-1.,0.,0.));
#1195=DIRECTION('',(0.,0.,-1.));
#1196=DIRECTION('',(0.,1.,0.));
#1197=DIRECTION('',(-1.,0.,0.));
#1198=DIRECTION('',(0.,1.,0.));
#1199=DIRECTION('',(0.,1.,0.));
#1200=DIRECTION('',(1.,0.,0.));
#1201=DIRECTION('',(0.,-1.,0.));
#1202=DIRECTION('',(1.,0.,0.));
#1203=DIRECTION('',(0.,-1.,0.));
#1204=DIRECTION('',(0.,1.,0.));
#1205=DIRECTION('',(0.,0.,-1.));
#1206=DIRECTION('',(0.,1.,0.));
#1207=DIRECTION('',(1.,0.,0.));
#1208=DIRECTION('',(0.,1.,0.));
#1209=DIRECTION('',(1.,0.,0.));
#1210=DIRECTION('',(-1.,0.,0.));
#1211=DIRECTION('',(0.,0.,-1.));
#1212=DIRECTION('',(0.,-1.,0.));
#1213=DIRECTION('',(1.,0.,0.));
#1214=DIRECTION('',(0.,-1.,0.));
#1215=DIRECTION('',(-0.382226812879628,0.,-0.924068538321635));
#1216=DIRECTION('',(0.,-1.,0.));
#1217=DIRECTION('',(-0.382226812879628,0.,-0.924068538321635));
#1218=DIRECTION('',(0.,-1.,0.));
#1219=DIRECTION('',(-0.382226812879628,0.,-0.924068538321635));
#1220=DIRECTION('',(0.,-1.,0.));
#1221=DIRECTION('',(-0.382226812879628,0.,-0.924068538321635));
#1222=DIRECTION('',(0.,0.,-1.));
#1223=DIRECTION('',(-1.,0.,0.));
#1224=DIRECTION('',(0.,0.,-1.));
#1225=DIRECTION('',(-1.,0.,0.));
#1226=DIRECTION('',(-1.,0.,0.));
#1227=DIRECTION('',(0.,1.,0.));
#1228=DIRECTION('',(1.,0.,0.));
#1229=DIRECTION('',(1.,0.,0.));
#1230=DIRECTION('',(0.,-1.,0.));
#1231=DIRECTION('',(-1.,0.,0.));
#1232=DIRECTION('',(1.,0.,0.));
#1233=DIRECTION('',(-1.,0.,0.));
#1234=DIRECTION('',(0.,1.,0.));
#1235=DIRECTION('',(-1.,0.,0.));
#1236=DIRECTION('',(1.,0.,0.));
#1237=DIRECTION('',(0.,-1.,0.));
#1238=DIRECTION('',(1.,0.,0.));
#1239=DIRECTION('',(0.,-1.,0.));
#1240=DIRECTION('',(-1.,0.,0.));
#1241=DIRECTION('',(0.,1.,0.));
#1242=DIRECTION('',(-1.,0.,0.));
#1243=DIRECTION('',(0.,1.,0.));
#1244=DIRECTION('',(1.,0.,0.));
#1245=DIRECTION('',(0.,0.,-1.));
#1246=DIRECTION('',(-1.,0.,0.));
#1247=DIRECTION('',(0.,0.,1.));
#1248=DIRECTION('',(1.,0.,0.));
#1249=DIRECTION('',(0.,0.,-1.));
#1250=DIRECTION('',(-1.,0.,0.));
#1251=DIRECTION('',(0.,0.,1.));
#1252=DIRECTION('',(0.,-0.000172083371453898,-0.999999985193657));
#1253=DIRECTION('',(0.,0.999999985193657,-0.000172083371453898));
#1254=DIRECTION('',(-1.,0.,0.));
#1255=DIRECTION('',(0.,-1.,-2.89120579329468E-16));
#1256=DIRECTION('',(0.,2.89120579329468E-16,-1.));
#1257=DIRECTION('',(1.,0.,0.));
#1258=DIRECTION('',(0.,-1.,0.));
#1259=DIRECTION('',(-1.,0.,0.));
#1260=DIRECTION('',(0.,1.,0.));
#1261=DIRECTION('',(-1.,0.,0.));
#1262=DIRECTION('',(0.,1.,0.));
#1263=DIRECTION('',(-1.,0.,0.));
#1264=DIRECTION('',(0.,0.,1.));
#1265=DIRECTION('',(-1.,0.,0.));
#1266=DIRECTION('',(0.,1.,0.));
#1267=DIRECTION('',(-1.,0.,0.));
#1268=DIRECTION('',(0.,1.,0.));
#1269=DIRECTION('',(-1.,0.,0.));
#1270=DIRECTION('',(0.,1.,0.));
#1271=DIRECTION('',(-1.,0.,0.));
#1272=DIRECTION('',(0.,1.,0.));
#1273=DIRECTION('',(-1.,0.,0.));
#1274=DIRECTION('',(0.,0.,1.));
#1275=DIRECTION('',(1.,0.,0.));
#1276=DIRECTION('',(0.,-1.,0.));
#1277=DIRECTION('',(-1.,0.,0.));
#1278=DIRECTION('',(0.,1.,0.));
#1279=DIRECTION('',(-1.,0.,0.));
#1280=DIRECTION('',(0.,0.,1.));
#1281=DIRECTION('',(-1.,0.,0.));
#1282=DIRECTION('',(0.,0.,1.));
#1283=DIRECTION('',(0.,0.,-1.));
#1284=DIRECTION('',(0.,1.,0.));
#1285=DIRECTION('',(0.,1.,0.));
#1286=DIRECTION('',(0.,0.,-1.));
#1287=DIRECTION('',(0.,1.,0.));
#1288=DIRECTION('',(0.,1.,0.));
#1289=DIRECTION('',(0.,0.,1.));
#1290=DIRECTION('',(0.,-1.,0.));
#1291=DIRECTION('',(0.,0.,1.));
#1292=DIRECTION('',(0.,-1.,0.));
#1293=DIRECTION('',(-1.,0.,0.));
#1294=DIRECTION('',(0.,1.,0.));
#1295=DIRECTION('',(1.,0.,0.));
#1296=DIRECTION('',(0.,-1.,0.));
#1297=DIRECTION('',(0.,1.,0.));
#1298=DIRECTION('',(1.,0.,0.));
#1299=DIRECTION('',(0.,1.,0.));
#1300=DIRECTION('',(1.,0.,0.));
#1301=DIRECTION('',(0.,1.,0.));
#1302=DIRECTION('',(1.,0.,0.));
#1303=DIRECTION('',(0.,1.,0.));
#1304=DIRECTION('',(1.,0.,0.));
#1305=DIRECTION('',(0.,1.,0.));
#1306=DIRECTION('',(1.,0.,0.));
#1307=DIRECTION('',(0.,1.,0.));
#1308=DIRECTION('',(1.,0.,0.));
#1309=DIRECTION('',(0.,1.,0.));
#1310=DIRECTION('',(1.,0.,0.));
#1311=DIRECTION('',(0.,1.,0.));
#1312=DIRECTION('',(1.,0.,0.));
#1313=DIRECTION('',(0.,1.,0.));
#1314=DIRECTION('',(1.,0.,0.));
#1315=DIRECTION('',(0.,1.,0.));
#1316=DIRECTION('',(1.,0.,0.));
#1317=DIRECTION('',(0.,1.,0.));
#1318=DIRECTION('',(1.,0.,0.));
#1319=DIRECTION('',(0.,1.,0.));
#1320=DIRECTION('',(1.,0.,0.));
#1321=CARTESIAN_POINT('',(0.,0.,0.));
#1322=CARTESIAN_POINT('',(6.93889390390723E-15,-9.62,0.5));
#1323=CARTESIAN_POINT('',(-31.4002111554147,-9.62,1.72773545416196E-15));
#1324=CARTESIAN_POINT('',(-41.843939446999,-9.62,-25.2486754247452));
#1325=CARTESIAN_POINT('',(31.5997888445853,-9.62,1.72773545416196E-15));
#1326=CARTESIAN_POINT('',(21.156060553001,-9.62,-25.2486754247452));
#1327=CARTESIAN_POINT('',(-10.4002111554147,-9.62,1.72773545416196E-15));
#1328=CARTESIAN_POINT('',(-20.8439394469989,-9.62,-25.2486754247452));
#1329=CARTESIAN_POINT('',(10.5997888445853,-9.62,1.72773545416196E-15));
#1330=CARTESIAN_POINT('',(0.15606055300104,-9.62,-25.2486754247452));
#1331=CARTESIAN_POINT('',(-48.762,-9.62,27.998947042942));
#1332=CARTESIAN_POINT('',(-32.261473521471,-9.62,27.998947042942));
#1333=CARTESIAN_POINT('',(-52.262526478529,-9.62,27.998947042942));
#1334=CARTESIAN_POINT('',(-32.261473521471,-9.62,33.));
#1335=CARTESIAN_POINT('',(-32.261473521471,-9.62,35.7557536393286));
#1336=CARTESIAN_POINT('',(52.502,-9.62,35.7557536393286));
#1337=CARTESIAN_POINT('',(45.261473521471,-9.62,35.7557536393286));
#1338=CARTESIAN_POINT('',(45.261473521471,-9.62,31.499473521471));
#1339=CARTESIAN_POINT('',(45.261473521471,-9.62,27.998947042942));
#1340=CARTESIAN_POINT('',(48.762,-9.62,27.998947042942));
#1341=CARTESIAN_POINT('',(52.262526478529,-9.62,27.998947042942));
#1342=CARTESIAN_POINT('',(52.262526478529,-9.62,31.499473521471));
#1343=CARTESIAN_POINT('',(52.262526478529,-9.62,35.7557536393286));
#1344=CARTESIAN_POINT('',(52.502,-9.62,35.7557536393286));
#1345=CARTESIAN_POINT('',(52.5,-9.62,35.7557536393286));
#1346=CARTESIAN_POINT('',(52.5,-9.62,0.));
#1347=CARTESIAN_POINT('',(52.5,-9.62,-35.7557536393286));
#1348=CARTESIAN_POINT('',(52.502,-9.62,-35.7557536393286));
#1349=CARTESIAN_POINT('',(52.262526478529,-9.62,-35.7557536393286));
#1350=CARTESIAN_POINT('',(52.262526478529,-9.62,-31.499473521471));
#1351=CARTESIAN_POINT('',(52.262526478529,-9.62,-27.998947042942));
#1352=CARTESIAN_POINT('',(48.762,-9.62,-27.998947042942));
#1353=CARTESIAN_POINT('',(45.261473521471,-9.62,-27.998947042942));
#1354=CARTESIAN_POINT('',(45.261473521471,-9.62,-31.499473521471));
#1355=CARTESIAN_POINT('',(45.261473521471,-9.62,-35.7557536393286));
#1356=CARTESIAN_POINT('',(52.502,-9.62,-35.7557536393286));
#1357=CARTESIAN_POINT('',(-32.261473521471,-9.62,-35.7557536393286));
#1358=CARTESIAN_POINT('',(-32.261473521471,-9.62,-31.499473521471));
#1359=CARTESIAN_POINT('',(-32.261473521471,-9.62,-27.998947042942));
#1360=CARTESIAN_POINT('',(-48.762,-9.62,-27.998947042942));
#1361=CARTESIAN_POINT('',(-52.262526478529,-9.62,-27.998947042942));
#1362=CARTESIAN_POINT('',(-52.262526478529,-9.62,-31.499473521471));
#1363=CARTESIAN_POINT('',(-52.262526478529,-9.62,-35.7557536393286));
#1364=CARTESIAN_POINT('',(52.502,-9.62,-35.7557536393286));
#1365=CARTESIAN_POINT('',(-52.5,-9.62,-35.7557536393286));
#1366=CARTESIAN_POINT('',(-52.5,-9.62,3.46944695195361E-15));
#1367=CARTESIAN_POINT('',(-52.5,-9.62,35.7557536393286));
#1368=CARTESIAN_POINT('',(52.502,-9.62,35.7557536393286));
#1369=CARTESIAN_POINT('',(-52.2625264785289,-9.62,35.7557536393286));
#1370=CARTESIAN_POINT('',(-52.262526478529,-9.62,31.499473521471));
#1371=CARTESIAN_POINT('',(-52.5,-0.105480480673589,0.));
#1372=CARTESIAN_POINT('',(-52.5,-0.109238431945754,-21.8379683334503));
#1373=CARTESIAN_POINT('',(-52.5,21.5883432770566,-21.8417021265185));
#1374=CARTESIAN_POINT('',(-52.5,9.42990463227034,-21.8396098613739));
#1375=CARTESIAN_POINT('',(-52.5,22.1497766623308,-0.587887132810826));
#1376=CARTESIAN_POINT('',(-52.5,21.4299046322704,-27.8396098613739));
#1377=CARTESIAN_POINT('',(-52.5,-0.105480480673573,-27.8396098613739));
#1378=CARTESIAN_POINT('',(-52.5,9.42990463227035,-27.8396098613739));
#1379=CARTESIAN_POINT('',(-52.5,9.42990463227034,2.75687606798393E-15));
#1380=CARTESIAN_POINT('',(-52.5,-0.105480480673598,1.70770386580354E-15));
#1381=CARTESIAN_POINT('',(52.5,-0.105480480673589,0.));
#1382=CARTESIAN_POINT('',(52.5,4.,0.));
#1383=CARTESIAN_POINT('',(52.5,4.,26.5));
#1384=CARTESIAN_POINT('',(52.5,-0.105480480673588,0.));
#1385=CARTESIAN_POINT('',(-35.1,21.5091239546635,-24.8406559939462));
#1386=CARTESIAN_POINT('',(-56.31,22.1497766623308,-0.587887132810826));
#1387=CARTESIAN_POINT('',(-56.31,21.43662775734,-27.5850969304388));
#1388=CARTESIAN_POINT('',(-56.31,21.5883432770566,-21.8417021265185));
#1389=CARTESIAN_POINT('',(-56.31,22.1497766623308,-0.587887132810826));
#1390=CARTESIAN_POINT('',(-56.31,21.4299046322704,-27.8396098613739));
#1391=CARTESIAN_POINT('',(-35.1,21.4299046322704,-27.8396098613739));
#1392=CARTESIAN_POINT('',(-35.1,21.5883432770566,-21.8417021265185));
#1393=CARTESIAN_POINT('',(-35.1,15.4299046322704,-27.8396098613739));
#1394=CARTESIAN_POINT('',(-56.31,-0.105480480673573,-27.8396098613739));
#1395=CARTESIAN_POINT('',(-56.31,21.1066887334001,-27.8396098613739));
#1396=CARTESIAN_POINT('',(-56.31,-0.105480480673573,-27.8396098613739));
#1397=CARTESIAN_POINT('',(-56.31,9.42990463227034,-27.8396098613739));
#1398=CARTESIAN_POINT('',(-35.1,9.42990463227035,-27.8396098613739));
#1399=CARTESIAN_POINT('',(-56.31,-0.105480480673589,0.));
#1400=CARTESIAN_POINT('',(-56.31,-0.105480480673585,0.));
#1401=CARTESIAN_POINT('',(-56.31,-0.109238431945754,-21.8379683334503));
#1402=CARTESIAN_POINT('',(-56.31,9.42990463227034,-21.8396098613739));
#1403=CARTESIAN_POINT('',(-56.31,9.42990463227034,2.75687606798393E-15));
#1404=CARTESIAN_POINT('',(45.261473521471,-9.62,31.499473521471));
#1405=CARTESIAN_POINT('',(45.261473521471,-0.105480480673588,0.));
#1406=CARTESIAN_POINT('',(45.261473521471,-4.8590358522178,36.6933742156491));
#1407=CARTESIAN_POINT('',(45.261473521471,-4.8590358522178,36.6933742156491));
#1408=CARTESIAN_POINT('',(45.261473521471,-4.05354514847663,36.8977914052164));
#1409=CARTESIAN_POINT('',(45.261473521471,-3.14584584995183,37.));
#1410=CARTESIAN_POINT('',(45.261473521471,-2.1359379566434,37.));
#1411=CARTESIAN_POINT('',(45.261473521471,-2.13593795664341,37.));
#1412=CARTESIAN_POINT('',(45.261473521471,-9.62,37.));
#1413=CARTESIAN_POINT('',(45.261473521471,0.,37.));
#1414=CARTESIAN_POINT('',(45.261473521471,0.,31.499473521471));
#1415=CARTESIAN_POINT('',(45.261473521471,0.,27.998947042942));
#1416=CARTESIAN_POINT('',(45.261473521471,-9.62,27.998947042942));
#1417=CARTESIAN_POINT('',(52.262526478529,-9.62,31.499473521471));
#1418=CARTESIAN_POINT('',(52.262526478529,-2.1359379566434,37.));
#1419=CARTESIAN_POINT('',(52.262526478529,-3.14584584995238,37.));
#1420=CARTESIAN_POINT('',(52.262526478529,-4.05354514847761,36.8977914052163));
#1421=CARTESIAN_POINT('',(52.262526478529,-4.85903585221909,36.6933742156488));
#1422=CARTESIAN_POINT('',(52.262526478529,-2.13593795664341,37.));
#1423=CARTESIAN_POINT('',(52.262526478529,-4.85903585221777,36.6933742156491));
#1424=CARTESIAN_POINT('',(52.262526478529,-0.105480480673588,0.));
#1425=CARTESIAN_POINT('',(52.262526478529,-9.62,27.998947042942));
#1426=CARTESIAN_POINT('',(52.262526478529,0.,27.998947042942));
#1427=CARTESIAN_POINT('',(52.262526478529,0.,31.499473521471));
#1428=CARTESIAN_POINT('',(52.262526478529,0.,37.));
#1429=CARTESIAN_POINT('',(52.262526478529,-9.62,37.));
#1430=CARTESIAN_POINT('',(48.762,-9.62,27.998947042942));
#1431=CARTESIAN_POINT('',(48.762,0.,27.998947042942));
#1432=CARTESIAN_POINT('',(0.,0.,0.));
#1433=CARTESIAN_POINT('',(47.912526478529,0.,31.900526478529));
#1434=CARTESIAN_POINT('',(49.262526478529,0.,31.900526478529));
#1435=CARTESIAN_POINT('',(48.762,0.,37.));
#1436=CARTESIAN_POINT('',(45.261473521471,-9.62,-31.499473521471));
#1437=CARTESIAN_POINT('',(45.261473521471,-2.1359379566434,-37.));
#1438=CARTESIAN_POINT('',(45.261473521471,-3.14584584995184,-37.));
#1439=CARTESIAN_POINT('',(45.261473521471,-4.05354514847662,-36.8977914052164));
#1440=CARTESIAN_POINT('',(45.261473521471,-4.85903585221775,-36.6933742156491));
#1441=CARTESIAN_POINT('',(45.261473521471,-2.13593795664341,-37.));
#1442=CARTESIAN_POINT('',(45.261473521471,-4.85903585221771,-36.6933742156491));
#1443=CARTESIAN_POINT('',(45.261473521471,-0.105480480673588,0.));
#1444=CARTESIAN_POINT('',(45.261473521471,-9.62,-27.998947042942));
#1445=CARTESIAN_POINT('',(45.261473521471,0.,-27.998947042942));
#1446=CARTESIAN_POINT('',(45.261473521471,0.,-31.499473521471));
#1447=CARTESIAN_POINT('',(45.261473521471,0.,-37.));
#1448=CARTESIAN_POINT('',(45.261473521471,-9.62,-37.));
#1449=CARTESIAN_POINT('',(48.762,-9.62,-27.998947042942));
#1450=CARTESIAN_POINT('',(48.762,0.,-27.998947042942));
#1451=CARTESIAN_POINT('',(52.262526478529,0.,-27.998947042942));
#1452=CARTESIAN_POINT('',(52.262526478529,-9.62,-27.998947042942));
#1453=CARTESIAN_POINT('',(52.262526478529,-9.62,-31.499473521471));
#1454=CARTESIAN_POINT('',(52.262526478529,-0.105480480673588,0.));
#1455=CARTESIAN_POINT('',(52.262526478529,-4.85903585221771,-36.6933742156491));
#1456=CARTESIAN_POINT('',(52.262526478529,-4.85903585221771,-36.6933742156491));
#1457=CARTESIAN_POINT('',(52.262526478529,-4.05354514847654,-36.8977914052164));
#1458=CARTESIAN_POINT('',(52.262526478529,-3.14584584995177,-37.));
#1459=CARTESIAN_POINT('',(52.262526478529,-2.1359379566434,-37.));
#1460=CARTESIAN_POINT('',(52.262526478529,-2.13593795664341,-37.));
#1461=CARTESIAN_POINT('',(52.262526478529,-9.62,-37.));
#1462=CARTESIAN_POINT('',(52.262526478529,0.,-37.));
#1463=CARTESIAN_POINT('',(52.262526478529,0.,-31.499473521471));
#1464=CARTESIAN_POINT('',(0.,0.,0.));
#1465=CARTESIAN_POINT('',(47.912526478529,0.,-32.499473521471));
#1466=CARTESIAN_POINT('',(49.262526478529,0.,-32.499473521471));
#1467=CARTESIAN_POINT('',(48.762,0.,-37.));
#1468=CARTESIAN_POINT('',(-52.262526478529,-9.62,-31.499473521471));
#1469=CARTESIAN_POINT('',(-52.262526478529,-2.1359379566434,-37.));
#1470=CARTESIAN_POINT('',(-52.262526478529,-3.14584584995183,-37.));
#1471=CARTESIAN_POINT('',(-52.262526478529,-4.05354514847661,-36.8977914052164));
#1472=CARTESIAN_POINT('',(-52.262526478529,-4.85903585221774,-36.6933742156491));
#1473=CARTESIAN_POINT('',(-52.262526478529,-2.13593795664341,-37.));
#1474=CARTESIAN_POINT('',(-52.262526478529,-4.85903585221768,-36.6933742156491));
#1475=CARTESIAN_POINT('',(-52.262526478529,-0.105480480673588,0.));
#1476=CARTESIAN_POINT('',(-52.262526478529,-9.62,-27.998947042942));
#1477=CARTESIAN_POINT('',(-52.262526478529,0.,-27.998947042942));
#1478=CARTESIAN_POINT('',(-52.262526478529,0.,-31.499473521471));
#1479=CARTESIAN_POINT('',(-52.262526478529,0.,-37.));
#1480=CARTESIAN_POINT('',(-52.262526478529,-9.62,-37.));
#1481=CARTESIAN_POINT('',(-48.762,-9.62,-27.998947042942));
#1482=CARTESIAN_POINT('',(-48.762,0.,-27.998947042942));
#1483=CARTESIAN_POINT('',(-32.261473521471,0.,-27.998947042942));
#1484=CARTESIAN_POINT('',(-32.261473521471,-9.62,-27.998947042942));
#1485=CARTESIAN_POINT('',(0.,0.,0.));
#1486=CARTESIAN_POINT('',(-34.7874429253375,0.,-32.5706114125698));
#1487=CARTESIAN_POINT('',(-33.4374429253375,0.,-32.5706114125698));
#1488=CARTESIAN_POINT('',(-32.261473521471,0.,-31.499473521471));
#1489=CARTESIAN_POINT('',(-32.261473521471,0.,-37.));
#1490=CARTESIAN_POINT('',(-48.762,0.,-37.));
#1491=CARTESIAN_POINT('',(-48.762,-9.62,27.998947042942));
#1492=CARTESIAN_POINT('',(-48.762,0.,27.998947042942));
#1493=CARTESIAN_POINT('',(-32.261473521471,0.,27.998947042942));
#1494=CARTESIAN_POINT('',(-52.262526478529,0.,27.998947042942));
#1495=CARTESIAN_POINT('',(-32.261473521471,-9.62,27.998947042942));
#1496=CARTESIAN_POINT('',(-52.262526478529,-9.62,27.998947042942));
#1497=CARTESIAN_POINT('',(-52.262526478529,-9.62,31.499473521471));
#1498=CARTESIAN_POINT('',(-52.262526478529,-0.105480480673588,0.));
#1499=CARTESIAN_POINT('',(-52.262526478529,-4.85903585221774,36.6933742156491));
#1500=CARTESIAN_POINT('',(-52.262526478529,-4.85903585221774,36.6933742156491));
#1501=CARTESIAN_POINT('',(-52.262526478529,-4.0535451484766,36.8977914052164));
#1502=CARTESIAN_POINT('',(-52.262526478529,-3.14584584995182,37.));
#1503=CARTESIAN_POINT('',(-52.262526478529,-2.1359379566434,37.));
#1504=CARTESIAN_POINT('',(-52.262526478529,-2.13593795664341,37.));
#1505=CARTESIAN_POINT('',(-52.262526478529,-9.62,37.));
#1506=CARTESIAN_POINT('',(-52.262526478529,0.,37.));
#1507=CARTESIAN_POINT('',(-52.262526478529,0.,31.499473521471));
#1508=CARTESIAN_POINT('',(0.,0.,0.));
#1509=CARTESIAN_POINT('',(-34.7874429253375,0.,31.8293885874302));
#1510=CARTESIAN_POINT('',(-33.4374429253375,0.,31.8293885874302));
#1511=CARTESIAN_POINT('',(-48.762,0.,37.));
#1512=CARTESIAN_POINT('',(-32.261473521471,0.,37.));
#1513=CARTESIAN_POINT('',(-32.261473521471,0.,31.499473521471));
#1514=CARTESIAN_POINT('',(6.93889390390723E-15,-14.7,0.5));
#1515=CARTESIAN_POINT('',(10.5997888445853,-14.7,1.72773545416196E-15));
#1516=CARTESIAN_POINT('',(0.15606055300104,-14.7,-25.2486754247452));
#1517=CARTESIAN_POINT('',(-10.4002111554147,-14.7,1.72773545416196E-15));
#1518=CARTESIAN_POINT('',(-20.8439394469989,-14.7,-25.2486754247452));
#1519=CARTESIAN_POINT('',(31.5997888445853,-14.7,1.72773545416196E-15));
#1520=CARTESIAN_POINT('',(21.156060553001,-14.7,-25.2486754247452));
#1521=CARTESIAN_POINT('',(-31.4002111554147,-14.7,1.72773545416196E-15));
#1522=CARTESIAN_POINT('',(-41.843939446999,-14.7,-25.2486754247452));
#1523=CARTESIAN_POINT('',(52.5,-14.7,0.));
#1524=CARTESIAN_POINT('',(52.5,-14.7,34.));
#1525=CARTESIAN_POINT('',(52.5,-14.7,-34.));
#1526=CARTESIAN_POINT('',(6.93889390390723E-15,-14.7,34.));
#1527=CARTESIAN_POINT('',(-52.5,-14.7,34.));
#1528=CARTESIAN_POINT('',(-52.5,-14.7,3.46944695195361E-15));
#1529=CARTESIAN_POINT('',(-52.5,-14.7,-34.));
#1530=CARTESIAN_POINT('',(6.93889390390723E-15,-14.7,-34.));
#1531=CARTESIAN_POINT('',(60.31,-0.105480480673588,0.));
#1532=CARTESIAN_POINT('',(48.762,-4.8590358522177,36.6933742156491));
#1533=CARTESIAN_POINT('',(-32.261473521471,-0.105480480673588,0.));
#1534=CARTESIAN_POINT('',(-32.261473521471,-4.85903585221771,36.6933742156491));
#1535=CARTESIAN_POINT('',(-42.262,-4.85903585221775,36.6933742156491));
#1536=CARTESIAN_POINT('',(-42.262,-4.8590358522177,-36.6933742156491));
#1537=CARTESIAN_POINT('',(-32.261473521471,-4.85903585221766,-36.6933742156491));
#1538=CARTESIAN_POINT('',(-32.261473521471,-0.105480480673588,0.));
#1539=CARTESIAN_POINT('',(48.762,-4.85903585221782,-36.6933742156491));
#1540=CARTESIAN_POINT('',(60.31,-0.105480480673588,0.));
#1541=CARTESIAN_POINT('',(60.31,-37.1054804806736,0.));
#1542=CARTESIAN_POINT('',(52.5,-0.105480480673588,0.));
#1543=CARTESIAN_POINT('',(-52.5,-0.105480480673598,1.70770386580354E-15));
#1544=CARTESIAN_POINT('',(-65.1898,-0.105480480673598,1.70770386580354E-15));
#1545=CARTESIAN_POINT('',(-65.1898,36.8945195193264,1.70770386580354E-15));
#1546=CARTESIAN_POINT('',(60.31,-0.105480480673589,0.));
#1547=CARTESIAN_POINT('',(60.31,4.,0.));
#1548=CARTESIAN_POINT('',(60.31,4.,26.5));
#1549=CARTESIAN_POINT('',(52.5,-0.105480480673589,0.));
#1550=CARTESIAN_POINT('',(-52.5,-0.105480480673589,0.));
#1551=CARTESIAN_POINT('',(60.31,1.53158500449533,25.1201945969242));
#1552=CARTESIAN_POINT('',(52.5,1.53158500449533,25.1201945969242));
#1553=CARTESIAN_POINT('',(60.31,4.,27.1899027015379));
#1554=CARTESIAN_POINT('',(52.5,4.,27.1899027015379));
#1555=CARTESIAN_POINT('',(60.31,6.46841499550466,25.1201945969242));
#1556=CARTESIAN_POINT('',(52.5,6.46841499550466,25.1201945969242));
#1557=CARTESIAN_POINT('',(60.31,8.5610361841814,19.2261645800599));
#1558=CARTESIAN_POINT('',(52.5,8.5610361841814,19.2261645800599));
#1559=CARTESIAN_POINT('',(60.31,9.95928095971248,10.4051252914973));
#1560=CARTESIAN_POINT('',(52.5,9.95928095971248,10.4051252914973));
#1561=CARTESIAN_POINT('',(60.31,10.4502792301438,9.12762703961234E-15));
#1562=CARTESIAN_POINT('',(52.5,10.4502792301438,9.12762703961234E-15));
#1563=CARTESIAN_POINT('',(60.31,9.95928095971248,-10.4051252914974));
#1564=CARTESIAN_POINT('',(52.5,9.95928095971248,-10.4051252914974));
#1565=CARTESIAN_POINT('',(60.31,8.56103618418139,-19.2261645800599));
#1566=CARTESIAN_POINT('',(52.5,8.56103618418139,-19.2261645800599));
#1567=CARTESIAN_POINT('',(60.31,6.46841499550468,-25.1201945969242));
#1568=CARTESIAN_POINT('',(52.5,6.46841499550468,-25.1201945969242));
#1569=CARTESIAN_POINT('',(60.31,3.99999999999999,-27.1899027015379));
#1570=CARTESIAN_POINT('',(52.5,3.99999999999999,-27.1899027015379));
#1571=CARTESIAN_POINT('',(60.31,1.53158500449535,-25.1201945969242));
#1572=CARTESIAN_POINT('',(52.5,1.53158500449535,-25.1201945969242));
#1573=CARTESIAN_POINT('',(60.31,-0.561036184181406,-19.2261645800598));
#1574=CARTESIAN_POINT('',(52.5,-0.561036184181406,-19.2261645800598));
#1575=CARTESIAN_POINT('',(60.31,-1.95928095971247,-10.4051252914974));
#1576=CARTESIAN_POINT('',(52.5,-1.95928095971247,-10.4051252914974));
#1577=CARTESIAN_POINT('',(60.31,-2.45027923014376,1.02673945734377E-13));
#1578=CARTESIAN_POINT('',(52.5,-2.45027923014376,1.02673945734377E-13));
#1579=CARTESIAN_POINT('',(60.31,-1.95928095971248,10.4051252914973));
#1580=CARTESIAN_POINT('',(52.5,-1.95928095971248,10.4051252914973));
#1581=CARTESIAN_POINT('',(60.31,-0.561036184181414,19.2261645800598));
#1582=CARTESIAN_POINT('',(52.5,-0.561036184181414,19.2261645800598));
#1583=CARTESIAN_POINT('',(60.31,1.53158500449533,25.1201945969242));
#1584=CARTESIAN_POINT('',(52.5,1.53158500449533,25.1201945969242));
#1585=CARTESIAN_POINT('',(60.31,4.,27.1899027015379));
#1586=CARTESIAN_POINT('',(52.5,4.,27.1899027015379));
#1587=CARTESIAN_POINT('',(60.31,6.46841499550466,25.1201945969242));
#1588=CARTESIAN_POINT('',(52.5,6.46841499550466,25.1201945969242));
#1589=CARTESIAN_POINT('',(-35.1,15.5091239546635,-21.8406559939462));
#1590=CARTESIAN_POINT('',(-35.1,9.42990463227034,-21.8396098613739));
#1591=CARTESIAN_POINT('',(-35.1,9.42990463227034,-24.8396098613739));
#1592=CARTESIAN_POINT('',(-110.21,-0.105480480673585,0.));
#1593=CARTESIAN_POINT('',(-56.31,-0.105480480659607,-1.79110198894606E-11));
#1594=CARTESIAN_POINT('',(-125.21,-0.105480480673585,0.));
#1595=CARTESIAN_POINT('',(-125.21,34.8945195193264,0.));
#1596=CARTESIAN_POINT('',(-110.21,-0.105480480673596,0.));
#1597=CARTESIAN_POINT('',(-110.21,-0.105480480673583,0.));
#1598=CARTESIAN_POINT('',(-110.21,36.8945195193264,0.));
#1599=CARTESIAN_POINT('',(-110.21,-0.105480480673585,0.));
#1600=CARTESIAN_POINT('',(-110.21,37.8945195193264,0.));
#1601=CARTESIAN_POINT('',(-65.1898,-0.105480480673585,0.));
#1602=CARTESIAN_POINT('',(-65.1898,-0.105480480673585,0.));
#1603=CARTESIAN_POINT('',(-65.1898,37.8945195193264,0.));
#1604=CARTESIAN_POINT('',(-65.1898,-0.105480480673589,0.));
#1605=CARTESIAN_POINT('',(-125.21,-0.105480480673583,0.));
#1606=CARTESIAN_POINT('',(-125.21,-0.105480480673583,0.));
#1607=CARTESIAN_POINT('',(-125.21,36.8945195193264,0.));
#1608=CARTESIAN_POINT('',(-125.21,-0.105480480673582,0.));
#1609=CARTESIAN_POINT('',(-42.6607022690596,-9.62,-23.371254200162));
#1610=CARTESIAN_POINT('',(-42.6607022690596,-14.7,-23.371254200162));
#1611=CARTESIAN_POINT('',(-42.1158321399232,-9.62,-25.9060010619447));
#1612=CARTESIAN_POINT('',(-42.1158321399232,-14.7,-25.9060010619447));
#1613=CARTESIAN_POINT('',(-39.9396058532415,-9.62,-24.4967941005307));
#1614=CARTESIAN_POINT('',(-39.9396058532415,-14.7,-24.4967941005307));
#1615=CARTESIAN_POINT('',(-36.4633341336214,-9.62,-19.3581723013024));
#1616=CARTESIAN_POINT('',(-36.4633341336214,-14.7,-19.3581723013024));
#1617=CARTESIAN_POINT('',(-32.2162478378934,-9.62,-11.2724442514697));
#1618=CARTESIAN_POINT('',(-32.2162478378934,-14.7,-11.2724442514697));
#1619=CARTESIAN_POINT('',(-27.8449273546489,-9.62,-1.47058874931225));
#1620=CARTESIAN_POINT('',(-27.8449273546489,-14.7,-1.47058874931225));
#1621=CARTESIAN_POINT('',(-24.0148666013433,-9.62,8.55515055900754));
#1622=CARTESIAN_POINT('',(-24.0148666013433,-14.7,8.55515055900754));
#1623=CARTESIAN_POINT('',(-21.3091576080798,-9.62,17.2784457473515));
#1624=CARTESIAN_POINT('',(-21.3091576080798,-14.7,17.2784457473515));
#1625=CARTESIAN_POINT('',(-20.1397200417699,-9.62,23.371254200162));
#1626=CARTESIAN_POINT('',(-20.1397200417699,-14.7,23.371254200162));
#1627=CARTESIAN_POINT('',(-20.6845901709063,-9.62,25.9060010619447));
#1628=CARTESIAN_POINT('',(-20.6845901709063,-14.7,25.9060010619447));
#1629=CARTESIAN_POINT('',(-22.860816457588,-9.62,24.4967941005306));
#1630=CARTESIAN_POINT('',(-22.860816457588,-14.7,24.4967941005306));
#1631=CARTESIAN_POINT('',(-26.3370881772081,-9.62,19.3581723013025));
#1632=CARTESIAN_POINT('',(-26.3370881772081,-14.7,19.3581723013025));
#1633=CARTESIAN_POINT('',(-30.5841744729362,-9.62,11.2724442514696));
#1634=CARTESIAN_POINT('',(-30.5841744729362,-14.7,11.2724442514696));
#1635=CARTESIAN_POINT('',(-34.9554949561805,-9.62,1.47058874931255));
#1636=CARTESIAN_POINT('',(-34.9554949561805,-14.7,1.47058874931255));
#1637=CARTESIAN_POINT('',(-38.7855557094863,-9.62,-8.55515055900761));
#1638=CARTESIAN_POINT('',(-38.7855557094863,-14.7,-8.55515055900761));
#1639=CARTESIAN_POINT('',(-41.4912647027497,-9.62,-17.2784457473515));
#1640=CARTESIAN_POINT('',(-41.4912647027497,-14.7,-17.2784457473515));
#1641=CARTESIAN_POINT('',(-42.6607022690596,-9.62,-23.371254200162));
#1642=CARTESIAN_POINT('',(-42.6607022690596,-14.7,-23.371254200162));
#1643=CARTESIAN_POINT('',(-42.1158321399232,-9.62,-25.9060010619447));
#1644=CARTESIAN_POINT('',(-42.1158321399232,-14.7,-25.9060010619447));
#1645=CARTESIAN_POINT('',(-39.9396058532415,-9.62,-24.4967941005307));
#1646=CARTESIAN_POINT('',(-39.9396058532415,-14.7,-24.4967941005307));
#1647=CARTESIAN_POINT('',(20.3392977309404,-9.62,-23.371254200162));
#1648=CARTESIAN_POINT('',(20.3392977309404,-14.7,-23.371254200162));
#1649=CARTESIAN_POINT('',(20.8841678600768,-9.62,-25.9060010619447));
#1650=CARTESIAN_POINT('',(20.8841678600768,-14.7,-25.9060010619447));
#1651=CARTESIAN_POINT('',(23.0603941467585,-9.62,-24.4967941005307));
#1652=CARTESIAN_POINT('',(23.0603941467585,-14.7,-24.4967941005307));
#1653=CARTESIAN_POINT('',(26.5366658663786,-9.62,-19.3581723013024));
#1654=CARTESIAN_POINT('',(26.5366658663786,-14.7,-19.3581723013024));
#1655=CARTESIAN_POINT('',(30.7837521621066,-9.62,-11.2724442514697));
#1656=CARTESIAN_POINT('',(30.7837521621066,-14.7,-11.2724442514697));
#1657=CARTESIAN_POINT('',(35.1550726453511,-9.62,-1.47058874931225));
#1658=CARTESIAN_POINT('',(35.1550726453511,-14.7,-1.47058874931225));
#1659=CARTESIAN_POINT('',(38.9851333986567,-9.62,8.55515055900754));
#1660=CARTESIAN_POINT('',(38.9851333986567,-14.7,8.55515055900754));
#1661=CARTESIAN_POINT('',(41.6908423919202,-9.62,17.2784457473515));
#1662=CARTESIAN_POINT('',(41.6908423919202,-14.7,17.2784457473515));
#1663=CARTESIAN_POINT('',(42.8602799582301,-9.62,23.371254200162));
#1664=CARTESIAN_POINT('',(42.8602799582301,-14.7,23.371254200162));
#1665=CARTESIAN_POINT('',(42.3154098290937,-9.62,25.9060010619447));
#1666=CARTESIAN_POINT('',(42.3154098290937,-14.7,25.9060010619447));
#1667=CARTESIAN_POINT('',(40.139183542412,-9.62,24.4967941005306));
#1668=CARTESIAN_POINT('',(40.139183542412,-14.7,24.4967941005306));
#1669=CARTESIAN_POINT('',(36.6629118227919,-9.62,19.3581723013025));
#1670=CARTESIAN_POINT('',(36.6629118227919,-14.7,19.3581723013025));
#1671=CARTESIAN_POINT('',(32.4158255270638,-9.62,11.2724442514696));
#1672=CARTESIAN_POINT('',(32.4158255270638,-14.7,11.2724442514696));
#1673=CARTESIAN_POINT('',(28.0445050438196,-9.62,1.47058874931255));
#1674=CARTESIAN_POINT('',(28.0445050438196,-14.7,1.47058874931255));
#1675=CARTESIAN_POINT('',(24.2144442905137,-9.62,-8.55515055900761));
#1676=CARTESIAN_POINT('',(24.2144442905137,-14.7,-8.55515055900761));
#1677=CARTESIAN_POINT('',(21.5087352972503,-9.62,-17.2784457473515));
#1678=CARTESIAN_POINT('',(21.5087352972503,-14.7,-17.2784457473515));
#1679=CARTESIAN_POINT('',(20.3392977309404,-9.62,-23.371254200162));
#1680=CARTESIAN_POINT('',(20.3392977309404,-14.7,-23.371254200162));
#1681=CARTESIAN_POINT('',(20.8841678600768,-9.62,-25.9060010619447));
#1682=CARTESIAN_POINT('',(20.8841678600768,-14.7,-25.9060010619447));
#1683=CARTESIAN_POINT('',(23.0603941467585,-9.62,-24.4967941005307));
#1684=CARTESIAN_POINT('',(23.0603941467585,-14.7,-24.4967941005307));
#1685=CARTESIAN_POINT('',(-21.6607022690596,-9.62,-23.371254200162));
#1686=CARTESIAN_POINT('',(-21.6607022690596,-14.7,-23.371254200162));
#1687=CARTESIAN_POINT('',(-21.1158321399231,-9.62,-25.9060010619447));
#1688=CARTESIAN_POINT('',(-21.1158321399231,-14.7,-25.9060010619447));
#1689=CARTESIAN_POINT('',(-18.9396058532415,-9.62,-24.4967941005306));
#1690=CARTESIAN_POINT('',(-18.9396058532415,-14.7,-24.4967941005306));
#1691=CARTESIAN_POINT('',(-15.4633341336213,-9.62,-19.3581723013023));
#1692=CARTESIAN_POINT('',(-15.4633341336213,-14.7,-19.3581723013023));
#1693=CARTESIAN_POINT('',(-11.2162478378933,-9.62,-11.2724442514696));
#1694=CARTESIAN_POINT('',(-11.2162478378933,-14.7,-11.2724442514696));
#1695=CARTESIAN_POINT('',(-6.84492735464893,-9.62,-1.47058874931233));
#1696=CARTESIAN_POINT('',(-6.84492735464893,-14.7,-1.47058874931233));
#1697=CARTESIAN_POINT('',(-3.0148666013432,-9.62,8.55515055900762));
#1698=CARTESIAN_POINT('',(-3.0148666013432,-14.7,8.55515055900762));
#1699=CARTESIAN_POINT('',(-0.309157608079759,-9.62,17.2784457473516));
#1700=CARTESIAN_POINT('',(-0.309157608079759,-14.7,17.2784457473516));
#1701=CARTESIAN_POINT('',(0.860279958230121,-9.62,23.371254200162));
#1702=CARTESIAN_POINT('',(0.860279958230121,-14.7,23.371254200162));
#1703=CARTESIAN_POINT('',(0.315409829093709,-9.62,25.9060010619447));
#1704=CARTESIAN_POINT('',(0.315409829093709,-14.7,25.9060010619447));
#1705=CARTESIAN_POINT('',(-1.86081645758796,-9.62,24.4967941005307));
#1706=CARTESIAN_POINT('',(-1.86081645758796,-14.7,24.4967941005307));
#1707=CARTESIAN_POINT('',(-5.33708817720813,-9.62,19.3581723013023));
#1708=CARTESIAN_POINT('',(-5.33708817720813,-14.7,19.3581723013023));
#1709=CARTESIAN_POINT('',(-9.58417447293607,-9.62,11.2724442514697));
#1710=CARTESIAN_POINT('',(-9.58417447293607,-14.7,11.2724442514697));
#1711=CARTESIAN_POINT('',(-13.9554949561806,-9.62,1.47058874931222));
#1712=CARTESIAN_POINT('',(-13.9554949561806,-14.7,1.47058874931222));
#1713=CARTESIAN_POINT('',(-17.7855557094862,-9.62,-8.55515055900754));
#1714=CARTESIAN_POINT('',(-17.7855557094862,-14.7,-8.55515055900754));
#1715=CARTESIAN_POINT('',(-20.4912647027497,-9.62,-17.2784457473515));
#1716=CARTESIAN_POINT('',(-20.4912647027497,-14.7,-17.2784457473515));
#1717=CARTESIAN_POINT('',(-21.6607022690596,-9.62,-23.371254200162));
#1718=CARTESIAN_POINT('',(-21.6607022690596,-14.7,-23.371254200162));
#1719=CARTESIAN_POINT('',(-21.1158321399231,-9.62,-25.9060010619447));
#1720=CARTESIAN_POINT('',(-21.1158321399231,-14.7,-25.9060010619447));
#1721=CARTESIAN_POINT('',(-18.9396058532415,-9.62,-24.4967941005306));
#1722=CARTESIAN_POINT('',(-18.9396058532415,-14.7,-24.4967941005306));
#1723=CARTESIAN_POINT('',(-0.660702269059586,-9.62,-23.371254200162));
#1724=CARTESIAN_POINT('',(-0.660702269059586,-14.7,-23.371254200162));
#1725=CARTESIAN_POINT('',(-0.115832139923176,-9.62,-25.9060010619447));
#1726=CARTESIAN_POINT('',(-0.115832139923176,-14.7,-25.9060010619447));
#1727=CARTESIAN_POINT('',(2.06039414675853,-9.62,-24.4967941005306));
#1728=CARTESIAN_POINT('',(2.06039414675853,-14.7,-24.4967941005306));
#1729=CARTESIAN_POINT('',(5.53666586637865,-9.62,-19.3581723013023));
#1730=CARTESIAN_POINT('',(5.53666586637865,-14.7,-19.3581723013023));
#1731=CARTESIAN_POINT('',(9.78375216210665,-9.62,-11.2724442514696));
#1732=CARTESIAN_POINT('',(9.78375216210665,-14.7,-11.2724442514696));
#1733=CARTESIAN_POINT('',(14.155072645351,-9.62,-1.47058874931233));
#1734=CARTESIAN_POINT('',(14.155072645351,-14.7,-1.47058874931233));
#1735=CARTESIAN_POINT('',(17.9851333986568,-9.62,8.55515055900762));
#1736=CARTESIAN_POINT('',(17.9851333986568,-14.7,8.55515055900762));
#1737=CARTESIAN_POINT('',(20.6908423919202,-9.62,17.2784457473516));
#1738=CARTESIAN_POINT('',(20.6908423919202,-14.7,17.2784457473516));
#1739=CARTESIAN_POINT('',(21.8602799582301,-9.62,23.371254200162));
#1740=CARTESIAN_POINT('',(21.8602799582301,-14.7,23.371254200162));
#1741=CARTESIAN_POINT('',(21.3154098290937,-9.62,25.9060010619447));
#1742=CARTESIAN_POINT('',(21.3154098290937,-14.7,25.9060010619447));
#1743=CARTESIAN_POINT('',(19.139183542412,-9.62,24.4967941005307));
#1744=CARTESIAN_POINT('',(19.139183542412,-14.7,24.4967941005307));
#1745=CARTESIAN_POINT('',(15.6629118227918,-9.62,19.3581723013023));
#1746=CARTESIAN_POINT('',(15.6629118227918,-14.7,19.3581723013023));
#1747=CARTESIAN_POINT('',(11.4158255270639,-9.62,11.2724442514697));
#1748=CARTESIAN_POINT('',(11.4158255270639,-14.7,11.2724442514697));
#1749=CARTESIAN_POINT('',(7.04450504381943,-9.62,1.47058874931222));
#1750=CARTESIAN_POINT('',(7.04450504381943,-14.7,1.47058874931222));
#1751=CARTESIAN_POINT('',(3.21444429051377,-9.62,-8.55515055900754));
#1752=CARTESIAN_POINT('',(3.21444429051377,-14.7,-8.55515055900754));
#1753=CARTESIAN_POINT('',(0.508735297250319,-9.62,-17.2784457473515));
#1754=CARTESIAN_POINT('',(0.508735297250319,-14.7,-17.2784457473515));
#1755=CARTESIAN_POINT('',(-0.660702269059586,-9.62,-23.371254200162));
#1756=CARTESIAN_POINT('',(-0.660702269059586,-14.7,-23.371254200162));
#1757=CARTESIAN_POINT('',(-0.115832139923176,-9.62,-25.9060010619447));
#1758=CARTESIAN_POINT('',(-0.115832139923176,-14.7,-25.9060010619447));
#1759=CARTESIAN_POINT('',(2.06039414675853,-9.62,-24.4967941005306));
#1760=CARTESIAN_POINT('',(2.06039414675853,-14.7,-24.4967941005306));
#1761=CARTESIAN_POINT('',(-56.31,-0.105480480673589,0.));
#1762=CARTESIAN_POINT('',(-48.762,-9.62,37.));
#1763=CARTESIAN_POINT('',(-52.262526478529,-2.1359379566434,37.));
#1764=CARTESIAN_POINT('',(-45.5955088261763,-2.1359379566434,37.));
#1765=CARTESIAN_POINT('',(-38.9284911738237,-2.1359379566434,37.));
#1766=CARTESIAN_POINT('',(-32.261473521471,-2.1359379566434,37.));
#1767=CARTESIAN_POINT('',(-32.261473521471,-2.13593795664341,37.));
#1768=CARTESIAN_POINT('',(-32.261473521471,-9.62,37.));
#1769=CARTESIAN_POINT('',(-48.762,-9.62,-37.));
#1770=CARTESIAN_POINT('',(-32.261473521471,-9.62,-37.));
#1771=CARTESIAN_POINT('',(-32.261473521471,-2.13593795664341,-37.));
#1772=CARTESIAN_POINT('',(-32.261473521471,-2.1359379566434,-37.));
#1773=CARTESIAN_POINT('',(-38.9284911738237,-2.1359379566434,-37.));
#1774=CARTESIAN_POINT('',(-45.5955088261763,-2.1359379566434,-37.));
#1775=CARTESIAN_POINT('',(-52.262526478529,-2.1359379566434,-37.));
#1776=CARTESIAN_POINT('',(48.762,-9.62,-37.));
#1777=CARTESIAN_POINT('',(52.262526478529,-2.1359379566434,-37.));
#1778=CARTESIAN_POINT('',(49.9288421595097,-2.1359379566434,-37.));
#1779=CARTESIAN_POINT('',(47.5951578404903,-2.1359379566434,-37.));
#1780=CARTESIAN_POINT('',(45.261473521471,-2.1359379566434,-37.));
#1781=CARTESIAN_POINT('',(48.762,-9.62,37.));
#1782=CARTESIAN_POINT('',(45.261473521471,-2.1359379566434,37.));
#1783=CARTESIAN_POINT('',(47.5951578404903,-2.1359379566434,37.));
#1784=CARTESIAN_POINT('',(49.9288421595097,-2.1359379566434,37.));
#1785=CARTESIAN_POINT('',(52.262526478529,-2.1359379566434,37.));
#1786=CARTESIAN_POINT('',(-32.261473521471,-9.62,-31.499473521471));
#1787=CARTESIAN_POINT('',(-32.261473521471,-4.85903585221766,-36.6933742156492));
#1788=CARTESIAN_POINT('',(-32.261473521471,-4.05354514847651,-36.8977914052164));
#1789=CARTESIAN_POINT('',(-32.261473521471,-3.14584584995176,-37.));
#1790=CARTESIAN_POINT('',(-32.261473521471,-2.1359379566434,-37.));
#1791=CARTESIAN_POINT('',(-32.261473521471,-9.62,31.499473521471));
#1792=CARTESIAN_POINT('',(-32.261473521471,-2.1359379566434,37.));
#1793=CARTESIAN_POINT('',(-32.261473521471,-3.14584584995178,37.));
#1794=CARTESIAN_POINT('',(-32.261473521471,-4.05354514847654,36.8977914052164));
#1795=CARTESIAN_POINT('',(-32.261473521471,-4.85903585221767,36.6933742156492));
#1796=CARTESIAN_POINT('',(-34.7874429253375,-9.6,31.8293885874302));
#1797=CARTESIAN_POINT('',(-34.7874429253375,-9.6,31.8293885874302));
#1798=CARTESIAN_POINT('',(-33.4374429253375,-9.6,31.8293885874302));
#1799=CARTESIAN_POINT('',(6.56254177659573,-9.6,-0.335042467020444));
#1800=CARTESIAN_POINT('',(-34.7874429253375,-9.6,-32.5706114125698));
#1801=CARTESIAN_POINT('',(-34.7874429253375,-9.6,-32.5706114125698));
#1802=CARTESIAN_POINT('',(-33.4374429253375,-9.6,-32.5706114125698));
#1803=CARTESIAN_POINT('',(6.56254177659573,-9.6,-0.335042467020444));
#1804=CARTESIAN_POINT('',(47.912526478529,-9.6,-32.499473521471));
#1805=CARTESIAN_POINT('',(47.912526478529,-9.6,-32.499473521471));
#1806=CARTESIAN_POINT('',(49.262526478529,-9.6,-32.499473521471));
#1807=CARTESIAN_POINT('',(6.56254177659573,-9.6,-0.335042467020444));
#1808=CARTESIAN_POINT('',(47.912526478529,-9.6,31.900526478529));
#1809=CARTESIAN_POINT('',(47.912526478529,-9.6,31.900526478529));
#1810=CARTESIAN_POINT('',(49.262526478529,-9.6,31.900526478529));
#1811=CARTESIAN_POINT('',(6.56254177659573,-9.6,-0.335042467020444));
#1812=CARTESIAN_POINT('',(-52.262526478529,-4.85903585221773,-36.6933742156491));
#1813=CARTESIAN_POINT('',(-32.261473521471,-4.85903585221773,-36.6933742156491));
#1814=CARTESIAN_POINT('',(-52.262526478529,-4.05354514847658,-36.8977914052163));
#1815=CARTESIAN_POINT('',(-32.261473521471,-4.05354514847658,-36.8977914052163));
#1816=CARTESIAN_POINT('',(-52.262526478529,-3.14584584995181,-37.));
#1817=CARTESIAN_POINT('',(-32.261473521471,-3.14584584995181,-37.));
#1818=CARTESIAN_POINT('',(-52.262526478529,-2.1359379566434,-37.));
#1819=CARTESIAN_POINT('',(-32.261473521471,-2.1359379566434,-37.));
#1820=CARTESIAN_POINT('',(-32.261473521471,-4.85903585221772,36.6933742156491));
#1821=CARTESIAN_POINT('',(-52.262526478529,-4.85903585221772,36.6933742156491));
#1822=CARTESIAN_POINT('',(-32.261473521471,-4.05354514847658,36.8977914052163));
#1823=CARTESIAN_POINT('',(-52.262526478529,-4.05354514847658,36.8977914052163));
#1824=CARTESIAN_POINT('',(-32.261473521471,-3.1458458499518,37.));
#1825=CARTESIAN_POINT('',(-52.262526478529,-3.1458458499518,37.));
#1826=CARTESIAN_POINT('',(-32.261473521471,-2.1359379566434,37.));
#1827=CARTESIAN_POINT('',(-52.262526478529,-2.1359379566434,37.));
#1828=CARTESIAN_POINT('',(52.262526478529,-2.1359379566434,-37.));
#1829=CARTESIAN_POINT('',(45.261473521471,-2.1359379566434,-37.));
#1830=CARTESIAN_POINT('',(52.262526478529,-3.14584584995187,-37.));
#1831=CARTESIAN_POINT('',(45.261473521471,-3.14584584995187,-37.));
#1832=CARTESIAN_POINT('',(52.262526478529,-4.0535451484767,-36.8977914052163));
#1833=CARTESIAN_POINT('',(45.261473521471,-4.0535451484767,-36.8977914052163));
#1834=CARTESIAN_POINT('',(52.262526478529,-4.85903585221788,-36.693374215649));
#1835=CARTESIAN_POINT('',(45.261473521471,-4.85903585221788,-36.693374215649));
#1836=CARTESIAN_POINT('',(45.261473521471,-2.1359379566434,37.));
#1837=CARTESIAN_POINT('',(52.262526478529,-2.1359379566434,37.));
#1838=CARTESIAN_POINT('',(45.261473521471,-3.14584584995237,37.));
#1839=CARTESIAN_POINT('',(52.262526478529,-3.14584584995237,37.));
#1840=CARTESIAN_POINT('',(45.261473521471,-4.05354514847759,36.8977914052162));
#1841=CARTESIAN_POINT('',(52.262526478529,-4.05354514847759,36.8977914052162));
#1842=CARTESIAN_POINT('',(45.261473521471,-4.85903585221908,36.6933742156488));
#1843=CARTESIAN_POINT('',(52.262526478529,-4.85903585221908,36.6933742156488));
#1844=MECHANICAL_DESIGN_GEOMETRIC_PRESENTATION_REPRESENTATION('',(#972),
#1845);
#1845=(
GEOMETRIC_REPRESENTATION_CONTEXT(3)
GLOBAL_UNCERTAINTY_ASSIGNED_CONTEXT((#1846))
GLOBAL_UNIT_ASSIGNED_CONTEXT((#1849,#1848,#1847))
REPRESENTATION_CONTEXT('Part 1','TOP_LEVEL_ASSEMBLY_PART')
);
#1846=UNCERTAINTY_MEASURE_WITH_UNIT(LENGTH_MEASURE(1.E-5),#1849,
'DISTANCE_ACCURACY_VALUE','Maximum Tolerance applied to model');
#1847=(
NAMED_UNIT(*)
SI_UNIT($,.STERADIAN.)
SOLID_ANGLE_UNIT()
);
#1848=(
NAMED_UNIT(*)
PLANE_ANGLE_UNIT()
SI_UNIT($,.RADIAN.)
);
#1849=(
LENGTH_UNIT()
NAMED_UNIT(*)
SI_UNIT(.MILLI.,.METRE.)
);
#1850=PRODUCT_DEFINITION_SHAPE('','',#1851);
#1851=PRODUCT_DEFINITION('','',#1853,#1852);
#1852=PRODUCT_DEFINITION_CONTEXT('',#1859,'design');
#1853=PRODUCT_DEFINITION_FORMATION_WITH_SPECIFIED_SOURCE('','',#1855,
 .NOT_KNOWN.);
#1854=PRODUCT_RELATED_PRODUCT_CATEGORY('','',(#1855));
#1855=PRODUCT('Part 1','Part 1','Part 1',(#1857));
#1856=PRODUCT_CATEGORY('','');
#1857=PRODUCT_CONTEXT('',#1859,'mechanical');
#1858=APPLICATION_PROTOCOL_DEFINITION('international standard',
'ap242_managed_model_based_3d_engineering',2020,#1859);
#1859=APPLICATION_CONTEXT('managed model based 3d engineering');
ENDSEC;
END-ISO-10303-21;
